<svg xmlns="http://www.w3.org/2000/svg" width="48" height="48" viewBox="0 0 48 48">
  <g id="그룹_12" data-name="그룹 12" transform="translate(-2074 -2860)">
    <rect id="사각형_88" data-name="사각형 88" width="48" height="48" transform="translate(2074 2860)" fill="none"/>
    <path id="패스_7" data-name="패스 7" d="M.377,42.679c-.468-1.009-.111-.947.9-.821a1.774,1.774,0,0,0,1.31,0s15.97-.445,8.921-7.141C5.164,28.689,5.179,17.143,5.247,14.893a1.284,1.284,0,0,1,.225-.7C6.86,12.145,14.877.782,21.613,1c0,0,12.924-2.238,13.746,0,0,0,6.912,7.875,4.348,5.759C37.62,5.03,31.592,3.61,30.573,3.379a1.353,1.353,0,0,0-.292-.033H27.029a1.325,1.325,0,0,0-1.323,1.3l-.089,6.1a1.3,1.3,0,0,0,.407.974c1.653,1.572,6.257,7.134,5.561,11.481a12.508,12.508,0,0,0-.393,2.388l.393,6.317a1.3,1.3,0,0,1-.393.975c-1.708,1.664-8.214,7.977-8.522,7.907s.973-7.726,1.323-9.794a1.306,1.306,0,0,0-.2-.946L19.263,23.2l2.252,6.87a1.31,1.31,0,0,1,.052.606L20.4,38.547a1.326,1.326,0,0,1-.5.855l-5.31,4.072a1.329,1.329,0,0,1-.851.273l-12.46-.627C.778,43.1.585,43.132.377,42.679Z" transform="translate(2078.231 2861.75)" fill="#6aae27"/>
  </g>
</svg>
