<svg width="180" height="60" viewBox="0 0 180 60" fill="none" xmlns="http://www.w3.org/2000/svg">
<g clip-path="url(#clip0_23_1107)">
<path d="M52.6549 45.6227C51.4249 45.1812 51.1919 44.8868 51.1919 44.3802C51.1919 43.8737 51.5458 43.4711 52.3873 43.4711C53.0045 43.4711 53.4144 43.6746 53.8633 44.0469L54.3035 43.5057C53.7856 43.0901 53.2591 42.8477 52.4305 42.8477C51.2825 42.8477 50.5057 43.4364 50.5057 44.4235C50.5057 45.3154 50.9545 45.7483 52.2837 46.2245C53.4101 46.6315 53.7511 46.9562 53.7511 47.5276C53.7511 48.1814 53.2418 48.5883 52.4262 48.5883C51.7918 48.5883 51.2566 48.2939 50.7905 47.848L50.3374 48.3589C50.8208 48.8524 51.5674 49.2161 52.4046 49.2161C53.6863 49.2161 54.4416 48.4628 54.4416 47.4973C54.4416 46.5319 54.0229 46.1206 52.6592 45.6271L52.6549 45.6227Z" fill="white"/>
<path d="M57.2296 44.3934C56.6297 44.3934 56.0859 44.5406 55.6802 44.7614L55.9306 45.2983C56.306 45.0775 56.703 44.9432 57.1864 44.9432C57.8596 44.9432 58.1876 45.2766 58.1876 45.9693V46.5148C57.9157 46.3633 57.4971 46.2464 57.0353 46.2464C56.1248 46.2464 55.2703 46.688 55.2703 47.727C55.2703 48.844 56.0255 49.2076 56.7419 49.2076C57.4065 49.2076 57.8596 48.8959 58.1876 48.5452V49.1124H58.8436V45.8827C58.8436 44.809 58.2221 44.3848 57.2296 44.3848V44.3934ZM58.1833 47.9824C57.9028 48.3677 57.454 48.6751 56.8584 48.6751C56.2931 48.6751 55.9133 48.3764 55.9133 47.688C55.9133 47.1079 56.319 46.7789 56.9965 46.7789C57.5575 46.7789 57.8812 46.8828 58.1833 47.0473V47.9868V47.9824Z" fill="white"/>
<path d="M65.4636 46.4057V49.1159H66.1196V46.2975C66.1196 44.9467 65.5326 44.3926 64.5918 44.3926C63.8409 44.3926 63.4655 44.7433 63.1936 45.1848C62.9735 44.7433 62.5808 44.3926 61.9291 44.3926C61.3853 44.3926 60.9969 44.6567 60.7596 45.055V44.4922H60.095V49.1202H60.7596V46.41C60.7596 45.384 61.1523 44.964 61.7867 44.964C62.4211 44.964 62.7793 45.3494 62.7793 46.41V49.1202H63.4396V46.41C63.4396 45.384 63.8409 44.964 64.4667 44.964C65.1313 44.964 65.4593 45.3494 65.4593 46.41L65.4636 46.4057Z" fill="white"/>
<path d="M68.765 46.4235C67.9838 46.0684 67.7508 45.9169 67.7508 45.523C67.7508 45.1853 68.027 44.9515 68.5147 44.9515C69.0023 44.9515 69.3044 45.0814 69.6626 45.3671L70.0294 44.8779C69.6799 44.5878 69.1879 44.3887 68.5578 44.3887C67.7163 44.3887 67.1164 44.8649 67.1164 45.5662C67.1164 46.3066 67.5005 46.588 68.4283 46.9863C69.244 47.3369 69.5159 47.5491 69.5159 47.9301C69.5159 48.3803 69.2181 48.6444 68.5837 48.6444C68.1262 48.6444 67.6947 48.4582 67.3279 48.1335L66.9395 48.6141C67.3796 48.9691 67.932 49.2072 68.5664 49.2072C69.3648 49.2072 70.146 48.8132 70.146 47.8997C70.146 47.0728 69.6367 46.8174 68.7606 46.4191L68.765 46.4235Z" fill="white"/>
<path d="M73.9955 47.1941C73.9955 48.2072 73.4906 48.6358 72.8562 48.6358C72.1139 48.6358 71.7644 48.1898 71.7644 47.1941V44.4883H71.1084V47.3067C71.1084 48.6358 71.7514 49.2116 72.7224 49.2116C73.305 49.2116 73.7323 48.9388 73.9955 48.5492V49.1163H74.6558V44.4883H73.9955V47.1941Z" fill="white"/>
<path d="M79.3166 49.1159V46.2975C79.3166 44.964 78.6736 44.3926 77.6983 44.3926C77.12 44.3926 76.6884 44.6653 76.4295 45.055V44.4922H75.7649V49.1202H76.4295V46.41C76.4295 45.397 76.9258 44.964 77.5645 44.964C78.3025 44.964 78.6564 45.4143 78.6564 46.41V49.1202H79.3166V49.1159Z" fill="white"/>
<path d="M81.3927 50.3112L81.6041 50.8134C83.3174 50.7614 83.9389 50.0904 83.9389 48.6963V44.4839H83.2786V45.0034C82.9549 44.6311 82.5579 44.3887 81.9796 44.3887C81.0129 44.3887 80.2361 45.2329 80.2361 46.8737C80.2361 48.5145 80.9697 49.2072 81.889 49.2072C82.5147 49.2072 82.9549 48.8955 83.2786 48.5448V48.7829C83.2786 49.8609 82.929 50.2679 81.3884 50.3068L81.3927 50.3112ZM82.0616 48.6357C81.3322 48.6357 80.8921 48.0296 80.8921 46.865C80.8921 45.6225 81.2675 44.9601 82.0357 44.9601C82.5838 44.9601 83.0283 45.2675 83.2829 45.6528V47.969C82.9592 48.376 82.5536 48.6357 82.0616 48.6357Z" fill="white"/>
<path d="M91.2149 45.9869C91.2149 43.8698 90.0237 42.9434 88.4097 42.9434H86.7827V49.117H88.2889C89.9331 49.117 91.2149 48.2251 91.2149 45.9869ZM87.4689 43.5668H88.3579C89.7734 43.5668 90.5287 44.4326 90.5287 46.0085C90.5287 47.7835 89.7001 48.4892 88.3752 48.4892H87.4689V43.5668Z" fill="white"/>
<path d="M92.9713 45.0608V44.4894H92.311V49.1174H92.9713V46.3986C92.9713 45.5154 93.3338 45.0002 93.9769 45.0002C94.2833 45.0002 94.4818 45.0695 94.6674 45.1777L94.8314 44.511C94.676 44.4417 94.4559 44.3984 94.1107 44.3984C93.6144 44.3984 93.1785 44.6972 92.9713 45.0651V45.0608Z" fill="white"/>
<path d="M98.7758 48.6758L98.4651 48.1996C98.0421 48.481 97.7271 48.6412 97.1876 48.6412C96.4367 48.6412 95.9663 48.0134 95.9059 47.0307H98.9786C99.0002 46.9224 99.0088 46.8272 99.0088 46.6713C99.0088 45.3509 98.3529 44.3984 97.1488 44.3984C96.0526 44.3984 95.2456 45.3119 95.2456 46.7796C95.2456 48.6022 96.2727 49.217 97.1186 49.217C97.8134 49.217 98.2191 49.0308 98.7758 48.6801V48.6758ZM97.1488 44.9656C97.9558 44.9656 98.3442 45.5933 98.396 46.4895H95.9059C95.9836 45.4548 96.4626 44.9656 97.1488 44.9656Z" fill="white"/>
<path d="M101.21 49.2115C101.87 49.2115 102.323 48.8998 102.647 48.5491V49.1163H103.307V45.8866C103.307 44.8129 102.686 44.3887 101.693 44.3887C101.093 44.3887 100.55 44.5359 100.144 44.7567L100.39 45.2935C100.77 45.0727 101.162 44.9385 101.646 44.9385C102.323 44.9385 102.647 45.2719 102.647 45.9645V46.51C102.375 46.3585 101.961 46.2416 101.499 46.2416C100.584 46.2416 99.7253 46.6832 99.7253 47.7222C99.7253 48.8392 100.485 49.2029 101.206 49.2029L101.21 49.2115ZM101.465 46.7741C102.026 46.7741 102.354 46.878 102.651 47.0425V47.982C102.371 48.3673 101.922 48.6747 101.326 48.6747C100.765 48.6747 100.381 48.376 100.381 47.6876C100.381 47.1075 100.791 46.7785 101.465 46.7785V46.7741Z" fill="white"/>
<path d="M109.928 46.4057V49.1159H110.588V46.2975C110.588 44.9467 110.001 44.3926 109.06 44.3926C108.313 44.3926 107.934 44.7433 107.666 45.1848C107.446 44.7433 107.053 44.3926 106.402 44.3926C105.854 44.3926 105.469 44.6567 105.232 45.055V44.4922H104.576V49.1202H105.232V46.41C105.232 45.384 105.629 44.964 106.264 44.964C106.898 44.964 107.26 45.3494 107.26 46.41V49.1202H107.916V46.41C107.916 45.384 108.318 44.964 108.948 44.964C109.612 44.964 109.94 45.3494 109.94 46.41L109.928 46.4057Z" fill="white"/>
<path d="M52.6549 54.8059C51.4206 54.3643 51.1962 54.0743 51.1962 53.5634C51.1962 53.0525 51.5501 52.6586 52.3916 52.6586C53.0088 52.6586 53.4231 52.8577 53.8676 53.23L54.3078 52.6932C53.7899 52.2819 53.2591 52.0352 52.4348 52.0352C51.2825 52.0352 50.51 52.6153 50.51 53.611C50.51 54.5029 50.9589 54.9315 52.2881 55.4077C53.4144 55.819 53.7554 56.1393 53.7554 56.7151C53.7554 57.3645 53.2461 57.7715 52.4262 57.7715C51.7918 57.7715 51.2566 57.4771 50.7905 57.0312L50.3374 57.542C50.8208 58.0356 51.5674 58.3949 52.4046 58.3949C53.6863 58.3949 54.4372 57.646 54.4372 56.6762C54.4372 55.7064 54.0186 55.2995 52.6592 54.8059H52.6549Z" fill="white"/>
<path d="M57.2381 54.1481C57.7042 54.1481 58.0106 54.3126 58.3429 54.6156L58.7399 54.1221C58.3774 53.8017 57.8984 53.5723 57.2812 53.5723C56.3145 53.5723 55.2917 54.2953 55.2917 56.0053C55.2917 57.6202 56.2196 58.3908 57.2338 58.3908C57.8811 58.3908 58.3299 58.144 58.7183 57.7457L58.3213 57.3258C58.0063 57.6332 57.7085 57.815 57.2597 57.815C56.444 57.815 55.9564 57.0833 55.9564 55.9447C55.9564 54.8061 56.5131 54.1394 57.2338 54.1394L57.2381 54.1481Z" fill="white"/>
<path d="M61.5579 53.5754C60.9796 53.5754 60.5437 53.8481 60.2805 54.2378V52.0645H59.6245V58.3073H60.2805V55.5972C60.2805 54.5841 60.7854 54.1512 61.4241 54.1512C62.1664 54.1512 62.516 54.5971 62.516 55.5972V58.3073H63.1763V55.4803C63.1763 54.1512 62.5332 53.5754 61.5579 53.5754Z" fill="white"/>
<path d="M66.1196 53.5762C64.9976 53.5762 64.1042 54.4204 64.1042 55.9919C64.1042 57.5635 64.9631 58.399 66.0851 58.399C67.2072 58.399 68.1091 57.5288 68.1091 55.9573C68.1091 54.3858 67.2417 53.5762 66.1196 53.5762ZM66.1067 57.8232C65.304 57.8232 64.7645 57.1911 64.7645 55.9746C64.7645 54.7581 65.304 54.152 66.1067 54.152C66.9094 54.152 67.4488 54.7581 67.4488 55.9746C67.4488 57.1911 66.9051 57.8232 66.1067 57.8232Z" fill="white"/>
<path d="M69.7621 52.0605H69.1018V58.3034H69.7621V52.0605Z" fill="white"/>
<path d="M72.7787 53.5762C72.1788 53.5762 71.6351 53.7277 71.2337 53.9485L71.4797 54.4897C71.8595 54.2689 72.2565 54.1347 72.7399 54.1347C73.4131 54.1347 73.7411 54.4723 73.7411 55.1564V55.7062C73.4692 55.5547 73.0549 55.4378 72.5931 55.4378C71.6782 55.4378 70.8237 55.8794 70.8237 56.9227C70.8237 58.0397 71.579 58.399 72.2997 58.399C72.96 58.399 73.4131 58.0916 73.7411 57.741V58.3081H74.4014V55.0828C74.4014 54.0004 73.7756 53.5805 72.783 53.5805L72.7787 53.5762ZM73.7368 57.1652C73.4606 57.5462 73.0031 57.8579 72.4119 57.8579C71.8508 57.8579 71.4711 57.5591 71.4711 56.8708C71.4711 56.2863 71.8767 55.966 72.5543 55.966C73.1153 55.966 73.439 56.0612 73.7368 56.23V57.1652Z" fill="white"/>
<path d="M76.3131 54.2461V53.666H75.6528V58.2983H76.3131V55.5795C76.3131 54.7007 76.667 54.1768 77.3143 54.1768C77.6251 54.1768 77.8236 54.2461 78.0092 54.3543L78.1775 53.6833C78.0178 53.614 77.802 53.5664 77.4568 53.5664C76.9648 53.5664 76.5203 53.8651 76.3174 54.2418L76.3131 54.2461Z" fill="white"/>
<path d="M80.7063 55.6109C79.9252 55.2559 79.6878 55.0958 79.6878 54.7105C79.6878 54.3771 79.9683 54.139 80.4517 54.139C80.935 54.139 81.2457 54.2732 81.6039 54.5546L81.9708 54.0697C81.6169 53.7796 81.1292 53.5762 80.4948 53.5762C79.6576 53.5762 79.0491 54.0524 79.0491 54.7581C79.0491 55.4638 79.4375 55.7798 80.361 56.1738C81.1767 56.5244 81.4486 56.7409 81.4486 57.1175C81.4486 57.5721 81.1508 57.8319 80.5207 57.8319C80.0589 57.8319 79.6317 57.6457 79.2606 57.321L78.8765 57.8059C79.3167 58.1609 79.8691 58.3947 80.5034 58.3947C81.3018 58.3947 82.083 57.9964 82.083 57.0916C82.083 56.2603 81.5737 56.0092 80.702 55.6109H80.7063Z" fill="white"/>
<path d="M85.0954 53.5754C84.5085 53.5754 84.0813 53.8481 83.818 54.2378V52.0645H83.1577V58.3073H83.818V55.5972C83.818 54.5841 84.3186 54.1512 84.9616 54.1512C85.6996 54.1512 86.0492 54.5971 86.0492 55.5972V58.3073H86.7095V55.4803C86.7095 54.1512 86.0708 53.5754 85.0954 53.5754Z" fill="white"/>
<path d="M88.6687 53.666H88.0127V58.2984H88.6687V53.666Z" fill="white"/>
<path d="M88.3535 51.9004C88.086 51.9004 87.8745 52.1125 87.8745 52.3809C87.8745 52.6494 88.086 52.8485 88.3535 52.8485C88.5995 52.8485 88.811 52.632 88.811 52.3809C88.811 52.1125 88.5995 51.9004 88.3535 51.9004Z" fill="white"/>
<path d="M92.0477 53.5762C91.4263 53.5762 90.9861 53.8879 90.6581 54.2386V53.6714H89.9978V60.0052H90.6581V57.7843C90.9818 58.1523 91.3788 58.399 91.9614 58.399C92.9238 58.399 93.7006 57.5505 93.7006 55.914C93.7006 54.2775 92.9669 53.5762 92.0477 53.5762ZM91.9053 57.8232C91.3615 57.8232 90.9127 57.5158 90.6581 57.1262V54.8144C90.9818 54.4117 91.3874 54.1476 91.8794 54.1476C92.6131 54.1476 93.0533 54.7537 93.0533 55.9183C93.0533 57.1608 92.6735 57.8189 91.9096 57.8189L91.9053 57.8232Z" fill="white"/>
<path d="M97.192 52.7523H100.118V52.1289H96.5059V58.3025H97.192V55.4235H98.8794V54.8001H97.192V52.7523Z" fill="white"/>
<path d="M102.121 53.5762C100.998 53.5762 100.101 54.4204 100.101 55.9919C100.101 57.5635 100.964 58.399 102.086 58.399C103.208 58.399 104.11 57.5288 104.11 55.9573C104.11 54.3858 103.251 53.5762 102.121 53.5762ZM102.108 57.8232C101.305 57.8232 100.774 57.1911 100.774 55.9746C100.774 54.7581 101.309 54.152 102.108 54.152C102.906 54.152 103.454 54.7581 103.454 55.9746C103.454 57.1911 102.91 57.8232 102.108 57.8232Z" fill="white"/>
<path d="M107.748 56.3762C107.748 57.3892 107.252 57.8222 106.609 57.8222C105.871 57.8222 105.517 57.3762 105.517 56.3762V53.666H104.861V56.4887C104.861 57.8178 105.504 58.3936 106.479 58.3936C107.053 58.3936 107.485 58.1252 107.748 57.7356V58.3027H108.413V53.6703H107.748V56.3805V56.3762Z" fill="white"/>
<path d="M111.451 53.5766C110.872 53.5766 110.441 53.8493 110.178 54.239V53.6718H109.517V58.3042H110.178V55.5941C110.178 54.581 110.678 54.1481 111.321 54.1481C112.059 54.1481 112.409 54.594 112.409 55.5941V58.3042H113.069V55.4772C113.069 54.1481 112.426 53.5723 111.451 53.5723V53.5766Z" fill="white"/>
<path d="M117.035 54.1949C116.707 53.8226 116.314 53.5715 115.732 53.5715C114.765 53.5715 113.993 54.4157 113.993 56.0608C113.993 57.706 114.722 58.3943 115.646 58.3943C116.271 58.3943 116.707 58.087 117.031 57.7363V58.3034H117.691V52.0605H117.031V54.1949H117.035ZM117.035 57.1562C116.707 57.5588 116.306 57.8229 115.814 57.8229C115.085 57.8229 114.644 57.2168 114.644 56.0522C114.644 54.8053 115.02 54.1473 115.788 54.1473C116.332 54.1473 116.776 54.4547 117.035 54.8443V57.1518V57.1562Z" fill="white"/>
<path d="M120.488 53.5762C119.892 53.5762 119.348 53.7277 118.943 53.9485L119.184 54.4897C119.564 54.2689 119.961 54.1347 120.445 54.1347C121.118 54.1347 121.442 54.4723 121.442 55.1564V55.7062C121.17 55.5547 120.755 55.4378 120.289 55.4378C119.379 55.4378 118.524 55.8794 118.524 56.9227C118.524 58.0397 119.284 58.399 120.004 58.399C120.665 58.399 121.118 58.0916 121.442 57.741V58.3081H122.102V55.0828C122.102 54.0004 121.48 53.5805 120.483 53.5805L120.488 53.5762ZM121.446 57.1652C121.165 57.5462 120.721 57.8579 120.117 57.8579C119.56 57.8579 119.184 57.5591 119.184 56.8708C119.184 56.2863 119.586 55.966 120.263 55.966C120.824 55.966 121.152 56.0612 121.446 56.23V57.1652Z" fill="white"/>
<path d="M124.208 52.0605H123.543V53.6667H122.974V54.2252H123.543V57.3466C123.543 58.1129 123.854 58.39 124.428 58.39C124.773 58.39 125.019 58.3381 125.274 58.2341L125.321 57.6627C125.11 57.7493 124.937 57.7926 124.67 57.7926C124.32 57.7926 124.208 57.6497 124.208 57.2384V54.2252H125.352V53.6667H124.208V52.0605Z" fill="white"/>
<path d="M126.849 51.9004C126.577 51.9004 126.361 52.1125 126.361 52.3809C126.361 52.6494 126.577 52.8485 126.849 52.8485C127.095 52.8485 127.302 52.632 127.302 52.3809C127.302 52.1125 127.091 51.9004 126.849 51.9004Z" fill="white"/>
<path d="M127.164 53.666H126.504V58.2984H127.164V53.666Z" fill="white"/>
<path d="M130.176 53.5762C129.054 53.5762 128.156 54.4204 128.156 55.9919C128.156 57.5635 129.015 58.399 130.142 58.399C131.268 58.399 132.161 57.5288 132.161 55.9573C132.161 54.3858 131.298 53.5762 130.176 53.5762ZM130.159 57.8232C129.361 57.8232 128.821 57.1911 128.821 55.9746C128.821 54.7581 129.361 54.152 130.159 54.152C130.957 54.152 131.505 54.7581 131.505 55.9746C131.505 57.1911 130.962 57.8232 130.159 57.8232Z" fill="white"/>
<path d="M135.049 53.5766C134.47 53.5766 134.039 53.8493 133.771 54.239V53.6718H133.111V58.3042H133.771V55.5941C133.771 54.581 134.272 54.1481 134.915 54.1481C135.653 54.1481 136.007 54.594 136.007 55.5941V58.3042H136.663V55.4772C136.663 54.1481 136.02 53.5723 135.049 53.5723V53.5766Z" fill="white"/>
<path d="M75.7261 30.791C73.0763 30.7953 70.8926 32.8734 70.8926 35.4797C70.8926 38.0859 73.0763 40.1423 75.7261 40.151C78.4017 40.1423 80.5639 38.0599 80.5639 35.4797C80.5639 32.8994 78.4017 30.7953 75.7261 30.791ZM75.6613 38.0123C74.276 38.0123 73.2316 36.878 73.2316 35.4797C73.2316 34.0813 74.3494 32.9254 75.7304 32.9254C77.1114 32.9254 78.1903 34.0596 78.1903 35.4797C78.1903 36.8997 77.0596 38.0123 75.6656 38.0123H75.6613Z" fill="white"/>
<path d="M53.5482 27.566C54.2861 28.2977 55.132 28.9384 55.9649 29.3497L56.0512 29.3973L57.4797 27.7045L57.3416 27.6266C55.9865 26.8906 54.9248 25.9598 54.23 24.7866C53.5395 23.6306 53.1856 22.2886 53.1856 20.6824V19.1758H50.6308V20.5222C50.6308 22.2626 50.2381 23.6306 49.5001 24.8299C48.6758 26.159 47.4545 27.2283 45.8922 28.2197L45.7542 28.3063L47.3035 29.9168L47.3898 29.8692C48.3133 29.367 49.293 28.592 50.1431 27.7262C50.8811 26.9686 51.5198 26.159 51.9082 25.3927C52.2837 26.146 52.8577 26.9123 53.5482 27.5703V27.566Z" fill="white"/>
<path d="M50.7817 39.0424H61.4758V31.7129H50.7817V39.0424ZM53.1855 33.7823H59.072V36.973H53.1855V33.7823Z" fill="white"/>
<path d="M86.4375 39.0424H98.5299V31.7129H86.4375V39.0424ZM88.8154 33.7823H96.1563V36.973H88.8154V33.7823Z" fill="white"/>
<path d="M61.519 18.7422H59.1411V30.8729H61.519V25.5046H64.3026V23.3486H61.519V18.7422Z" fill="white"/>
<path d="M110.821 28.1841C111.602 28.8638 112.495 29.4352 113.337 29.8032L113.423 29.8422L114.709 28.0975L114.571 28.0282C113.345 27.4005 112.254 26.6212 111.468 25.6687C110.67 24.699 110.195 23.53 110.195 22.123V21.7117H113.734V19.625H104.127V21.7117H107.662V22.2139C107.662 23.4954 107.239 24.6903 106.535 25.725C105.711 26.9675 104.507 27.9676 103.337 28.617L103.182 28.6992L104.762 30.3401L104.848 30.2968C105.698 29.8119 106.639 29.0802 107.442 28.2577C108.085 27.5823 108.663 26.8679 109.017 26.1536C109.444 26.8463 110.1 27.539 110.825 28.1841H110.821Z" fill="white"/>
<path d="M128.018 33.8292H136.662V39.0373H139.062V31.7598H128.018V33.8292Z" fill="white"/>
<path d="M133.983 25.4875C133.983 24.3402 133.469 23.2839 132.709 22.4786H135.083V20.4135H130.552V18.1406H127.975V20.4135H123.336V22.4786H125.761C125.019 23.2839 124.505 24.3315 124.505 25.4875C124.505 28.0461 126.607 30.1242 129.235 30.1328C131.864 30.1242 133.978 28.0461 133.983 25.4875ZM126.797 25.3922C126.797 23.9765 127.988 22.7773 129.235 22.7773C130.483 22.7773 131.669 23.9809 131.674 25.3922C131.674 26.7863 130.483 27.9898 129.235 27.9942C127.984 27.9898 126.801 26.7863 126.797 25.3922Z" fill="white"/>
<path d="M139.062 18.7422H136.688V30.9162H139.062V26.2709H141.854V24.1149H139.062V18.7422Z" fill="white"/>
<path d="M118.921 18.7422H116.548V30.9162H118.921V25.5046H121.709V23.3486H118.921V18.7422Z" fill="white"/>
<path d="M78.6304 22.3528H74.8931V24.4872H78.6304V31.3015H81.0083V18.7422H78.6304V22.3528Z" fill="white"/>
<path d="M72.5931 27.882C73.3353 28.6094 74.2028 29.2501 75.0314 29.683L75.122 29.735L76.5505 28.0422L76.4124 27.9643C75.0573 27.25 74.0172 26.3235 73.3181 25.1676C72.6103 24.0203 72.2564 22.6262 72.2564 21.0201V19.1758H69.6973V20.8642C69.6973 22.6046 69.3089 23.9683 68.5882 25.1459C67.7682 26.4967 66.521 27.5747 64.9587 28.5574L64.825 28.644L66.3829 30.2588L66.4606 30.2069C67.3798 29.7003 68.3379 28.9687 69.188 28.1331C69.9562 27.3668 70.5949 26.5313 70.9833 25.7304C71.3502 26.462 71.9112 27.2067 72.5931 27.8864V27.882Z" fill="white"/>
<path d="M113.824 30.791C111.175 30.7953 108.991 32.8734 108.987 35.4797C108.991 38.0599 111.17 40.1423 113.824 40.151C116.496 40.1423 118.662 38.0599 118.662 35.4797C118.662 32.8994 116.496 30.7953 113.824 30.791ZM113.755 38.0123C112.374 38.0123 111.321 36.878 111.321 35.4797C111.321 34.0813 112.435 32.9254 113.824 32.9254C115.214 32.9254 116.28 34.0596 116.284 35.4797C116.284 36.8737 115.149 38.0123 113.755 38.0123Z" fill="white"/>
<path d="M89.3331 25.6992H91.711V19.5039H85.2937V21.5647H89.3331V25.6992Z" fill="white"/>
<path d="M96.4714 25.6992H98.8536V19.5039H92.4363V21.5647H96.4714V25.6992Z" fill="white"/>
<path d="M157.084 24.2274H155.086V19.0799H152.837V38.5185H155.086V26.5653H157.084V39.038H159.414V18.7422H157.084V24.2274Z" fill="white"/>
<path d="M149.54 26.9153C149.005 25.7421 148.785 24.4303 148.785 22.8198V22.0535H151.482V19.8672H143.645V22.0535H146.429V22.8631C146.429 24.387 146.23 25.6338 145.751 26.7898C145.195 28.1189 144.258 29.3138 142.765 30.5952L142.661 30.6905L144.137 32.1581L144.228 32.0889C144.97 31.539 145.747 30.7424 146.394 29.9199C146.942 29.2272 147.404 28.5085 147.693 27.8764C147.991 28.4912 148.457 29.1969 149.001 29.8549C149.631 30.6255 150.343 31.3572 151.025 31.7945L151.116 31.8551L152.359 30.3658L152.259 30.2749C150.921 29.106 150.093 28.0626 149.549 26.911L149.54 26.9153Z" fill="white"/>
<path d="M83.3044 28.5835H91.1977V30.8954H93.7741V28.5835H101.793V26.5098H83.3044V28.5835Z" fill="white"/>
<path d="M172.953 27.92H164.917V21.7853H171.036V19.625H162.509V30.0154H172.953V27.92Z" fill="white"/>
<path d="M168.408 32.5703H166.004V39.0383H177.247V36.9083H168.408V32.5703Z" fill="white"/>
<path d="M177.19 24.3621V18.7383H174.817V33.7134H177.19V26.5181H180V24.3621H177.19Z" fill="white"/>
<path d="M50.4106 12.4771L44.2522 9.91846L50.4106 7.35984L49.3145 4.71463L43.1604 7.27325L45.7109 1.09532L43.0698 0L40.5236 6.17794L37.973 0L35.3319 1.09532L37.8824 7.27325L31.7283 4.71463L30.6365 7.35984L36.7905 9.91846L30.6365 12.4771L31.7283 15.1223L37.8824 12.5637L35.3319 18.7416L37.973 19.8369L40.5236 13.6633L43.0698 19.8369L45.7109 18.7373L43.1604 12.5637L49.3145 15.1223L50.4106 12.4771Z" fill="#009FE3"/>
<path d="M10.5647 29.7127H14.6602V18.7422H0.656006V22.4394H10.5647V29.7127Z" fill="#009FE3"/>
<path d="M26.541 29.7127H30.6365V18.7422H16.6323V22.4394H26.541V29.7127Z" fill="#009FE3"/>
<path d="M0 35.3886H26.541V41.0384H30.6366V31.6914H0V35.3886Z" fill="#009FE3"/>
<path d="M9.90869 58.3042H30.6366V42.9395H9.90869V58.3042ZM13.9999 46.641H26.5411V54.6113H13.9999V46.641Z" fill="#009FE3"/>
</g>
<defs>
<clipPath id="clip0_23_1107">
<rect width="180" height="60" fill="white"/>
</clipPath>
</defs>
</svg>
