<svg width="280" height="76" viewBox="0 0 280 76" fill="none" xmlns="http://www.w3.org/2000/svg">
<path d="M109.707 21.3647C109.707 21.3647 110.662 11.8027 120.191 16.2645C120.191 16.2645 124.004 7.66014 130.356 16.5837C130.356 16.5837 140.921 10.3426 140.522 23.273C140.522 23.273 147.348 22.0642 145.926 30.6006C145.926 30.6006 157.107 33.0183 148.466 42.0709C148.466 42.0709 155.827 50.9809 145.608 54.1795C145.608 54.1795 146.563 59.2796 139.255 58.6413C139.255 58.6413 139.892 66.9265 127.817 63.4222C127.817 63.4222 117.015 72.9842 109.707 58.0029C109.707 58.0029 102.4 58.6413 103.673 50.0369C103.673 50.0369 95.0922 45.8943 101.452 40.7941C101.452 40.7941 93.5075 30.2814 103.991 28.6855C103.991 28.6855 101.133 18.492 109.714 21.3579L109.707 21.3647Z" fill="#8FBC93"/>
<path d="M120.164 67.1649C119.554 67.1649 118.931 67.1106 118.288 66.9816C114.705 66.2685 111.671 63.4977 109.26 58.7507C108.264 58.7371 106.043 58.4994 104.458 56.8152C103.09 55.3619 102.562 53.2227 102.88 50.4519C101.695 49.7864 98.7084 47.8441 98.3969 45.1209C98.2208 43.5725 98.9184 42.0852 100.462 40.6795C99.4331 39.1447 96.8799 34.8323 98.2073 31.5386C98.9116 29.7932 100.557 28.6455 103.097 28.109C102.772 26.5199 102.311 22.941 104.181 21.1481C105.284 20.0955 106.944 19.851 109.124 20.4215C109.422 19.0564 110.276 16.4351 112.585 15.1176C114.502 14.0242 116.947 14.0921 119.859 15.3145C120.495 14.2076 122.019 12.0616 124.362 11.8171C126.401 11.6066 128.494 12.8969 130.573 15.6337C131.975 14.941 135.584 13.4538 138.287 15.0565C140.251 16.2245 141.253 18.7169 141.273 22.4724C142.296 22.4588 144.009 22.6558 145.296 23.9257C146.61 25.2296 147.098 27.2941 146.752 30.0513C148.168 30.4792 151.418 31.7491 152.278 34.547C152.949 36.7338 151.994 39.2737 149.434 42.1056C150.355 43.3891 152.488 46.8458 151.54 50.0784C150.931 52.1429 149.197 53.6913 146.393 54.6828C146.393 55.4298 146.244 56.6794 145.296 57.7252C144.206 58.9341 142.418 59.4977 139.973 59.4094C139.878 60.4485 139.472 62.2481 137.887 63.5452C135.815 65.2362 132.489 65.4603 127.992 64.2176C127.017 64.985 123.943 67.1513 120.17 67.1513L120.164 67.1649ZM110.14 57.2363L110.364 57.6845C112.592 62.2549 115.355 64.8967 118.565 65.5418C123.184 66.4722 127.295 62.9137 127.336 62.8729L127.634 62.6081L128.02 62.7167C132.144 63.912 135.232 63.8169 136.946 62.4247C138.666 61.0325 138.53 58.7167 138.53 58.6896L138.469 57.8339L139.323 57.9018C141.653 58.1055 143.339 57.7049 144.206 56.7473C145.127 55.7218 144.896 54.3229 144.896 54.3093L144.775 53.6709L145.398 53.474C148.032 52.6522 149.624 51.3687 150.132 49.6709C151.087 46.4383 147.944 42.5742 147.917 42.5334L147.504 42.0309L147.951 41.5623C150.43 38.9613 151.418 36.7474 150.883 34.9885C150.057 32.2788 145.824 31.3213 145.784 31.3145L145.106 31.1651L145.222 30.4792C145.655 27.8849 145.337 26.0377 144.28 24.9851C142.919 23.6269 140.691 23.9936 140.664 23.9936L139.783 24.143L139.81 23.2466C139.926 19.6065 139.167 17.2772 137.555 16.3196C134.948 14.7712 130.783 17.1821 130.742 17.2093L130.166 17.5488L129.78 17.0055C127.932 14.4045 126.117 13.1142 124.532 13.2772C122.29 13.5081 120.888 16.5301 120.875 16.5573L120.57 17.2364L119.893 16.924C117.157 15.6405 114.942 15.4639 113.323 16.3875C110.831 17.8069 110.452 21.3926 110.445 21.4333L110.357 22.3434L109.49 22.0513C107.465 21.3722 106.023 21.4266 105.21 22.2007C103.747 23.5997 104.35 27.2126 104.702 28.4893L104.926 29.2839L104.106 29.4062C101.668 29.7797 100.144 30.6761 99.5753 32.0751C98.2682 35.2873 102 40.2924 102.04 40.3467L102.467 40.9171L101.912 41.3654C100.415 42.5674 99.7243 43.7694 99.8598 44.9443C100.144 47.4774 103.964 49.3517 103.998 49.3721L104.479 49.6098L104.397 50.1395C104.018 52.6862 104.397 54.5877 105.522 55.7898C107.079 57.4536 109.626 57.2702 109.653 57.2702L110.147 57.2295L110.14 57.2363Z" fill="black"/>
<path d="M143.265 19.4352C145.197 13.4235 141.903 6.97967 135.908 5.04258C129.913 3.10548 123.486 6.40861 121.555 12.4203L106.876 58.1005C104.944 64.1122 108.238 70.556 114.234 72.4931C120.229 74.4302 126.655 71.1271 128.587 65.1153L143.265 19.4352Z" fill="#F4BC72"/>
<path d="M118.525 74.2343C117.38 74.2343 116.236 74.0578 115.118 73.691L112.822 72.9508C110.005 72.0408 107.716 70.0849 106.361 67.45C105.014 64.8082 104.77 61.7997 105.677 58.9814L121.091 10.9952C122.961 5.16837 129.218 1.95616 135.029 3.83051L137.325 4.57075C140.142 5.48076 142.431 7.43661 143.786 10.0716C145.134 12.7133 145.377 15.7218 144.47 18.5401L129.056 66.5264C128.148 69.3515 126.198 71.6469 123.57 73.0051C121.985 73.8201 120.265 74.2343 118.531 74.2343H118.525ZM115.653 72.0204C118.024 72.7878 120.55 72.5773 122.764 71.4432C124.979 70.309 126.618 68.3668 127.383 65.9899L142.797 18.0036C143.562 15.6267 143.352 13.0936 142.221 10.8729C141.084 8.65223 139.154 7.00877 136.783 6.24137L134.487 5.50114C129.598 3.9188 124.335 6.62847 122.757 11.5317L107.343 59.5179C106.578 61.8948 106.788 64.4279 107.919 66.6486C109.057 68.8693 110.987 70.5128 113.357 71.2802L115.653 72.0204Z" fill="#231F20"/>
<path d="M134.188 19.4648L134.182 19.4627C133.758 19.3258 133.304 19.5592 133.168 19.984L116.603 71.5334C116.467 71.9582 116.699 72.4136 117.123 72.5505L117.129 72.5526C117.553 72.6894 118.007 72.456 118.144 72.0312L134.708 20.4818C134.845 20.057 134.612 19.6017 134.188 19.4648Z" fill="#E07527"/>
<path d="M128.32 12.1415L128.314 12.1395C127.89 12.0026 127.436 12.236 127.3 12.6608L109.443 68.2307C109.307 68.6555 109.54 69.1109 109.963 69.2478L109.97 69.2498C110.393 69.3867 110.847 69.1533 110.984 68.7285L128.84 13.1586C128.977 12.7338 128.744 12.2784 128.32 12.1415Z" fill="#E07527"/>
<path d="M120.021 13.5149C119.94 16.4622 123.557 17.9019 125.798 15.98C128.839 13.3655 132.496 11.9461 132.11 20.7474C131.731 29.4061 134.799 30.452 137.427 29.8204C139.458 29.3314 141.124 27.8849 141.991 26.0174C144.307 21.0666 148.953 8.3468 139.391 1.84767C138.131 0.991989 136.587 0.618476 135.036 0.76109C130.404 1.19572 120.319 3.32135 120.028 13.5149H120.021Z" fill="#603913"/>
<path d="M136.241 30.7027C135.246 30.7027 134.359 30.4039 133.641 29.8063C131.907 28.3734 131.169 25.3988 131.372 20.713C131.568 16.2172 130.674 15.0899 130.119 14.825C129.354 14.4515 127.986 15.0559 126.266 16.5364C124.952 17.6637 123.103 17.9082 121.545 17.1612C120.082 16.4617 119.243 15.0899 119.283 13.494C119.601 2.64851 130.349 0.468553 134.961 0.0339202C136.695 -0.129067 138.409 0.298775 139.797 1.24274C149.779 8.0271 145.12 21.0457 142.648 26.3292C141.666 28.4345 139.77 30.01 137.589 30.5329C137.122 30.6484 136.668 30.7027 136.235 30.7027H136.241ZM129.631 13.2563C130.038 13.2563 130.417 13.3378 130.762 13.5076C132.34 14.2749 133.018 16.6586 132.835 20.7809C132.605 25.9353 133.654 27.9184 134.569 28.679C135.239 29.229 136.14 29.3785 137.25 29.1136C139.005 28.6925 140.528 27.4226 141.327 25.7112C143.637 20.7673 148.025 8.61114 138.977 2.45836C137.874 1.70454 136.492 1.36498 135.104 1.49402C129.862 1.98977 121.024 4.21047 120.753 13.5347C120.726 14.533 121.261 15.3955 122.182 15.8369C123.218 16.3327 124.451 16.1697 125.324 15.4227C127.004 13.9829 128.446 13.2563 129.638 13.2563H129.631Z" fill="#231F20"/>
<path d="M126.096 27.4539L116.367 24.8965C114.7 24.458 112.993 25.4584 112.556 27.1309C112.118 28.8035 113.116 30.5148 114.784 30.9532L124.512 33.5106C126.18 33.9491 127.887 32.9487 128.324 31.2762C128.761 29.6036 127.764 27.8923 126.096 27.4539Z" fill="#F3C68F"/>
<path d="M125.304 34.3375C124.979 34.3375 124.654 34.2967 124.329 34.2084L114.597 31.6482C112.545 31.1049 111.312 28.9928 111.847 26.9351C112.111 25.9368 112.741 25.1015 113.628 24.5786C114.515 24.0557 115.552 23.9131 116.547 24.1779L126.279 26.7382C128.331 27.2815 129.564 29.3935 129.029 31.4512C128.575 33.183 127.011 34.3307 125.304 34.3307V34.3375ZM115.572 25.5226C114.509 25.5226 113.54 26.2356 113.263 27.3086C113.1 27.9266 113.188 28.5718 113.513 29.1287C113.838 29.6787 114.353 30.0726 114.969 30.2356L124.701 32.7959C125.974 33.1286 127.288 32.3612 127.62 31.0845C127.952 29.8078 127.187 28.4903 125.913 28.1575L116.181 25.5973C115.978 25.5429 115.775 25.5158 115.579 25.5158L115.572 25.5226Z" fill="#231F20"/>
<path d="M125.276 34.0513L114.211 31.1425C112.543 30.7041 110.836 31.7045 110.399 33.377C109.962 35.0495 110.96 36.7608 112.628 37.1993L123.692 40.108C125.36 40.5465 127.067 39.5461 127.504 37.8736C127.941 36.201 126.944 34.4897 125.276 34.0513Z" fill="#F3C68F"/>
<path d="M124.491 40.9447C124.166 40.9447 123.841 40.9039 123.516 40.8157L112.45 37.909C110.398 37.3658 109.165 35.2537 109.7 33.196C110.242 31.1383 112.348 29.9023 114.4 30.4388L125.466 33.3454C127.518 33.8887 128.751 36.0007 128.216 38.0584C127.762 39.7902 126.198 40.9379 124.491 40.9379V40.9447ZM123.882 39.4031C125.155 39.7359 126.469 38.9685 126.801 37.6917C127.132 36.415 126.367 35.0975 125.094 34.7647L114.028 31.8581C113.411 31.6951 112.768 31.7834 112.213 32.1094C111.664 32.4354 111.271 32.9515 111.109 33.5695C110.777 34.8462 111.542 36.1637 112.815 36.4965L123.882 39.4031Z" fill="#231F20"/>
<path d="M123.416 40.3062L112.352 37.3974C110.684 36.959 108.977 37.9594 108.54 39.6319C108.103 41.3044 109.1 43.0157 110.768 43.4542L121.833 46.3629C123.501 46.8014 125.207 45.801 125.645 44.1285C126.082 42.4559 125.084 40.7446 123.416 40.3062Z" fill="#F3C68F"/>
<path d="M122.629 47.1996C122.304 47.1996 121.978 47.1588 121.653 47.0705L110.587 44.1639C108.535 43.6206 107.303 41.5086 107.838 39.4509C108.379 37.3932 110.486 36.1572 112.538 36.6937L123.604 39.6003C124.599 39.8651 125.432 40.4967 125.954 41.3863C126.475 42.276 126.618 43.315 126.353 44.3133C125.9 46.0451 124.335 47.1928 122.629 47.1928V47.1996ZM122.026 45.658C123.299 45.9907 124.613 45.2233 124.945 43.9466C125.277 42.6699 124.511 41.3524 123.238 41.0196L112.172 38.113C110.899 37.7802 109.585 38.5476 109.253 39.8244C108.921 41.1011 109.686 42.4186 110.96 42.7514L122.026 45.658Z" fill="#231F20"/>
<path d="M117.98 45.4714L111.075 43.6562C109.407 43.2178 107.7 44.2182 107.263 45.8907C106.826 47.5632 107.824 49.2745 109.492 49.713L116.396 51.5281C118.064 51.9666 119.771 50.9662 120.208 49.2937C120.645 47.6211 119.648 45.9098 117.98 45.4714Z" fill="#F3C68F"/>
<path d="M117.197 52.3601C116.872 52.3601 116.547 52.3194 116.222 52.2311L109.314 50.4178C107.262 49.8745 106.03 47.7625 106.565 45.7048C107.106 43.6471 109.213 42.4111 111.265 42.9476L118.173 44.7608C120.225 45.3041 121.457 47.4161 120.922 49.4739C120.468 51.2056 118.904 52.3533 117.197 52.3533V52.3601ZM116.588 50.8185C117.861 51.1513 119.175 50.3839 119.507 49.1071C119.839 47.8304 119.073 46.5129 117.8 46.1802L110.892 44.3669C109.619 44.0342 108.305 44.8016 107.973 46.0783C107.641 47.355 108.407 48.6725 109.68 49.0053L116.588 50.8185Z" fill="#231F20"/>
<path d="M129.212 53.5889L134.962 35.9862C135.449 34.499 137.298 33.5958 139.106 33.9625C140.908 34.3292 141.978 35.8368 141.49 37.3173L135.74 54.92C135.253 56.4072 133.404 57.3104 131.596 56.9437C129.794 56.577 128.724 55.0694 129.212 53.5889Z" fill="#F3C68F"/>
<path d="M132.916 57.663C132.537 57.6834 132.144 57.663 131.765 57.5815L131.047 57.4321C130.092 57.2352 129.286 56.7462 128.792 56.0467C128.297 55.3472 128.169 54.5323 128.426 53.7445L134.372 35.5511C134.907 33.9212 136.946 32.9229 138.923 33.3303L139.641 33.4798C140.596 33.6767 141.402 34.1657 141.896 34.8651C142.391 35.5646 142.52 36.3796 142.262 37.1673L136.316 55.3608C136.059 56.1486 135.442 56.8141 134.582 57.2352C134.061 57.4864 133.492 57.6359 132.916 57.663ZM129.794 54.023C129.632 54.5119 129.713 55.0213 130.024 55.4559C130.336 55.8905 130.83 56.1961 131.419 56.3184L132.137 56.4678C132.733 56.59 133.356 56.5153 133.885 56.2505C134.42 55.9924 134.799 55.5781 134.961 55.0892L140.908 36.8957C141.07 36.4067 140.989 35.8974 140.677 35.4628C140.366 35.0281 139.872 34.7225 139.282 34.6003L138.564 34.4509C137.339 34.1996 136.072 34.8176 135.74 35.8295L129.794 54.023Z" fill="#231F20"/>
<path d="M122.886 9.5628C124.952 7.60695 128.176 5.00595 130.112 5.67148C130.302 5.73939 130.471 5.52886 130.377 5.35229C129.753 4.20459 127.762 2.3574 122.561 9.26399C122.399 9.48131 122.69 9.75296 122.886 9.5628Z" fill="#815240"/>
<path d="M127.667 12.9034C128.71 12.5231 130.275 12.0952 130.939 12.6385C130.999 12.6929 131.094 12.6385 131.081 12.5638C130.986 12.0545 130.458 11.0766 127.586 12.7404C127.498 12.7947 127.573 12.9373 127.674 12.8966L127.667 12.9034Z" fill="#815240"/>
<path d="M139.452 26.737C138.057 27.2328 135.95 27.7964 135.009 27.063C134.921 26.9951 134.799 27.0562 134.819 27.1581C134.982 27.844 135.768 29.1547 139.574 26.9476C139.696 26.8796 139.574 26.6895 139.445 26.737H139.452Z" fill="#815240"/>
<path d="M137.257 50.4996L140.19 41.3723C140.318 40.9716 140.745 40.7543 141.145 40.8901L149.278 43.6609C149.475 43.7288 149.637 43.8782 149.725 44.0683C149.779 44.1498 149.827 44.1974 149.861 44.2721C150.565 45.7865 151.351 48.1023 150.714 49.9495C150.145 51.5861 148.262 52.7678 147.043 53.6303C146.109 54.0242 140.047 52.1226 137.765 51.4503C137.359 51.3281 137.135 50.9002 137.264 50.4996H137.257Z" fill="#F4C992"/>
<path d="M146.65 54.411C145.499 54.411 143.176 53.8338 138.456 52.4212C138.117 52.3193 137.812 52.2242 137.555 52.1495C137.169 52.0341 136.851 51.776 136.668 51.4229C136.478 51.0698 136.444 50.6555 136.566 50.2752L139.499 41.1479C139.621 40.7676 139.885 40.4552 140.244 40.2786C140.603 40.0953 141.009 40.0681 141.381 40.1971L149.515 42.9679C149.881 43.0902 150.186 43.355 150.362 43.7014C150.362 43.7014 150.368 43.7149 150.375 43.7149C150.416 43.7693 150.47 43.844 150.524 43.9594C151.317 45.664 152.116 48.1292 151.405 50.1869C150.809 51.8983 149.082 53.1003 147.822 53.9764C147.7 54.0647 147.578 54.1461 147.463 54.2276L147.395 54.2752L147.321 54.3091C147.158 54.377 146.942 54.411 146.657 54.411H146.65ZM140.907 41.5893L137.955 50.7302C137.955 50.7302 137.955 50.737 137.955 50.7438C138.225 50.8321 138.53 50.9203 138.876 51.0222C140.765 51.5859 145.716 53.0664 146.725 52.9577C146.806 52.9034 146.887 52.8422 146.975 52.7811C148.073 52.0205 149.576 50.9747 150.016 49.7115C150.592 48.0477 149.759 45.8134 149.204 44.6114V44.5978C149.163 44.557 149.136 44.5163 149.102 44.462L149.055 44.3669L140.914 41.5825L140.907 41.5893Z" fill="#231F20"/>
<path d="M18.4752 35.4699H13.3823C13.0844 33.5412 11.6486 32.3732 9.29179 32.3732C6.93498 32.3732 5.71594 33.2968 5.71594 34.6278C5.71594 36.2849 7.4226 36.8553 11.7299 37.7517C16.8228 38.8112 18.5565 41.3375 18.5565 44.6515C18.5565 48.8892 14.5743 51.4699 9.64396 51.4699C4.19892 51.4699 0.216718 48.5089 0 43.7823H5.06579C5.33669 45.9011 7.17879 47.3137 9.99613 47.3137C12.0008 47.3137 13.4907 46.3086 13.4907 44.8689C13.4907 43.1032 12.0008 42.3969 8.07275 41.6634C3.27786 40.767 0.677244 38.784 0.677244 34.6278C0.677244 30.4716 4.63235 28.2441 9.61687 28.2441C14.6014 28.2441 18.2314 31.2594 18.4752 35.4699Z" fill="black"/>
<path d="M31.0448 39.165H27.9024V50.9273H23.0804V39.165H19.938V35.0089H23.0804V30.2822H27.9024V35.0089H31.0448V39.165Z" fill="black"/>
<path d="M33.2932 35.0082H38.1152V36.6381C39.0633 35.3614 40.5262 34.6279 42.5579 34.6279C43.4519 34.6279 44.0208 34.6823 44.6438 34.8996L44.698 39.4361C44.0208 39.0829 43.181 38.8928 42.2328 38.8928C39.6593 38.8928 38.1152 40.3597 38.1152 42.7773V50.9267H33.2932V35.0082Z" fill="black"/>
<path d="M45.6191 42.9675C45.6191 38.1322 49.0325 34.6279 53.8815 34.6279C58.7306 34.6279 62.1439 38.105 62.1439 42.9675C62.1439 43.4293 62.1168 43.9454 62.0355 44.5158H50.414C50.7933 46.363 52.0665 47.4224 53.8815 47.4224C55.2631 47.4224 56.4009 46.9335 56.8072 46.1729H61.6563C60.8436 49.2153 57.7283 51.307 53.8815 51.307C49.0325 51.307 45.6191 47.8299 45.6191 42.9675ZM57.4303 41.3919C57.0239 39.4904 55.7778 38.4581 53.8815 38.4581C51.9852 38.4581 50.7933 39.4904 50.3869 41.3919H57.4303Z" fill="black"/>
<path d="M64.1755 42.9675C64.1755 38.1322 67.5888 34.6279 72.4379 34.6279C77.287 34.6279 80.7003 38.105 80.7003 42.9675C80.7003 43.4293 80.6732 43.9454 80.5919 44.5158H68.9704C69.3497 46.363 70.6229 47.4224 72.4379 47.4224C73.8195 47.4224 74.9573 46.9335 75.3636 46.1729H80.2127C79.4 49.2153 76.2847 51.307 72.4379 51.307C67.5888 51.307 64.1755 47.8299 64.1755 42.9675ZM75.9867 41.3919C75.5803 39.4904 74.3342 38.4581 72.4379 38.4581C70.5416 38.4581 69.3497 39.4904 68.9433 41.3919H75.9867Z" fill="black"/>
<path d="M92.9178 39.165H89.7754V50.9273H84.9534V39.165H81.811V35.0089H84.9534V30.2822H89.7754V35.0089H92.9178V39.165Z" fill="black"/>
<path d="M156.795 38.8188C156.795 32.1092 161.807 27.1924 168.607 27.1924C174.675 27.1924 178.738 30.8596 179.632 35.5319H174.648C174.133 33.4131 171.884 31.7289 168.715 31.7289C164.706 31.7289 161.726 34.6898 161.726 38.8188C161.726 42.9478 164.706 45.9088 168.715 45.9088C171.884 45.9088 174.485 43.8171 174.864 41.8069H179.849C179.172 46.2619 174.729 50.4453 168.607 50.4453C161.807 50.4453 156.795 45.5285 156.795 38.8188Z" fill="black"/>
<path d="M182.558 27.083H187.38V35.6127C188.328 34.3359 189.791 33.6025 191.823 33.6025C195.507 33.6025 198.026 36.2918 198.026 40.6925V49.9013H193.204V41.5074C193.204 39.0898 192.229 37.7587 190.414 37.7587C188.599 37.7587 187.38 39.2527 187.38 41.7247V49.9013H182.558V27.0898V27.083Z" fill="black"/>
<path d="M201.033 43.1922V33.9834H205.855V42.3773C205.855 44.7949 206.83 46.126 208.645 46.126C210.46 46.126 211.679 44.6319 211.679 42.1599V33.9834H216.501V49.9018H211.679V48.272C210.731 49.5487 209.268 50.2821 207.237 50.2821C203.553 50.2821 201.033 47.5929 201.033 43.1922Z" fill="black"/>
<path d="M220.132 33.9828H224.954V35.6127C225.902 34.336 227.365 33.6025 229.396 33.6025C230.29 33.6025 230.859 33.6569 231.482 33.8742L231.536 38.4107C230.859 38.0575 230.019 37.8674 229.071 37.8674C226.498 37.8674 224.954 39.3343 224.954 41.7519V49.9013H220.132V33.9828Z" fill="black"/>
<path d="M233.839 33.9828H238.661V35.6127C239.609 34.336 241.072 33.6025 243.104 33.6025C243.998 33.6025 244.566 33.6569 245.189 33.8742L245.244 38.4107C244.566 38.0575 243.727 37.8674 242.779 37.8674C240.205 37.8674 238.661 39.3343 238.661 41.7519V49.9013H233.839V33.9828Z" fill="black"/>
<path d="M263.015 41.9421C263.015 46.7774 259.493 50.2816 254.59 50.2816C249.686 50.2816 246.165 46.7774 246.165 41.9421C246.165 37.1068 249.686 33.6025 254.59 33.6025C259.493 33.6025 263.015 37.1068 263.015 41.9421ZM250.824 41.9421C250.824 44.3869 252.314 46.1526 254.59 46.1526C256.865 46.1526 258.355 44.3869 258.355 41.9421C258.355 39.4973 256.865 37.7316 254.59 37.7316C252.314 37.7316 250.824 39.4973 250.824 41.9421Z" fill="black"/>
<path d="M279.729 38.7638H275.07C274.907 37.7859 273.796 37.1883 272.388 37.1883C270.979 37.1883 269.868 37.7044 269.868 38.4107C269.868 39.1984 270.925 39.5787 273.634 40.0134C278.32 40.7197 280 42.268 280 45.0117C280 48.2714 276.587 50.2816 272.55 50.2816C268.514 50.2816 265.263 48.2171 265.101 44.8758H269.76C269.923 45.9081 271.115 46.5872 272.632 46.5872C274.149 46.5872 275.313 46.0168 275.313 45.2833C275.313 44.5499 274.23 44.0337 271.494 43.6263C267.701 43.0558 265.209 41.8877 265.209 38.6551C265.209 35.4226 268.433 33.6025 272.469 33.6025C276.505 33.6025 279.539 35.6127 279.729 38.7638Z" fill="black"/>
</svg>
