<svg width="171" height="29" viewBox="0 0 171 29" fill="none" xmlns="http://www.w3.org/2000/svg">
<path d="M170.841 14.7069L165.832 14.6383V18.2887C165.832 22.9846 165.066 26.4293 164.699 27.4576C164.46 27.7489 163.902 27.9203 163.567 27.8175C163.359 26.9949 162.929 24.4413 162.929 20.1911V3.77285C162.929 3.08733 161.126 1.66487 160.456 1.44208C160.28 1.37353 160.855 0.65373 161.03 0.65373C162.402 0.65373 166.008 1.54491 165.928 2.23043C165.864 2.69315 165.832 3.24157 165.832 3.8414V13.233L169.629 11.6221C169.964 11.485 171.463 14.7069 170.857 14.7069M160.44 16.4893C160.966 17.2776 159.547 20.6195 159.036 19.8312C158.302 18.7172 156.292 15.4267 154.489 13.233C152.08 16.8491 149.081 19.7626 146.385 21.305C146.05 21.2708 145.651 20.7395 145.651 20.4139C148.986 17.2262 152.751 11.6392 154.33 6.54921C154.426 6.25786 153.293 5.36668 152.798 5.04106C152.639 4.93823 153.325 4.38982 153.5 4.38982C154.41 4.38982 156.93 5.50379 157.536 5.96651C157.871 6.22358 157.903 6.39496 157.744 6.82341C157.074 8.69146 156.18 10.4738 155.175 12.1191C157.441 13.7986 159.945 15.7352 160.44 16.4893ZM144.248 15.0154L139.206 14.9126V18.2887C139.206 22.9846 138.504 26.4293 138.106 27.4576C137.866 27.7489 137.308 27.9203 137.005 27.8175C136.766 26.9949 136.367 24.4413 136.367 20.1911V3.77285C136.367 3.08733 134.564 1.73343 133.894 1.44208C133.734 1.37353 134.293 0.65373 134.468 0.65373C135.84 0.65373 139.366 1.54491 139.302 2.23043C139.27 2.69315 139.206 3.24157 139.206 3.8414V13.5244L143.019 11.9477C143.386 11.7763 144.886 14.9982 144.248 14.9982M127.864 16.6264C129.268 16.6264 130.305 15.5809 130.305 13.97C130.305 12.359 129.331 11.2793 127.864 11.2793C126.396 11.2793 125.423 12.359 125.423 13.97C125.423 15.5809 126.396 16.6264 127.864 16.6264ZM123.094 2.93309C123.062 2.79598 123.221 2.35039 123.397 2.36753C124.402 2.57319 125.423 2.76171 126.699 2.93309L129.81 3.29298C130.081 3.32726 131.278 5.09247 130.48 5.09247H125.774C124.976 5.09247 123.142 3.22443 123.078 2.93309M119.967 6.92624C119.935 6.82341 120.127 6.46352 120.206 6.49779C120.733 6.70345 122.599 6.75486 124.37 6.72059L130.735 6.65203C132.57 6.61776 133.112 5.64089 133.399 5.64089C133.703 5.64089 134.867 7.37183 134.867 8.17732C134.867 8.31442 134.74 8.40011 134.532 8.40011C134.229 8.40011 132.458 8.29728 131.054 8.29728L124.211 8.33156C123.11 8.33156 122.376 8.58863 122.041 8.91425C121.179 8.65718 120.111 7.269 119.999 6.9091M135.17 20.3624C132.426 21.7163 127.162 22.5047 123.556 22.9846C122.583 23.1217 121.993 23.3102 121.419 23.6701C120.493 23.413 119.153 21.9563 119.026 21.4079C119.058 21.2365 119.185 21.0822 119.265 20.9794C120.27 20.9794 121.738 21.0137 123.509 20.9109C124.609 20.8423 125.646 20.7738 126.588 20.6881L126.412 17.8603C124.083 17.4318 122.647 15.958 122.647 13.9185C122.647 11.6906 124.45 10.1825 127.289 10.0111C127.321 9.87398 127.353 9.78829 127.353 9.65119C127.353 9.39412 127.289 9.08563 126.954 8.82856C126.954 8.21159 128.789 8.82856 128.789 9.15418C128.789 9.29129 128.63 9.68546 128.55 10.0111C131.326 10.2167 133.08 11.7249 133.08 13.9185C133.08 15.958 131.581 17.4318 129.284 17.8603L129.156 20.4139C132.059 20.054 134.022 19.557 135.33 19.0942C135.601 18.9914 135.489 20.1739 135.154 20.3453M100.409 4.37268L100.377 9.85684H107.492L107.667 4.37268H100.393H100.409ZM95.7981 3.15588C95.7662 2.9845 96.1969 2.43608 96.4043 2.43608C96.9308 2.43608 98.7494 2.50464 99.9459 2.72743H106.726C107.587 2.72743 108.034 2.59033 108.369 2.2647C108.736 2.1276 111.113 2.52177 111.065 2.95022L110.06 9.54836C110.491 9.97681 111.065 10.8337 111.065 11.2964C111.065 11.4335 110.938 11.5192 110.73 11.5192C110.427 11.5192 109.294 11.485 107.587 11.485H100.074C99.8821 11.8448 99.6428 12.1705 99.3716 12.5132C99.1004 12.8046 98.6058 12.9417 98.2389 12.8389C97.9358 12.0505 97.6806 10.5424 97.4732 7.81742L97.202 4.40695C97.1701 4.08133 96.3086 3.36154 95.7981 3.15588ZM112.724 26.4636C112.724 26.6007 112.629 26.6864 112.389 26.6864H109.247L99.898 26.7206C97.2977 26.7206 96.7872 25.7609 96.7872 23.8929V21.0994C96.7872 20.6024 95.8141 19.7455 95.2557 19.6598C95.0802 19.6255 95.6864 18.8029 95.9257 18.8029C96.9946 18.8029 98.5899 19.06 99.3875 19.3856C99.5471 19.4541 99.7864 19.557 99.7226 19.9169C99.6587 20.3453 99.6587 20.9623 99.6587 21.4935V23.9271C99.6587 24.9383 99.9938 25.0754 100.823 25.0754L108.672 25.0411C110.331 25.0411 110.874 24.0471 111.081 24.0471C111.512 24.0471 112.724 25.6924 112.724 26.4464M115.692 15.838C115.692 16.0094 115.564 16.0951 115.357 16.0951H105.673V17.9974C105.673 19.934 105.003 21.6135 104.54 22.3676C104.301 22.6589 103.775 22.796 103.44 22.6932C103.168 21.802 102.77 20.6195 102.77 18.4601V16.0951H96.2607C95.16 16.0951 94.4261 16.4207 94.0911 16.7463C93.2297 16.4893 91.4908 15.0325 91.4908 14.7069C91.4908 14.5698 91.6503 14.2099 91.7301 14.2442C92.2565 14.4498 94.123 14.467 95.8938 14.467L110.874 14.4327C112.772 14.4327 113.41 13.2844 113.65 13.2844C113.985 13.2844 115.692 15.0325 115.692 15.8209M73.0171 7.52607C73.0171 9.63405 74.2934 11.0394 76.2237 11.0394C78.154 11.0394 79.6217 9.63405 79.6217 7.52607C79.6217 5.4181 78.2497 4.01278 76.2556 4.01278C74.2615 4.01278 73.0171 5.43523 73.0171 7.52607ZM70.1137 7.6289C70.1137 4.68116 72.3152 2.71029 75.7132 2.50464C75.7451 2.40181 75.777 2.31612 75.777 2.21329C75.777 1.92194 75.7132 1.59632 75.3144 1.28784C75.3144 0.636593 77.3564 1.28784 77.3564 1.64773C77.3564 1.78484 77.1968 2.17901 77.1171 2.50464C80.3555 2.76171 82.4933 4.73258 82.4933 7.6289C82.4933 10.6795 80.0205 12.6846 76.3194 12.6846C72.6183 12.6846 70.1137 10.6795 70.1137 7.6289ZM88.3959 16.5921C88.3959 16.7292 88.2683 16.8149 88.0609 16.8149H81.4244V18.3916C81.4244 22.8303 80.6906 26.2751 80.2917 27.2862C80.0524 27.5775 79.4941 27.7146 79.191 27.6461C78.9517 26.8235 78.5209 24.2699 78.5209 20.2939V16.8149L73.8467 16.8491V17.8432C73.8467 22.2476 73.1129 25.6924 72.7459 26.7035C72.5066 26.9949 71.9483 27.132 71.6133 27.0634C71.4059 26.2408 70.9751 23.6872 70.9751 19.7455V16.8491H68.9651C67.8643 16.8491 67.1305 17.1748 66.7954 17.5004C65.934 17.2433 64.1951 15.7866 64.1951 15.4267C64.1951 15.3239 64.3546 14.964 64.4344 14.9982C64.9608 15.1868 66.8274 15.221 68.5981 15.221L83.5781 15.1525C85.4765 15.1525 86.1146 14.0042 86.3539 14.0042C86.6889 14.0042 88.3959 15.7695 88.3959 16.5578M45.9608 6.20645C45.9608 8.00594 47.2211 9.29129 49.1035 9.29129C50.986 9.29129 52.2463 8.00594 52.2463 6.20645C52.2463 4.40695 50.986 3.19016 49.1035 3.19016C47.2211 3.19016 45.9608 4.44123 45.9608 6.20645ZM43.0573 6.34355C43.0573 3.75571 45.1631 1.87053 48.4335 1.64773C48.4654 1.47635 48.5292 1.35639 48.5292 1.18501C48.5292 0.893663 48.4335 0.585178 48.0666 0.293832C48.0666 -0.391688 50.1086 0.293832 50.1086 0.619454C50.1086 0.825111 49.9012 1.2707 49.7735 1.6306C53.012 1.85339 55.1816 3.73857 55.1816 6.32641C55.1816 9.05135 52.7089 10.9879 49.1035 10.9879C45.4981 10.9879 43.0573 9.05135 43.0573 6.32641M57.5427 26.9949C57.5427 27.1662 57.415 27.2176 57.2077 27.2176H45.3226C43.2806 27.2176 42.5628 26.4636 42.5149 24.7498L42.4511 22.5561C42.4511 22.2305 41.6534 21.802 41.1429 21.5621C41.111 21.3907 41.5737 20.8423 41.813 20.8423C42.3873 20.8423 44.5728 20.9794 45.3545 21.2708H53.0918L53.1237 18.6144H45.3864C44.4452 18.6144 43.823 18.8714 43.488 19.2142C42.3873 19.0428 41.4939 17.5004 41.4779 17.2776C41.446 17.1062 41.6056 16.7806 41.7491 16.8149C42.7223 17.0034 43.9507 17.0034 45.7215 17.0034H52.0548C52.9163 17.0034 53.363 16.9006 53.698 16.5407C54.0649 16.5064 56.5057 16.7977 56.426 17.2262L55.6602 21.0994C56.2345 21.5621 56.6014 22.3504 56.6014 22.539C56.6014 22.7103 56.5057 22.8303 56.3621 22.8303C56.0909 22.8303 54.3521 22.796 52.9322 22.796H45.3545V24.2356C45.3545 25.3496 45.6576 25.5724 47.0296 25.5724H53.7299C55.6283 25.5724 55.8995 24.7155 56.1069 24.7155C56.5376 24.7155 57.5427 26.2579 57.5427 26.9434M61.0364 14.2956C61.0364 14.4327 60.9088 14.5184 60.7014 14.5184H56.3941L41.6215 14.5527C40.5527 14.5527 39.8188 14.8783 39.4838 15.1696C38.5904 14.9126 37.0111 13.4901 36.8835 13.1302C36.8516 13.0274 37.043 12.6675 37.1228 12.7018C37.6492 12.9074 39.4998 12.9417 41.2865 12.9417L56.2345 12.8731C58.101 12.8731 58.7392 11.7249 59.0104 11.7249C59.3454 11.7249 61.0204 13.4901 61.0204 14.2784M27.2797 14.227C27.2797 14.5184 27.0723 14.5184 26.3385 14.7583C26.0354 14.8611 25.8759 15.3753 25.6366 16.1979C25.1101 17.9288 23.435 20.7223 19.9573 20.7223C16.4795 20.7223 14.6449 17.5347 14.5173 17.3633C14.3418 17.1062 14.0546 16.8663 13.8153 16.8663C13.6558 16.8663 13.5441 16.9348 13.4484 17.0034C12.1881 17.9288 10.8162 18.9743 10.8162 21.3736C10.8162 22.9503 12.0446 24.7498 14.1185 24.7498C15.8892 24.7498 17.0538 22.9503 17.4207 21.6992C17.5484 21.2708 17.5165 21.0994 17.7238 21.0994C17.995 21.0994 18.0908 21.7506 18.4577 21.7506C18.7608 21.7506 18.6651 21.5792 19.0639 21.5792C19.4308 21.5792 19.5265 22.1105 19.8297 22.1105C20.2604 22.1105 20.8347 21.7163 21.1218 21.7163C21.2176 21.7163 21.3611 21.7163 21.3611 21.8192C21.3611 21.9906 21.0899 22.1448 20.8347 22.3847C20.3082 22.8817 19.9254 23.1731 19.5265 23.8929C18.1227 26.4464 16.4955 26.9092 15.6659 27.1834C15.3628 27.2862 15.0597 27.4404 14.9321 27.7489C14.4694 28.8629 14.1982 29 14.0706 29C13.9111 29 13.8632 28.8115 13.8313 28.383C13.7994 27.9203 13.5601 27.389 12.7305 27.2348C10.6247 26.8063 8.02439 24.5098 8.02439 20.8937C8.02439 17.6375 10.3216 16.3693 11.4862 15.1182C11.6457 14.9468 11.7574 14.7583 11.7574 14.467V14.3641C11.7574 14.2099 11.7255 14.0042 11.5341 13.7472C10.3695 12.1705 9.49207 11.1251 7.89676 11.1251C6.15788 11.1251 4.62639 12.6675 4.62639 14.8954C4.62639 17.2947 5.72715 18.1174 6.82791 18.4087C7.19483 18.5115 7.32245 18.5458 7.32245 18.6658C7.32245 18.9228 7.08316 18.8714 7.08316 19.2656C7.08316 19.557 7.29055 19.5227 7.29055 19.9854C7.29055 20.311 7.01935 20.4139 7.01935 20.9109C7.01935 21.305 7.19483 21.4421 7.19483 21.6649C7.19483 21.9563 7.35436 21.922 7.35436 22.5561C7.35436 22.7275 7.41817 22.8475 7.29055 22.8475C7.16292 22.8475 7.01935 22.6247 6.82791 22.3162C6.39718 21.6307 5.93454 21.2022 5.59952 20.928C2.93536 18.8543 2.83964 17.946 2.16962 16.5235C2.01009 16.1979 1.96223 15.6323 1.64316 15.4781C0.670028 14.9468 0 14.7926 0 13.9357C0 13.5415 0.430733 13.9357 1.10076 13.9357C1.46768 13.9357 1.89841 14.0042 2.1058 13.1816C2.56844 11.4335 4.48281 8.64004 7.8489 8.64004C11.4224 8.64004 13.1932 11.8277 13.3208 11.9991C13.5601 12.359 13.7834 12.4961 14.0227 12.4961C14.1823 12.4961 14.2939 12.4961 14.5651 12.239C16.8305 10.0796 17.006 9.11991 17.006 7.86883C17.006 6.29214 15.8414 4.45837 13.7675 4.45837C11.6936 4.45837 10.7045 6.22358 10.4333 7.54321C10.3376 7.97166 10.2738 8.19445 10.0983 8.19445C9.82708 8.19445 9.82708 7.80028 9.52398 7.80028C9.02943 7.80028 8.98157 8.02307 8.72632 8.02307C8.39131 8.02307 8.39131 7.37183 7.89676 7.37183C7.76914 7.37183 7.49794 7.54321 7.32245 7.54321C6.85981 7.54321 6.82791 7.64604 6.62052 7.64604C6.38122 7.64604 6.12597 7.50893 6.12597 7.32042C6.12597 7.1319 6.2855 6.99479 6.7641 6.73772C7.40222 6.37783 7.99248 6.12076 8.29559 5.38382C9.23682 3.1216 11.3267 2.40181 12.1243 2.07619C12.4274 1.93908 12.587 1.81912 12.7305 1.51063C13.3687 0.259556 13.6558 0.122452 13.8313 0.122452C14.0068 0.122452 13.9908 0.448074 14.0706 0.842249C14.1663 1.30497 14.1663 1.66487 14.8682 1.85339C16.8624 2.41895 19.7818 4.38982 19.7818 7.9888C19.7818 11.5878 16.4795 13.8671 16.32 14.0042C15.9531 14.2956 15.8254 14.5355 15.8254 14.7583C15.8254 14.9297 15.9212 15.1182 16.0169 15.3239C16.8145 17.0377 18.1865 18.1516 19.7818 18.1516C21.6802 18.1516 23.1479 16.2493 23.1479 14.2784C23.1479 12.3076 21.9195 11.1251 20.8506 10.7652C20.4518 10.6281 20.2763 10.6281 20.2763 10.4053C20.2763 10.1482 20.5475 10.2339 20.5475 9.8397C20.5475 9.54836 20.4199 9.61691 20.4199 9.15418C20.4199 8.82856 20.7868 8.72573 20.7868 8.22873C20.7868 7.83456 20.6113 7.69745 20.6113 7.47466C20.6113 7.18331 20.5156 7.21759 20.5156 6.58348C20.5156 6.4121 20.4518 6.29214 20.5794 6.29214C20.739 6.29214 20.8826 6.51493 21.074 6.82341C21.5047 7.50893 21.8397 8.04021 22.1747 8.26301C24.5837 9.90826 25.1101 10.9537 25.6685 12.4275C25.7961 12.7532 25.9078 13.3187 26.2747 13.5415C26.5778 13.7472 27.2478 13.97 27.2478 14.227" fill="white"/>
</svg>
