<svg width="123" height="21" viewBox="0 0 123 21" fill="none" xmlns="http://www.w3.org/2000/svg">
<path d="M122.886 10.6498L119.283 10.6002V13.2436C119.283 16.644 118.732 19.1385 118.468 19.8831C118.296 20.094 117.894 20.2182 117.653 20.1437C117.504 19.548 117.194 17.6989 117.194 14.6211V2.73206C117.194 2.23565 115.898 1.2056 115.416 1.04426C115.289 0.994623 115.702 0.473391 115.829 0.473391C116.816 0.473391 119.409 1.11873 119.352 1.61514C119.306 1.95021 119.283 2.34734 119.283 2.7817V9.58254L122.014 8.41597C122.255 8.31669 123.333 10.6498 122.897 10.6498M115.404 11.9405C115.783 12.5114 114.762 14.9314 114.394 14.3605C113.866 13.5538 112.421 11.1711 111.124 9.58254C109.391 12.2011 107.234 14.3109 105.295 15.4278C105.054 15.403 104.767 15.0182 104.767 14.7824C107.165 12.4741 109.873 8.42838 111.009 4.74253C111.078 4.53155 110.263 3.88622 109.908 3.65042C109.793 3.57596 110.286 3.17883 110.412 3.17883C111.067 3.17883 112.88 3.9855 113.316 4.32058C113.557 4.50673 113.58 4.63084 113.465 4.94109C112.983 6.29381 112.34 7.58448 111.617 8.77587C113.247 9.99208 115.048 11.3944 115.404 11.9405ZM103.757 10.8732L100.131 10.7987V13.2436C100.131 16.644 99.626 19.1385 99.3391 19.8831C99.167 20.094 98.7654 20.2182 98.5473 20.1437C98.3752 19.548 98.0883 17.6989 98.0883 14.6211V2.73206C98.0883 2.23565 96.7917 1.25524 96.3097 1.04426C96.195 0.994623 96.5966 0.473391 96.7228 0.473391C97.7097 0.473391 100.246 1.11873 100.2 1.61514C100.177 1.95021 100.131 2.34734 100.131 2.7817V9.79351L102.873 8.65177C103.137 8.52766 104.216 10.8608 103.757 10.8608M91.9722 12.0398C92.982 12.0398 93.7278 11.2827 93.7278 10.1162C93.7278 8.94961 93.0279 8.16777 91.9722 8.16777C90.9165 8.16777 90.2165 8.94961 90.2165 10.1162C90.2165 11.2827 90.9165 12.0398 91.9722 12.0398ZM88.5411 2.12396C88.5182 2.02468 88.6329 1.70201 88.7592 1.71442C89.4821 1.86334 90.2165 1.99986 91.1345 2.12396L93.3721 2.38457C93.5672 2.4094 94.4278 3.68765 93.8541 3.68765H90.4689C89.8952 3.68765 88.5756 2.33493 88.5297 2.12396M86.292 5.01555C86.2691 4.94109 86.4068 4.68048 86.4642 4.7053C86.8428 4.85422 88.1854 4.89145 89.4591 4.86663L94.0377 4.81699C95.3573 4.79217 95.7474 4.08478 95.954 4.08478C96.172 4.08478 97.0097 5.33822 97.0097 5.9215C97.0097 6.02079 96.9179 6.08284 96.7687 6.08284C96.5507 6.08284 95.277 6.00838 94.2672 6.00838L89.3444 6.0332C88.5526 6.0332 88.0248 6.21935 87.7838 6.45515C87.1641 6.26899 86.3953 5.26376 86.315 5.00314M97.2277 14.7452C95.254 15.7256 91.4673 16.2965 88.8739 16.644C88.1739 16.7433 87.7494 16.8798 87.3363 17.1404C86.6707 16.9542 85.7068 15.8994 85.615 15.5022C85.638 15.3781 85.7298 15.2664 85.7871 15.192C86.5101 15.192 87.5658 15.2168 88.8395 15.1423C89.6313 15.0927 90.3771 15.0431 91.0542 14.981L90.9279 12.9333C89.2526 12.6231 88.2198 11.5558 88.2198 10.0789C88.2198 8.46561 89.5165 7.37351 91.5591 7.24941C91.582 7.15012 91.605 7.08807 91.605 6.98879C91.605 6.80264 91.5591 6.57925 91.3181 6.3931C91.3181 5.94633 92.6377 6.3931 92.6377 6.62889C92.6377 6.72817 92.523 7.01361 92.4656 7.24941C94.4622 7.39833 95.7245 8.49043 95.7245 10.0789C95.7245 11.5558 94.6458 12.6231 92.9934 12.9333L92.9016 14.7824C94.9901 14.5218 96.4015 14.1619 97.3425 13.8269C97.5375 13.7524 97.4572 14.6087 97.2162 14.7328M72.2237 3.16642L72.2007 7.13771H77.3186L77.4448 3.16642H72.2122H72.2237ZM68.9074 2.28529C68.8845 2.16119 69.1943 1.76406 69.3435 1.76406C69.7221 1.76406 71.0303 1.8137 71.8909 1.97504H76.7678C77.3874 1.97504 77.7087 1.87575 77.9497 1.63996C78.2136 1.54068 79.9234 1.82611 79.889 2.13637L79.1661 6.91433C79.4759 7.22459 79.889 7.8451 79.889 8.18018C79.889 8.27946 79.7972 8.34151 79.648 8.34151C79.43 8.34151 78.6153 8.31669 77.3874 8.31669H71.9827C71.845 8.57731 71.6729 8.8131 71.4778 9.06131C71.2827 9.27228 70.927 9.37156 70.6631 9.2971C70.4451 8.72623 70.2615 7.63412 70.1123 5.66089L69.9172 3.19124C69.8942 2.95545 69.2746 2.43422 68.9074 2.28529ZM81.0824 19.1633C81.0824 19.2626 81.0135 19.3246 80.8414 19.3246H78.5808L71.8565 19.3494C69.9861 19.3494 69.6189 18.6545 69.6189 17.3017V15.2789C69.6189 14.919 68.9189 14.2984 68.5173 14.2364C68.391 14.2116 68.8271 13.6159 68.9992 13.6159C69.768 13.6159 70.9155 13.802 71.4893 14.0378C71.604 14.0875 71.7762 14.1619 71.7303 14.4225C71.6844 14.7328 71.6844 15.1796 71.6844 15.5643V17.3266C71.6844 18.0588 71.9253 18.158 72.522 18.158L78.1677 18.1332C79.3611 18.1332 79.7513 17.4134 79.9005 17.4134C80.2103 17.4134 81.0824 18.6048 81.0824 19.1509M83.2167 11.4689C83.2167 11.593 83.1249 11.6551 82.9758 11.6551H76.0104V13.0326C76.0104 14.435 75.5285 15.6512 75.1957 16.1972C75.0236 16.4082 74.6449 16.5075 74.4039 16.433C74.2089 15.7877 73.922 14.9314 73.922 13.3677V11.6551H69.2402C68.4484 11.6551 67.9206 11.8909 67.6796 12.1266C67.0599 11.9405 65.8092 10.8856 65.8092 10.6498C65.8092 10.5505 65.9239 10.2899 65.9813 10.3147C66.36 10.4637 67.7025 10.4761 68.9762 10.4761L79.7513 10.4513C81.1168 10.4513 81.5758 9.61977 81.7479 9.61977C81.9889 9.61977 83.2167 10.8856 83.2167 11.4565M52.5211 5.44991C52.5211 6.97638 53.4391 7.99402 54.8276 7.99402C56.216 7.99402 57.2718 6.97638 57.2718 5.44991C57.2718 3.92345 56.2849 2.90581 54.8505 2.90581C53.4161 2.90581 52.5211 3.93586 52.5211 5.44991ZM50.4326 5.52438C50.4326 3.38981 52.0162 1.96263 54.4604 1.8137C54.4833 1.73924 54.5063 1.67719 54.5063 1.60273C54.5063 1.39175 54.4604 1.15596 54.1735 0.932572C54.1735 0.460981 55.6423 0.932572 55.6423 1.19319C55.6423 1.29247 55.5275 1.57791 55.4702 1.8137C57.7996 1.99986 59.3372 3.42704 59.3372 5.52438C59.3372 7.73341 57.5586 9.18541 54.8964 9.18541C52.2342 9.18541 50.4326 7.73341 50.4326 5.52438ZM63.583 12.015C63.583 12.1142 63.4912 12.1763 63.342 12.1763H58.5684V13.318C58.5684 16.5323 58.0406 19.0268 57.7537 19.759C57.5816 19.9699 57.18 20.0692 56.9619 20.0196C56.7898 19.4239 56.48 17.5748 56.48 14.6956V12.1763L53.1178 12.2011V12.9209C53.1178 16.1103 52.5899 18.6048 52.326 19.337C52.1539 19.548 51.7523 19.6473 51.5113 19.5976C51.3621 19.0019 51.0523 17.1528 51.0523 14.2984V12.2011H49.6064C48.8147 12.2011 48.2868 12.4369 48.0458 12.6727C47.4262 12.4865 46.1754 11.4317 46.1754 11.1711C46.1754 11.0966 46.2902 10.836 46.3475 10.8608C46.7262 10.9973 48.0688 11.0221 49.3425 11.0221L60.1175 10.9725C61.4831 10.9725 61.9421 10.141 62.1142 10.141C62.3552 10.141 63.583 11.4193 63.583 11.9901M33.0595 4.49432C33.0595 5.7974 33.966 6.72817 35.3201 6.72817C36.6741 6.72817 37.5806 5.7974 37.5806 4.49432C37.5806 3.19124 36.6741 2.31011 35.3201 2.31011C33.966 2.31011 33.0595 3.21606 33.0595 4.49432ZM30.971 4.59361C30.971 2.71965 32.4857 1.35452 34.8381 1.19319C34.8611 1.06908 34.907 0.982213 34.907 0.85811C34.907 0.647135 34.8381 0.42375 34.5742 0.212775C34.5742 -0.283636 36.043 0.212775 36.043 0.44857C36.043 0.597494 35.8938 0.920161 35.802 1.18078C38.1314 1.34211 39.692 2.70724 39.692 4.58119C39.692 6.55443 37.9134 7.95679 35.3201 7.95679C32.7267 7.95679 30.971 6.55443 30.971 4.58119M41.3903 19.548C41.3903 19.6721 41.2985 19.7093 41.1494 19.7093H32.6005C31.1317 19.7093 30.6153 19.1633 30.5809 17.9222L30.535 16.3337C30.535 16.0979 29.9612 15.7877 29.594 15.6139C29.5711 15.4898 29.9039 15.0927 30.076 15.0927C30.4891 15.0927 32.0612 15.192 32.6234 15.403H38.1888L38.2118 13.4794H32.6464C31.9694 13.4794 31.5218 13.6655 31.2809 13.9137C30.4891 13.7896 29.8465 12.6727 29.835 12.5114C29.8121 12.3873 29.9268 12.1515 30.0301 12.1763C30.7301 12.3128 31.6136 12.3128 32.8874 12.3128H37.4429C38.0626 12.3128 38.3839 12.2383 38.6249 11.9777C38.8888 11.9529 40.6445 12.1639 40.5871 12.4741L40.0363 15.2789C40.4494 15.6139 40.7133 16.1848 40.7133 16.3213C40.7133 16.4454 40.6445 16.5323 40.5412 16.5323C40.3461 16.5323 39.0953 16.5075 38.0741 16.5075H32.6234V17.5499C32.6234 18.3566 32.8415 18.5179 33.8283 18.5179H38.6478C40.0133 18.5179 40.2084 17.8974 40.3576 17.8974C40.6674 17.8974 41.3903 19.0144 41.3903 19.5108M43.9034 10.352C43.9034 10.4513 43.8116 10.5133 43.6624 10.5133H40.5641L29.9383 10.5381C29.1695 10.5381 28.6416 10.7739 28.4006 10.9849C27.758 10.7987 26.622 9.76869 26.5302 9.50808C26.5073 9.43361 26.645 9.173 26.7023 9.19782C27.081 9.34674 28.4121 9.37156 29.6973 9.37156L40.4494 9.32192C41.792 9.32192 42.251 8.49043 42.446 8.49043C42.687 8.49043 43.8919 9.76869 43.8919 10.3396M19.6223 10.3023C19.6223 10.5133 19.4731 10.5133 18.9452 10.6871C18.7272 10.7615 18.6125 11.1338 18.4403 11.7295C18.0617 12.983 16.8568 15.0058 14.3552 15.0058C11.8537 15.0058 10.5341 12.6975 10.4423 12.5734C10.316 12.3873 10.1095 12.2135 9.93735 12.2135C9.8226 12.2135 9.74228 12.2632 9.67343 12.3128C8.7669 12.983 7.78005 13.74 7.78005 15.4774C7.78005 16.6192 8.66363 17.9222 10.1554 17.9222C11.4291 17.9222 12.2668 16.6192 12.5307 15.7132C12.6225 15.403 12.5996 15.2789 12.7487 15.2789C12.9438 15.2789 13.0127 15.7504 13.2766 15.7504C13.4946 15.7504 13.4258 15.6263 13.7126 15.6263C13.9766 15.6263 14.0454 16.0111 14.2634 16.0111C14.5733 16.0111 14.9864 15.7256 15.1929 15.7256C15.2618 15.7256 15.365 15.7256 15.365 15.8001C15.365 15.9242 15.17 16.0359 14.9864 16.2096C14.6077 16.5695 14.3323 16.7805 14.0454 17.3017C13.0356 19.1509 11.8652 19.4859 11.2685 19.6845C11.0504 19.759 10.8324 19.8707 10.7406 20.094C10.4078 20.9007 10.2128 21 10.121 21C10.0062 21 9.97178 20.8635 9.94883 20.5532C9.92588 20.2182 9.75375 19.8334 9.15705 19.7217C7.64235 19.4115 5.77193 17.7485 5.77193 15.1299C5.77193 12.772 7.42433 11.8536 8.262 10.9477C8.37675 10.8236 8.45708 10.6871 8.45708 10.4761V10.4016C8.45708 10.2899 8.43413 10.141 8.29643 9.95485C7.45875 8.8131 6.82763 8.05607 5.68013 8.05607C4.42935 8.05607 3.32775 9.173 3.32775 10.7863C3.32775 12.5238 4.11953 13.1195 4.9113 13.3304C5.17523 13.4049 5.26703 13.4297 5.26703 13.5166C5.26703 13.7028 5.0949 13.6655 5.0949 13.951C5.0949 14.1619 5.24408 14.1371 5.24408 14.4722C5.24408 14.708 5.049 14.7824 5.049 15.1423C5.049 15.4278 5.17523 15.5271 5.17523 15.6884C5.17523 15.8994 5.28998 15.8746 5.28998 16.3337C5.28998 16.4578 5.33588 16.5447 5.24408 16.5447C5.15228 16.5447 5.049 16.3834 4.9113 16.16C4.60148 15.6636 4.2687 15.3533 4.02773 15.1548C2.1114 13.6531 2.04255 12.9954 1.5606 11.9653C1.44585 11.7295 1.41143 11.32 1.18193 11.2083C0.48195 10.8236 0 10.7119 0 10.0914C0 9.80592 0.309825 10.0914 0.791775 10.0914C1.0557 10.0914 1.36553 10.141 1.5147 9.54531C1.84748 8.27946 3.22448 6.25658 5.6457 6.25658C8.2161 6.25658 9.48983 8.5649 9.58163 8.689C9.75375 8.94961 9.9144 9.0489 10.0865 9.0489C10.2013 9.0489 10.2816 9.0489 10.4767 8.86274C12.1061 7.29905 12.2324 6.60407 12.2324 5.69812C12.2324 4.55637 11.3947 3.22847 9.90293 3.22847C8.41118 3.22847 7.69973 4.50673 7.50465 5.46232C7.4358 5.77258 7.3899 5.93392 7.26368 5.93392C7.0686 5.93392 7.0686 5.64848 6.85058 5.64848C6.49485 5.64848 6.46043 5.80981 6.27683 5.80981C6.03585 5.80981 6.03585 5.33822 5.68013 5.33822C5.58833 5.33822 5.39325 5.46232 5.26703 5.46232C4.93425 5.46232 4.9113 5.53679 4.76213 5.53679C4.59 5.53679 4.4064 5.4375 4.4064 5.30099C4.4064 5.16448 4.52115 5.0652 4.8654 4.87904C5.3244 4.61843 5.74898 4.43227 5.967 3.89863C6.64403 2.26047 8.14725 1.73924 8.721 1.50344C8.93903 1.40416 9.05378 1.31729 9.15705 1.09391C9.61605 0.187955 9.8226 0.0886723 9.94883 0.0886723C10.0751 0.0886723 10.0636 0.324468 10.121 0.609904C10.1898 0.944982 10.1898 1.2056 10.6947 1.34211C12.1291 1.75165 14.229 3.17883 14.229 5.78499C14.229 8.39115 11.8537 10.0417 11.7389 10.141C11.475 10.352 11.3832 10.5257 11.3832 10.6871C11.3832 10.8112 11.4521 10.9477 11.5209 11.0966C12.0947 12.3376 13.0815 13.1443 14.229 13.1443C15.5945 13.1443 16.6502 11.7667 16.6502 10.3396C16.6502 8.91238 15.7667 8.05607 14.9978 7.79546C14.711 7.69618 14.5847 7.69618 14.5847 7.53484C14.5847 7.34869 14.7798 7.41074 14.7798 7.1253C14.7798 6.91433 14.688 6.96397 14.688 6.62889C14.688 6.3931 14.9519 6.31863 14.9519 5.95874C14.9519 5.6733 14.8257 5.57402 14.8257 5.41268C14.8257 5.20171 14.7569 5.22653 14.7569 4.76735C14.7569 4.64325 14.711 4.55637 14.8028 4.55637C14.9175 4.55637 15.0208 4.71771 15.1585 4.94109C15.4683 5.4375 15.7093 5.82222 15.9503 5.98356C17.683 7.17494 18.0617 7.93197 18.4633 8.99926C18.5551 9.23505 18.6354 9.64459 18.8993 9.80592C19.1174 9.95485 19.5993 10.1162 19.5993 10.3023" fill="#F4DBD7"/>
</svg>
