<svg width="120" height="40" viewBox="0 0 120 40" fill="none" xmlns="http://www.w3.org/2000/svg">
<path d="M95.5364 9.78343C95.5364 10.1238 95.5856 10.4765 95.7209 10.8107C96.3174 12.2958 97.8364 13.2117 99.7674 12.4381C100.229 12.2525 113.002 7.07303 113.002 7.07303C113.002 7.07303 107.971 19.9072 107.781 20.3837C107.049 22.2216 107.928 23.8862 109.422 24.4431C109.755 24.5669 110.099 24.6288 110.437 24.6226C111.661 24.6164 112.737 23.8924 113.266 22.4443C113.346 22.2278 119.637 4.8453 119.772 4.4307C119.852 4.18317 120 3.60149 120 3.19926C120 2.33911 119.686 1.52847 119.078 0.915843C118.481 0.309406 117.682 0 116.839 0C116.427 0 116.095 0.0742575 115.591 0.235149C115.289 0.334159 99.0725 6.40471 97.6888 6.92452C96.3051 7.44432 95.5364 8.55818 95.5425 9.78343" fill="white"/>
<path d="M65.1503 19.5852V19.2139H55.3168V21.7448H61.0299C59.5417 26.4849 54.2222 29.2696 54.2222 29.2696L55.6428 31.2683C55.6428 31.2683 65.1503 27.3203 65.1503 19.579V19.5852Z" fill="white"/>
<path d="M62.0446 36.3927V31.4731H58.5577V37.0177C58.5577 38.7504 59.9291 40.0004 61.811 40.0004H72.616V37.4756H63.2623C62.4136 37.4756 62.0569 37.1353 62.0385 36.3927H62.0446Z" fill="white"/>
<path d="M64.7568 23.8802V26.4111H68.9079V32.5126H72.3948V18.9482H68.9079V23.8802H64.7568Z" fill="white"/>
<path d="M94.8044 29.1151H98.2913V18.8428H94.8044V22.042H91.1699V24.542H94.8044V29.1151Z" fill="white"/>
<path d="M16.5921 31.2808H3.32092V37.0172C3.32092 38.7498 4.69231 39.9998 6.57414 39.9998H17.3669V32.0605C17.3669 31.6273 17.0164 31.2808 16.5921 31.2808ZM13.88 37.4751H8.02548C7.17681 37.4751 6.81398 37.1409 6.80168 36.3922V33.8179H13.88V37.4751Z" fill="white"/>
<path d="M17.6006 19.2514V19.1338H3.13022V21.6647H13.9538C13.9538 21.8318 13.9538 22.0422 13.9538 22.2464C13.9538 24.5979 13.8369 26.1449 13.7754 26.7761H0V29.3071H21.2228V26.7761H16.881C17.0901 25.984 17.6067 23.5335 17.6067 19.2514H17.6006Z" fill="white"/>
<path d="M39.2722 32.5556C42.1687 31.9183 44.3089 29.7339 44.3089 27.1472C44.3089 25.7549 43.6877 24.4801 42.6669 23.4962H46.369V20.9653H39.2722V18.5767H35.7915V20.9653H28.6947V23.4962H32.3968C31.3759 24.4801 30.7548 25.7487 30.7548 27.1472C30.7548 29.74 32.8949 31.9183 35.7976 32.5556V35.1175H26.9297V37.6485H48.1463V35.1175H39.2784V32.5556H39.2722ZM34.334 27.0668C34.334 25.3403 35.7669 23.9294 37.5257 23.9294C39.2845 23.9294 40.7174 25.3341 40.7174 27.0668C40.7174 28.7994 39.2845 30.2042 37.5257 30.2042C35.7669 30.2042 34.334 28.7994 34.334 27.0668Z" fill="white"/>
<path d="M88.1381 28.899H91.5143C91.3728 28.076 90.1367 21.4299 86.9204 19.1279H83.0276L80.0327 28.9794H83.5319L85.5244 21.8878C87.2033 23.868 88.0212 28.2492 88.1319 28.899H88.1381Z" fill="white"/>
<path d="M88.8329 37.5622C87.9474 37.5622 87.7875 37.3332 87.7875 36.5782V36.2626H98.2974V30.9409C98.2974 30.4829 97.9653 30.124 97.4918 30.124H84.3621V32.5621H94.9581V33.8678H84.4543V37.0176C84.4543 38.8431 85.7581 40.0003 87.7075 40.0003H98.5249V37.5622H88.8329Z" fill="white"/>
</svg>
