<svg width="120" height="40" viewBox="0 0 120 40" fill="none" xmlns="http://www.w3.org/2000/svg">
<path d="M95.5361 9.78332C95.5361 10.1237 95.5853 10.4764 95.7206 10.8105C96.3171 12.2957 97.8361 13.2115 99.7672 12.438C100.228 12.2524 113.001 7.07295 113.001 7.07295C113.001 7.07295 107.971 19.907 107.78 20.3835C107.048 22.2213 107.928 23.8859 109.422 24.4428C109.754 24.5666 110.099 24.6285 110.437 24.6223C111.661 24.6161 112.737 23.8921 113.266 22.4441C113.346 22.2275 119.637 4.84525 119.772 4.43065C119.852 4.18313 120 3.60145 120 3.19923C120 2.33909 119.686 1.52845 119.077 0.915832C118.481 0.309403 117.681 0 116.839 0C116.427 0 116.095 0.0742567 115.59 0.235146C115.289 0.334155 99.0722 6.40464 97.6885 6.92444C96.3049 7.44423 95.5361 8.55808 95.5423 9.78332" fill="#ED1C24"/>
<path d="M65.1503 19.5852V19.2139H55.3168V21.7448H61.0299C59.5417 26.4848 54.2222 29.2695 54.2222 29.2695L55.6428 31.2682C55.6428 31.2682 65.1503 27.3202 65.1503 19.579V19.5852Z" fill="#454B52"/>
<path d="M62.045 36.3922V31.4727H58.5581V37.0172C58.5581 38.7498 59.9295 39.9998 61.8113 39.9998H72.6164V37.4751H63.2627C62.414 37.4751 62.0573 37.1347 62.0389 36.3922H62.045Z" fill="#454B52"/>
<path d="M64.7568 23.8801V26.411H68.9079V32.5125H72.3948V18.9482H68.9079V23.8801H64.7568Z" fill="#454B52"/>
<path d="M94.8049 29.114H98.2918V18.8418H94.8049V22.041H91.1704V24.541H94.8049V29.114Z" fill="#454B52"/>
<path d="M16.592 31.2803H3.3208V37.0166C3.3208 38.7493 4.69219 39.9992 6.57402 39.9992H17.3668V32.06C17.3668 31.6268 17.0163 31.2803 16.592 31.2803ZM13.8799 37.4745H8.02536C7.17669 37.4745 6.81386 37.1404 6.80156 36.3916V33.8174H13.8799V37.4745Z" fill="#454B52"/>
<path d="M17.6006 19.2504V19.1328H3.13022V21.6637H13.9538C13.9538 21.8308 13.9538 22.0412 13.9538 22.2454C13.9538 24.5969 13.8369 26.1439 13.7754 26.7751H0V29.306H21.2228V26.7751H16.8811C17.0901 25.983 17.6067 23.5325 17.6067 19.2504H17.6006Z" fill="#454B52"/>
<path d="M39.2722 32.555C42.1688 31.9176 44.3089 29.7332 44.3089 27.1466C44.3089 25.7543 43.6877 24.4796 42.6669 23.4957H46.369V20.9648H39.2722V18.5762H35.7915V20.9648H28.6947V23.4957H32.3968C31.376 24.4796 30.7548 25.7481 30.7548 27.1466C30.7548 29.7394 32.8949 31.9176 35.7976 32.555V35.1168H26.9297V37.6478H48.1463V35.1168H39.2784V32.555H39.2722ZM34.334 27.0662C34.334 25.3397 35.7669 23.9288 37.5257 23.9288C39.2845 23.9288 40.7174 25.3335 40.7174 27.0662C40.7174 28.7988 39.2845 30.2035 37.5257 30.2035C35.7669 30.2035 34.334 28.7988 34.334 27.0662Z" fill="#454B52"/>
<path d="M88.1386 28.8989H91.5148C91.3733 28.0759 90.1372 21.4299 86.9209 19.1279H83.0281L80.0332 28.9793H83.5324L85.5249 21.8878C87.2038 23.868 88.0217 28.2491 88.1324 28.8989H88.1386Z" fill="#454B52"/>
<path d="M88.8332 37.5621C87.9476 37.5621 87.7877 37.3331 87.7877 36.5782V36.2626H98.2976V30.9408C98.2976 30.4829 97.9655 30.124 97.492 30.124H84.3623V32.5621H94.9583V33.8678H84.4546V37.0175C84.4546 38.843 85.7583 40.0002 87.7078 40.0002H98.5252V37.5621H88.8332Z" fill="#454B52"/>
</svg>
