<svg width="32" height="32" viewBox="0 0 32 32" fill="none" xmlns="http://www.w3.org/2000/svg">
<path d="M30.5915 14.1156C29.614 13.8678 28.1088 13.916 27.3468 13.9593C25.5174 8.5273 22.1922 9.13352 22.036 9.1648C19.6007 9.7181 17.6199 10.4639 16.0957 11.3924C14.6142 10.038 12.5008 8.75103 9.51172 8.06541C8.98396 7.94513 8.68339 7.75268 8.33313 7.52895C8.13906 7.40627 7.94026 7.27877 7.69413 7.15608C7.24684 6.93476 6.87764 6.94919 6.59837 7.19697C6.19131 7.55542 6.09901 8.21456 6.77824 10.4807C5.40795 10.7188 2.7644 11.7894 2.03784 16.4395C1.65918 16.911 0.603654 18.4218 1.15745 19.9373C1.68995 21.3927 3.5099 22.3093 6.56761 22.6629C7.87636 22.8145 9.17092 22.8866 10.4063 22.8866C12.2973 22.8866 14.0509 22.7134 15.5301 22.3935C15.9348 22.432 16.4294 22.4897 16.8909 22.545C18.576 22.7423 20.7462 22.9973 22.7081 22.9973C24.2228 22.9973 25.6097 22.8457 26.5516 22.3983C29.2685 21.1089 31.5381 16.9447 31.3701 15.1621C31.2967 14.3778 30.7974 14.1686 30.5867 14.1156H30.5915ZM15.4378 21.1762C15.1964 21.1546 15 21.145 14.8367 21.145C14.8106 21.145 14.787 21.145 14.7633 21.145C14.2261 20.2885 12.9883 17.9478 13.8119 15.636C14.1764 14.616 14.8935 13.7115 15.9466 12.9248C18.2967 15.4604 18.8316 18.3881 18.7795 19.3503C18.7677 19.5837 18.5547 19.8146 18.3795 19.9638C17.8305 20.4353 16.8105 20.8635 15.4378 21.1762ZM6.70487 21.4673C3.49806 21.0944 2.52301 20.2043 2.27214 19.5211C1.86981 18.429 3.01527 17.1299 3.03657 17.1059L3.15963 16.9711L3.18567 16.7859C3.95483 11.4309 7.37937 11.6041 7.52137 11.6162L8.40886 11.6907L8.13196 10.8295C7.71307 9.53046 7.55213 8.80876 7.49297 8.41423C7.56397 8.45754 7.6326 8.50324 7.70597 8.54895C8.09173 8.79433 8.52956 9.07338 9.25375 9.23937C11.7979 9.82395 13.6889 10.8728 15.0852 12.0877C13.9208 12.9922 13.1209 14.0435 12.6972 15.2367C11.7813 17.8203 12.8889 20.3054 13.5824 21.4962C11.6464 21.7343 9.29162 21.768 6.70487 21.4673ZM26.057 21.3109C24.4524 22.0735 20.8882 21.7849 18.221 21.489C18.5783 21.3037 18.8907 21.1016 19.144 20.8827C19.6575 20.4401 19.9344 19.9469 19.9628 19.4153C20.0102 18.5084 19.6812 16.1484 18.0837 13.7163C17.7808 13.2568 17.4092 12.7637 16.9619 12.2657C18.3322 11.4814 20.1025 10.8391 22.2774 10.346C22.3839 10.3267 24.9044 9.94423 26.3646 14.7724L26.5066 15.2391L26.9847 15.1958C27.006 15.1958 29.0531 15.0105 30.2057 15.2607C30.3832 16.1219 28.6153 20.0985 26.0593 21.3109H26.057Z" fill="#2FB1BE"/>
<path d="M6.47065 14.1587H6.38545C6.00902 14.1587 5.70386 14.4689 5.70386 14.8515V15.7729C5.70386 16.1555 6.00902 16.4657 6.38545 16.4657H6.47065C6.84709 16.4657 7.15225 16.1555 7.15225 15.7729V14.8515C7.15225 14.4689 6.84709 14.1587 6.47065 14.1587Z" fill="#2FB1BE"/>
<path d="M24.3034 13.7881H24.2182C23.8418 13.7881 23.5366 14.0983 23.5366 14.4809V15.4023C23.5366 15.7849 23.8418 16.0951 24.2182 16.0951H24.3034C24.6798 16.0951 24.985 15.7849 24.985 15.4023V14.4809C24.985 14.0983 24.6798 13.7881 24.3034 13.7881Z" fill="#2FB1BE"/>
</svg>
