<svg width="198" height="70" viewBox="0 0 198 70" fill="none" xmlns="http://www.w3.org/2000/svg">
<path d="M34.8968 70C15.6585 70 0 54.2952 0 35C0 15.7048 15.6585 0 34.8968 0C54.1351 0 69.7936 15.7048 69.7936 35C69.7936 54.2952 54.1351 70 34.8968 70ZM34.8968 2.25806C16.8968 2.25806 2.25141 16.9468 2.25141 35C2.25141 53.0532 16.8968 67.7419 34.8968 67.7419C52.8968 67.7419 67.5422 53.0532 67.5422 35C67.5422 16.9468 52.8968 2.25806 34.8968 2.25806Z" fill="white"/>
<path d="M34.4016 8.60309L10.3003 38.2402H27.2534L30.169 33.7241C32.2065 30.5741 33.6361 27.0853 34.3903 23.416L35.1783 25.7418C36.9007 30.7999 39.1746 35.6434 41.9776 40.2047H59.8313L48.4954 27.2321C43.351 21.3499 38.6455 15.1176 34.4016 8.5918V8.60309Z" fill="#E9E2DC"/>
<path d="M35.1105 29.344C33.3769 28.3843 31.193 28.452 29.6733 29.7165C27.9172 31.173 26.9829 34.1424 32.6002 39.9794C32.6002 39.9794 41.2681 32.7311 35.1105 29.344ZM32.769 35.023C31.6883 35.023 30.8103 34.1649 30.8103 33.1036C30.8103 32.0424 31.6883 31.1843 32.769 31.1843C33.8497 31.1843 34.7277 32.0424 34.7277 33.1036C34.7277 34.1649 33.8497 35.023 32.769 35.023Z" fill="#FF4700"/>
<path d="M23.6398 45.5567C23.561 45.4663 23.4709 45.3986 23.3583 45.3421C23.2458 45.2857 23.1107 45.2744 22.9756 45.2744C22.773 45.2744 22.5929 45.3309 22.4353 45.4325C22.2777 45.5341 22.1651 45.6808 22.075 45.8841C21.985 46.076 21.94 46.3131 21.94 46.5954C21.94 46.8776 21.985 47.1147 22.0638 47.3067C22.1538 47.4986 22.2664 47.6567 22.424 47.7583C22.5816 47.8599 22.7617 47.9163 22.9756 47.9163C23.167 47.9163 23.3246 47.8825 23.4709 47.8147C23.6173 47.747 23.7186 47.6454 23.7861 47.5212C23.8536 47.397 23.8987 47.2502 23.8987 47.0696L24.0675 47.0921H23.0319V46.4599H24.6867V46.9567C24.6867 47.2954 24.6191 47.6002 24.4728 47.8486C24.3264 48.097 24.1238 48.3002 23.8649 48.4357C23.606 48.5712 23.3021 48.6389 22.9756 48.6389C22.6041 48.6389 22.2777 48.5599 21.9962 48.3905C21.7148 48.2212 21.4897 47.9841 21.3433 47.6792C21.197 47.3744 21.1069 47.0131 21.1069 46.5954C21.1069 46.1776 21.1857 45.8163 21.3433 45.5002C21.5009 45.1954 21.7261 44.947 22.0075 44.7889C22.2889 44.6196 22.6041 44.5405 22.9531 44.5405C23.2458 44.5405 23.5159 44.597 23.7636 44.7099C24.0112 44.8228 24.2139 44.9808 24.3602 45.1841C24.5178 45.3873 24.6079 45.6244 24.6529 45.8841H23.8086C23.7749 45.7599 23.7186 45.647 23.6398 45.5567Z" fill="white"/>
<path d="M24.9458 48.5939L26.3192 44.5972H27.3773L28.7507 48.5939H27.8614L26.8595 45.5004H26.8257L25.8239 48.5939H24.9458ZM27.9064 47.0246V47.6681H25.7788V47.0246H27.9064Z" fill="white"/>
<path d="M31.531 45.6131C31.4522 45.5114 31.3509 45.4211 31.227 45.3647C31.1032 45.3082 30.9681 45.2743 30.8105 45.2743C30.5967 45.2743 30.4165 45.3308 30.2702 45.4324C30.1239 45.534 30 45.6921 29.91 45.884C29.8199 46.076 29.7861 46.313 29.7861 46.5953C29.7861 46.8776 29.8312 47.1147 29.91 47.3066C30 47.4985 30.1126 47.6453 30.2702 47.7582C30.4278 47.8598 30.6079 47.9163 30.8105 47.9163C30.9681 47.9163 31.1032 47.8824 31.227 47.8372C31.3509 47.7808 31.4522 47.7018 31.531 47.6001C31.6098 47.4985 31.6661 47.3743 31.6886 47.2389H32.5216C32.4878 47.4985 32.3978 47.7356 32.2514 47.9501C32.1051 48.1647 31.9025 48.334 31.6548 48.4695C31.4072 48.5937 31.1145 48.6614 30.7993 48.6614C30.4391 48.6614 30.1239 48.5824 29.8424 48.4131C29.561 48.255 29.3471 48.0179 29.1895 47.7018C29.0319 47.3969 28.9531 47.0243 28.9531 46.6066C28.9531 46.1889 29.0319 45.8163 29.1895 45.5001C29.3471 45.1953 29.5723 44.9582 29.8537 44.7889C30.1351 44.6308 30.4503 44.5518 30.7993 44.5518C31.1032 44.5518 31.3846 44.6082 31.6323 44.7211C31.88 44.834 32.0826 45.0034 32.2402 45.2179C32.3978 45.4324 32.4878 45.6921 32.5329 45.9969H31.6998C31.6773 45.8501 31.6323 45.726 31.5535 45.6131H31.531Z" fill="white"/>
<path d="M33.0957 44.5972H33.9175V46.2456H35.6398V44.5972H36.4616V48.5939H35.6398V46.9343H33.9175V48.5939H33.0957V44.5972Z" fill="white"/>
<path d="M36.9233 48.5939L38.2967 44.5972H39.3549L40.7282 48.5939H39.8389L38.837 45.5004H38.8033L37.8014 48.5939H36.9233ZM39.8839 47.0246V47.6681H37.7564V47.0246H39.8839Z" fill="white"/>
<path d="M44.499 48.5939H43.7898L42.045 46.0536H42.0112V48.5939H41.1895V44.5972H41.9099L43.6435 47.1262H43.6773V44.5972H44.499V48.5939Z" fill="white"/>
<path d="M47.6398 45.5567C47.561 45.4663 47.4709 45.3986 47.3583 45.3421C47.2458 45.2857 47.1107 45.2744 46.9756 45.2744C46.773 45.2744 46.5929 45.3309 46.4353 45.4325C46.2777 45.5341 46.1651 45.6808 46.075 45.8841C45.985 46.076 45.94 46.3131 45.94 46.5954C45.94 46.8776 45.985 47.1147 46.0638 47.3067C46.1538 47.4986 46.2664 47.6567 46.424 47.7583C46.5816 47.8599 46.7617 47.9163 46.9756 47.9163C47.167 47.9163 47.3246 47.8825 47.4709 47.8147C47.6173 47.747 47.7186 47.6454 47.7861 47.5212C47.8537 47.397 47.8987 47.2502 47.8987 47.0696L48.0675 47.0921H47.0319V46.4599H48.6867V46.9567C48.6867 47.2954 48.6191 47.6002 48.4728 47.8486C48.3264 48.097 48.1238 48.3002 47.8649 48.4357C47.606 48.5712 47.3021 48.6389 46.9756 48.6389C46.6041 48.6389 46.2777 48.5599 45.9962 48.3905C45.7148 48.2212 45.4897 47.9841 45.3433 47.6792C45.197 47.3744 45.1069 47.0131 45.1069 46.5954C45.1069 46.1776 45.1857 45.8163 45.3433 45.5002C45.5009 45.1954 45.7261 44.947 46.0075 44.7889C46.2889 44.6196 46.6041 44.5405 46.9531 44.5405C47.2458 44.5405 47.5159 44.597 47.7636 44.7099C48.0112 44.8228 48.2139 44.9808 48.3602 45.1841C48.5178 45.3873 48.6079 45.6244 48.6529 45.8841H47.8086C47.7749 45.7599 47.7186 45.647 47.6398 45.5567Z" fill="white"/>
<path d="M22.9869 52.3311C22.9081 52.2407 22.8181 52.173 22.7055 52.1166C22.5929 52.0601 22.4579 52.0488 22.3228 52.0488C22.1201 52.0488 21.94 52.1053 21.7824 52.2069C21.6248 52.3085 21.5123 52.4553 21.4222 52.6585C21.3322 52.8504 21.2871 53.0875 21.2871 53.3698C21.2871 53.652 21.3322 53.8891 21.411 54.0811C21.501 54.273 21.6136 54.4311 21.7712 54.5327C21.9288 54.6343 22.1089 54.6907 22.3228 54.6907C22.5141 54.6907 22.6717 54.6569 22.8181 54.5891C22.9644 54.5214 23.0657 54.4198 23.1333 54.2956C23.2008 54.1714 23.2458 54.0246 23.2458 53.844L23.4147 53.8666H22.3791V53.2343H24.0338V53.7311C24.0338 54.0698 23.9663 54.3746 23.82 54.623C23.6736 54.8714 23.471 55.0746 23.2121 55.2101C22.9532 55.3456 22.6492 55.4133 22.3228 55.4133C21.9513 55.4133 21.6248 55.3343 21.3434 55.1649C21.062 54.9956 20.8368 54.7585 20.6905 54.4536C20.5442 54.1488 20.4541 53.7875 20.4541 53.3698C20.4541 52.952 20.5329 52.5907 20.6905 52.2746C20.8481 51.9585 21.0732 51.7214 21.3547 51.5633C21.6361 51.4053 21.9513 51.3149 22.3003 51.3149C22.5929 51.3149 22.8631 51.3714 23.1108 51.4843C23.3584 51.5972 23.561 51.7553 23.7074 51.9585C23.865 52.1617 23.955 52.3988 24.0001 52.6585H23.1558C23.122 52.5343 23.0657 52.4214 22.9869 52.3311Z" fill="white"/>
<path d="M24.6416 51.3711H25.4634V54.6792H27.1744V55.3679H24.6416V51.3711Z" fill="white"/>
<path d="M27.6025 55.3679L28.9759 51.3711H30.0341L31.4074 55.3679H30.5181L29.5162 52.2743H29.4825L28.4806 55.3679H27.6025ZM30.5631 53.7985V54.4421H28.4356V53.7985H30.5631Z" fill="white"/>
<path d="M32.8818 51.3711L33.985 54.0695H34.03L35.1332 51.3711H36.1576V55.3679H35.3583V52.7485H35.3246L34.2889 55.3453H33.7373L32.7017 52.7485H32.6679V55.3679H31.8687V51.3711H32.8818Z" fill="white"/>
<path d="M36.833 51.3712H38.3865C38.6792 51.3712 38.9381 51.4276 39.152 51.5405C39.3658 51.6534 39.5347 51.8115 39.6473 52.0147C39.7598 52.2179 39.8161 52.455 39.8161 52.7147C39.8161 52.9744 39.7598 53.2115 39.6473 53.4147C39.5347 53.6179 39.3658 53.776 39.152 53.8889C38.9381 54.0018 38.6792 54.0582 38.3752 54.0582H37.3733V53.3921H38.2401C38.3977 53.3921 38.5328 53.3695 38.6454 53.3131C38.758 53.2566 38.8368 53.1776 38.893 53.076C38.9493 52.9744 38.9718 52.8615 38.9718 52.7147C38.9718 52.5679 38.9493 52.4663 38.893 52.3647C38.8368 52.2631 38.758 52.1841 38.6454 52.1276C38.5328 52.0711 38.3977 52.0486 38.2401 52.0486H37.6548V55.3566H36.833V51.3599V51.3712Z" fill="white"/>
<path d="M41.1557 55.3679H40.334V51.3711H41.1557V55.3679Z" fill="white"/>
<path d="M45.1519 55.3679H44.4427L42.6978 52.8275H42.6641V55.3679H41.8423V51.3711H42.5627L44.2963 53.9001H44.3301V51.3711H45.1519V55.3679Z" fill="white"/>
<path d="M48.2926 52.3311C48.2138 52.2407 48.1237 52.173 48.0112 52.1166C47.8986 52.0601 47.7635 52.0488 47.6284 52.0488C47.4258 52.0488 47.2457 52.1053 47.0881 52.2069C46.9305 52.3085 46.8179 52.4553 46.7279 52.6585C46.6378 52.8504 46.5928 53.0875 46.5928 53.3698C46.5928 53.652 46.6378 53.8891 46.7166 54.0811C46.8067 54.273 46.9192 54.4311 47.0768 54.5327C47.2344 54.6343 47.4145 54.6907 47.6284 54.6907C47.8198 54.6907 47.9774 54.6569 48.1237 54.5891C48.2701 54.5214 48.3714 54.4198 48.4389 54.2956C48.5065 54.1714 48.5515 54.0246 48.5515 53.844L48.7204 53.8666H47.6847V53.2343H49.3395V53.7311C49.3395 54.0698 49.272 54.3746 49.1256 54.623C48.9793 54.8714 48.7766 55.0746 48.5177 55.2101C48.2588 55.3456 47.9549 55.4133 47.6284 55.4133C47.257 55.4133 46.9305 55.3343 46.6491 55.1649C46.3676 54.9956 46.1425 54.7585 45.9962 54.4536C45.8498 54.1488 45.7598 53.7875 45.7598 53.3698C45.7598 52.952 45.8386 52.5907 45.9962 52.2746C46.1538 51.9585 46.3789 51.7214 46.6603 51.5633C46.9418 51.4053 47.257 51.3149 47.6059 51.3149C47.8986 51.3149 48.1688 51.3714 48.4164 51.4843C48.6641 51.5972 48.8667 51.7553 49.013 51.9585C49.1706 52.1617 49.2607 52.3988 49.3057 52.6585H48.4615C48.4277 52.5343 48.3714 52.4214 48.2926 52.3311Z" fill="white"/>
<path d="M86.4879 35.8468C85.9025 37.6194 84.9344 39.2452 83.5948 40.7355C82.2552 42.2259 80.4991 43.5017 78.3153 44.5743L76.728 42.4291C78.5179 41.5259 79.9926 40.4984 81.1633 39.3468C82.334 38.1952 83.2008 36.8968 83.7637 35.4517C84.3265 34.0065 84.6305 32.3807 84.6305 30.5743V30.0662H87.3772C87.3772 32.1549 87.0732 34.0855 86.4766 35.8581L86.4879 35.8468ZM86.0376 32.3581H77.8425V30.0549H86.0376V32.3581ZM92.7243 48.0404H89.91V27.9888H92.7243V48.0404ZM95.5498 38.0146H92.0038V35.7001H95.5498V38.0146Z" fill="white"/>
<path d="M102.585 35.6096C102.169 36.637 101.527 37.529 100.694 38.2854C99.8611 39.0419 98.8142 39.6064 97.5984 39.9677L96.2363 37.7661C97.2832 37.4838 98.1613 37.0661 98.8705 36.4903C99.5797 35.9144 100.109 35.2709 100.458 34.5596C100.807 33.8483 100.976 33.0806 100.976 32.279V31.5564H103.216V32.279C103.216 33.4757 103.002 34.5935 102.585 35.6096ZM107.797 32.3354H96.9455V30.1225H107.797V32.3354ZM109.328 40.9274C110.341 41.2209 111.118 41.6612 111.658 42.2257C112.199 42.7903 112.458 43.479 112.458 44.2806C112.458 45.0822 112.188 45.737 111.647 46.3015C111.107 46.8661 110.33 47.2951 109.317 47.5886C108.304 47.8822 107.099 48.029 105.715 48.029C104.33 48.029 103.081 47.8822 102.056 47.5886C101.032 47.2951 100.244 46.8661 99.6922 46.3128C99.1406 45.7596 98.8592 45.0822 98.8592 44.2806C98.8592 43.479 99.1406 42.7903 99.6922 42.2257C100.244 41.6612 101.032 41.2209 102.056 40.9274C103.081 40.6338 104.308 40.4757 105.715 40.4644C107.111 40.4644 108.326 40.6225 109.34 40.9274H109.328ZM103.79 30.9806H100.976V27.9209H103.79V30.9806ZM104.274 34.3338C104.612 34.9886 105.141 35.5757 105.839 36.0838C106.537 36.5919 107.415 36.987 108.461 37.258L107.178 39.4822C105.929 39.1435 104.882 38.6128 104.037 37.9015C103.193 37.1903 102.552 36.3435 102.135 35.3725C101.719 34.4015 101.505 33.3628 101.505 32.2564V31.5338H103.779V32.2564C103.779 32.979 103.947 33.6677 104.285 34.3225L104.274 34.3338ZM103.452 42.8241C102.855 42.937 102.405 43.1177 102.101 43.3548C101.797 43.5919 101.651 43.908 101.662 44.2919C101.662 44.6644 101.809 44.958 102.113 45.2064C102.416 45.4548 102.867 45.6241 103.463 45.7483C104.06 45.8725 104.803 45.929 105.703 45.9403C106.57 45.9403 107.302 45.8725 107.899 45.7483C108.495 45.6241 108.934 45.4435 109.238 45.2064C109.542 44.9693 109.7 44.6644 109.7 44.2919C109.7 43.9193 109.553 43.6032 109.249 43.3548C108.946 43.1064 108.507 42.9257 107.91 42.8241C107.313 42.7225 106.582 42.6548 105.703 42.6548C104.825 42.6548 104.049 42.7112 103.452 42.8241ZM112.266 40.1144H109.463V27.9886H112.266V40.1144ZM114.968 35.0338H111.467V32.7644H114.968V35.0338Z" fill="white"/>
<path d="M139.351 37.3033H121.058V35.1017H139.351V37.3033ZM137.111 44.3372H125.932V46.4485H123.129V42.2372H134.33V40.9049H123.118V38.7485H137.111V44.3485V44.3372ZM137.64 47.9162H123.129V45.7485H137.64V47.9162ZM136.086 31.0485H123.287V28.8243H136.086V31.0485ZM137.099 32.9791C137.043 33.8146 136.897 34.7517 136.66 35.7678L133.891 35.5081C134.105 34.5485 134.24 33.7017 134.296 32.934C134.353 32.1662 134.386 31.3307 134.398 30.3823V28.813H137.189V30.1791C137.189 31.1952 137.156 32.1323 137.099 32.9678V32.9791Z" fill="white"/>
<path d="M148.942 35.1692H144.034V38.6918H141.321V33.0805H146.229V31.3983H141.298V29.1967H148.953V35.1805L148.942 35.1692ZM146.668 36.8967C147.67 36.8289 148.683 36.7047 149.73 36.5015L149.978 38.7031C148.897 38.895 147.839 39.0192 146.803 39.0757C145.767 39.1321 144.405 39.1547 142.705 39.1547H141.321V36.987H142.705C144.349 36.987 145.666 36.9531 146.668 36.8967ZM157.7 47.8483H144.034V40.6676H157.7V47.8483ZM146.826 45.5902H154.919V42.9031H146.826V45.5902ZM153.298 39.6741H150.709V28.3612H153.298V39.6741ZM155.786 34.9773H152.499V32.7418H155.786V34.9773ZM157.7 39.8434H155.032V28.0225H157.7V39.8434Z" fill="white"/>
<path d="M166.672 36.8514C168.754 36.7724 170.702 36.6143 172.492 36.3772L172.672 38.4434C170.871 38.7708 168.957 38.9853 166.942 39.0869C164.927 39.1885 162.811 39.245 160.615 39.245L160.312 36.9869C162.473 36.9869 164.6 36.9305 166.683 36.8514H166.672ZM171.704 31.7821H160.829V29.524H171.704V31.7821ZM165.13 38.0482H162.439V31.2966H165.13V38.0482ZM173.629 40.9272C174.664 41.2208 175.463 41.6498 176.015 42.2143C176.567 42.7789 176.837 43.4676 176.837 44.2692C176.837 45.0708 176.567 45.7482 176.015 46.3127C175.463 46.8772 174.676 47.3176 173.629 47.6224C172.582 47.9272 171.355 48.074 169.925 48.074C168.495 48.074 167.28 47.9272 166.244 47.6224C165.208 47.3176 164.42 46.8885 163.869 46.3127C163.317 45.7369 163.036 45.0595 163.036 44.2692C163.036 43.4789 163.317 42.7789 163.869 42.2143C164.42 41.6498 165.208 41.2208 166.244 40.9272C167.28 40.6337 168.495 40.4869 169.925 40.4869C171.355 40.4869 172.593 40.6337 173.629 40.9272ZM167.674 42.8127C167.066 42.9256 166.604 43.1063 166.3 43.3547C165.996 43.603 165.839 43.9079 165.839 44.2692C165.839 44.6305 165.996 44.9466 166.312 45.1837C166.627 45.4208 167.077 45.6127 167.685 45.7369C168.293 45.8611 169.036 45.9289 169.936 45.9401C170.826 45.9401 171.58 45.8611 172.199 45.7369C172.818 45.6127 173.28 45.4208 173.584 45.1837C173.888 44.9466 174.045 44.6305 174.056 44.2692C174.056 43.9079 173.888 43.603 173.584 43.3547C173.28 43.1063 172.818 42.9256 172.199 42.8127C171.58 42.6998 170.826 42.6434 169.936 42.6434C169.047 42.6434 168.293 42.6998 167.685 42.8127H167.674ZM170.049 38.0482H167.37V31.2966H170.049V38.0482ZM176.713 40.1143H173.91V28.0337H176.713V40.1143Z" fill="white"/>
<path d="M185.64 35.1921C185.223 36.3211 184.582 37.3033 183.726 38.1388C182.871 38.9743 181.812 39.5953 180.552 40.0017L179.145 37.7888C180.214 37.4388 181.115 36.9421 181.835 36.2985C182.555 35.655 183.096 34.9098 183.445 34.0969C183.794 33.284 183.974 32.4259 183.974 31.534V30.2243H186.27V31.534C186.27 32.8437 186.045 34.063 185.629 35.1921H185.64ZM190.807 31.5904H179.899V29.3437H190.807V31.5904ZM192.338 40.7582C193.351 41.063 194.128 41.5033 194.679 42.0904C195.22 42.6662 195.49 43.3662 195.49 44.1792C195.49 44.9921 195.22 45.6808 194.679 46.2679C194.139 46.855 193.362 47.3066 192.338 47.6114C191.313 47.9162 190.12 48.0856 188.736 48.0856C187.351 48.0856 186.124 47.9275 185.088 47.6114C184.053 47.2953 183.265 46.855 182.713 46.2679C182.161 45.6808 181.88 44.9921 181.88 44.1792C181.88 43.3662 182.161 42.6775 182.713 42.0904C183.265 41.5146 184.053 41.063 185.088 40.7582C186.124 40.4533 187.34 40.2953 188.747 40.2953C190.154 40.2953 191.336 40.4533 192.349 40.7582H192.338ZM187.306 33.8485C187.632 34.5824 188.15 35.2372 188.837 35.813C189.524 36.3888 190.39 36.8292 191.415 37.1453L190.098 39.3356C188.871 38.963 187.835 38.3985 187.013 37.6195C186.191 36.8404 185.561 35.9372 185.145 34.8985C184.728 33.8598 184.525 32.7308 184.525 31.534V30.2356H186.811V31.534C186.811 32.3469 186.979 33.1259 187.306 33.8598V33.8485ZM186.518 42.6662C185.91 42.7904 185.46 42.9824 185.145 43.2308C184.829 43.4792 184.683 43.7953 184.694 44.1679C184.694 44.5517 184.841 44.8679 185.145 45.1162C185.448 45.3646 185.91 45.5566 186.507 45.6921C187.103 45.8275 187.846 45.884 188.724 45.884C189.602 45.884 190.323 45.8162 190.919 45.6921C191.516 45.5679 191.955 45.3759 192.259 45.1162C192.563 44.8566 192.721 44.5404 192.721 44.1679C192.721 43.7953 192.563 43.4792 192.259 43.2308C191.955 42.9824 191.505 42.7904 190.919 42.6662C190.334 42.5421 189.602 42.4743 188.724 42.4743C187.846 42.4743 187.115 42.5421 186.507 42.6662H186.518ZM195.298 39.9001H192.495V27.9775H195.298V39.9001ZM198 34.955H194.499V32.663H198V34.955Z" fill="white"/>
</svg>
