<?xml version="1.0" encoding="UTF-8"?>
<svg id="Layer_1" xmlns="http://www.w3.org/2000/svg" version="1.1" viewBox="0 0 448 121">
  <!-- Generator: Adobe Illustrator 29.3.0, SVG Export Plug-In . SVG Version: 2.1.0 Build 146)  -->
  <defs>
    <style>
      .st0 {
        fill: #004097;
      }
    </style>
  </defs>
  <path class="st0" d="M222.2,63.6v11.2h-15c9.5,7.6,14.9,17.3,6,28.1-12,14.5-44.6,15.2-61,9.4-19.5-6.9-28-24-8.6-37.5h-17.2v-11.2h95.9ZM170.4,78.1c-22.8,2.1-28.9,19.7-4.5,24.3,8.8,1.7,33.5,1.1,33.9-11.4.4-12-21-13.7-29.4-12.9h0Z"/>
  <path class="st0" d="M401.2,33.6h15V14.1h17.2v51h-17.2v-20.2h-13.9c-6,14.5-20.6,21.5-35.9,20.2-16.9-1.4-33.9-15.4-27-33.7,9.2-24.2,54.5-23.7,61.8,2.2h0ZM366.6,25.5c-4.8.8-9.3,4.8-10.8,9.4-5.1,15.6,16.6,25.6,26.4,12.9,8.9-11.6-2.1-24.6-15.6-22.3h0Z"/>
  <path class="st0" d="M184,5.8v9.8h36.7v11.2h-11.2c.5,2.6,2.8,4,3.4,6.7,5.1,22.1-27.4,27.3-42.8,26.3-17.3-1.1-44.1-12-28.8-33h-12v-11.2h36.3c2.2-2.4.7-6.6,1.1-9.8h17.2ZM155.8,32.3c-8,8.9,5.1,15.3,12.9,16.2s31.8-.2,27.7-13.4c-3.3-10.6-33.7-10.4-40.6-2.7h0Z"/>
  <path class="st0" d="M368.3,70.3l.7,8.7,47.2.3c.6-.6-1.2-7.8,1.1-9h16.1v39h-78.2c-.8,0-3.4-2.6-3.4-3.4v-35.6h16.5,0ZM416.2,90.6h-46.8c-2,1.6-.9,4.5-1.1,6.8h47.9v-6.8h0Z"/>
  <path class="st0" d="M82.2,15.6v11.2h-24c-.2,16.6,8.1,29.8,23.2,36.4l-8,8.5c-10.2-3.6-20.6-11.8-24.2-22.4-5.5,8.1-18.1,19.9-27.7,22.2-2.8.7-6.3-6.9-9-8.3,15.3-7.1,26.4-18.6,26.9-36.4H14.8v-11.2h67.4Z"/>
  <path class="st0" d="M238,26.8v-11.2h49c9.2,0,2.9,21.3,1.5,26.2-6.4,22.3-20.3,44.5-39.7,57.5-1.7-1.6-12.8-6.7-12.4-8.4,16.5-12.3,29.9-30.7,35.6-50.6.8-2.8,2.5-8.4,2.6-11,0-.9-.3-2.5-1.1-2.5h-35.6Z"/>
  <rect class="st0" x="305.4" y="13.3" width="16.5" height="96"/>
  <path class="st0" d="M42.5,77.8v21h65.1v11.2H27.9c-.2,0-2.6-2.4-2.6-2.6v-29.6h17.2Z"/>
  <rect class="st0" x="90.4" y="13.3" width="17.2" height="67.5"/>
</svg>