<svg width="160" height="160" viewBox="0 0 160 160" fill="none" xmlns="http://www.w3.org/2000/svg">
<path d="M13.8981 52.8768C14.066 52.4053 14.042 51.9497 13.7462 51.5261C13.3385 50.9587 12.7309 50.7589 12.0914 50.671C11.5158 50.591 10.9482 50.6869 10.3886 50.8708C9.67716 51.1025 9.07759 51.4942 8.67788 52.1256C8.27018 52.7649 8.2382 53.4523 8.75782 54.0277C8.95768 54.2515 9.19751 54.4193 9.46131 54.5392C10.3886 54.9628 11.5878 54.779 12.4671 54.3314C13.1067 54.0037 13.6503 53.5722 13.9061 52.8608L13.8981 52.8768Z" fill="white"/>
<path d="M12.1233 48.9684C12.499 48.5928 12.6989 48.1612 12.6189 47.6257C12.539 47.1302 12.2832 46.7466 11.8995 46.4429C11.0521 45.7715 10.0768 45.5477 9.02156 45.7076C8.35004 45.8115 7.61458 46.2031 7.29481 46.7945C7.13493 47.0903 7.07097 47.4339 7.1749 47.8256C7.3108 48.361 7.65455 48.7527 8.10222 49.0484C8.90964 49.5759 9.79699 49.7517 10.7483 49.5998C11.2599 49.5199 11.7476 49.3601 12.1313 48.9764L12.1233 48.9684Z" fill="white"/>
<path d="M17.4876 38.3949C17.4876 38.3949 17.4316 38.3709 17.4076 38.3629C16.5762 38.0752 15.7688 38.6107 15.513 39.4099C15.3691 39.8574 15.3531 40.321 15.4091 40.7846C15.521 41.7276 15.8967 42.5509 16.5842 43.2142C16.856 43.478 17.1758 43.6618 17.5435 43.7177C18.1351 43.8136 18.6227 43.5339 18.8945 42.9824C19.2463 42.2631 19.2623 41.5039 19.0784 40.7446C18.8706 39.8974 18.3749 38.7385 17.4956 38.3789L17.4876 38.3949Z" fill="white"/>
<path d="M14.6815 43.9572C14.7135 43.8133 14.7214 43.5256 14.6655 43.2459C14.4816 42.2388 13.938 41.4636 13.0906 40.9041C12.6589 40.6244 12.2033 40.4166 11.6677 40.4486C11.0041 40.4805 10.5805 40.7603 10.3486 41.3837C10.2207 41.7353 10.2367 42.103 10.3087 42.4546C10.4765 43.2698 10.8922 43.9412 11.5398 44.4607C12.0034 44.8363 12.5071 45.1161 13.1226 45.156C13.898 45.204 14.4736 44.8044 14.6815 43.9572Z" fill="white"/>
<path d="M32.8283 28.1964C33.6517 27.3972 34.4431 26.6219 35.2106 25.8787C35.978 25.1354 36.6815 24.4401 37.3291 23.8007C37.5289 23.6009 37.7288 23.5129 37.9286 23.5529C38.1285 23.5929 38.3203 23.7128 38.5042 23.9126C38.736 24.1683 38.8479 24.4001 38.8479 24.6159C38.8479 24.8317 38.752 25.0315 38.5761 25.2153C37.8407 25.9746 37.0333 26.7978 36.1539 27.6769C35.2825 28.5561 34.3792 29.4432 33.4599 30.3544C32.5405 31.2655 31.6212 32.1606 30.6939 33.0557C29.7745 33.9509 28.9032 34.7901 28.0878 35.5813C27.6881 35.9889 27.2564 35.941 26.7927 35.4375C26.5689 35.1977 26.4569 34.9739 26.449 34.7661C26.441 34.5583 26.5449 34.3425 26.7687 34.1187C27.4402 33.4634 28.1437 32.776 28.8712 32.0567C29.6067 31.3454 30.3501 30.6181 31.1096 29.8748L29.9904 28.66C29.4068 29.2354 28.8552 29.7789 28.3276 30.2904C27.8 30.7939 27.3443 31.2255 26.9606 31.5852C26.6408 31.8809 26.2891 32.0327 25.9053 32.0407C25.5216 32.0487 25.1539 31.8889 24.8101 31.5612C24.1786 30.9218 23.5471 30.2425 22.8995 29.5232C22.252 28.8038 21.6285 28.1005 21.0369 27.4372C20.837 27.2214 20.7251 27.0216 20.7091 26.8537C20.6931 26.6859 20.7971 26.5021 21.0129 26.2943C21.7164 25.6229 22.4519 24.9276 23.2113 24.1923C23.9787 23.457 24.7462 22.7217 25.5296 21.9784C26.3131 21.2351 27.0805 20.5158 27.8399 19.7965C28.5994 19.0852 29.3429 18.3979 30.0543 17.7425C30.4061 17.4228 30.7818 17.4788 31.1895 17.9183C31.4213 18.1741 31.5572 18.3899 31.6052 18.5817C31.6532 18.7735 31.5652 18.9733 31.3574 19.1891C31.0936 19.4529 30.7578 19.7805 30.3501 20.1802C29.9424 20.5798 29.4947 21.0034 29.0151 21.4589C28.5354 21.9145 28.0318 22.394 27.5122 22.8895C26.9926 23.3851 26.4969 23.8726 26.0013 24.3441C25.5136 24.8157 25.058 25.2553 24.6343 25.6629C24.2106 26.0705 23.8508 26.4142 23.5551 26.6859C23.8988 27.0775 24.2985 27.5251 24.7462 28.0286C25.1939 28.5241 25.6096 28.9877 25.9773 29.4193C26.0972 29.5471 26.2171 29.5631 26.321 29.4672C26.5928 29.2115 26.9366 28.8918 27.3443 28.4921C27.752 28.1005 28.1917 27.6689 28.6633 27.2134C29.135 26.7578 29.6226 26.2863 30.1263 25.7907C30.6299 25.2952 31.1096 24.8237 31.5892 24.3681C32.0609 23.9126 32.4926 23.489 32.8923 23.0894C33.292 22.6977 33.6197 22.3621 33.8836 22.0983C34.0914 21.8825 34.2753 21.7786 34.4352 21.7706C34.595 21.7706 34.8029 21.8825 35.0587 22.1143C35.3225 22.3541 35.4504 22.5858 35.4344 22.8016C35.4184 23.0174 35.3385 23.2172 35.1786 23.4011C34.7469 23.8806 34.2273 24.4321 33.6118 25.0555C32.9962 25.6789 32.3567 26.3182 31.6852 26.9816L32.8203 28.2124L32.8283 28.1964ZM41.6619 31.9528C41.8538 32.4883 41.9097 33.0557 41.8298 33.6552C41.7498 34.2546 41.542 34.87 41.2062 35.4934C40.8705 36.1168 40.3988 36.7322 39.7913 37.3316C39.1757 37.939 38.5602 38.4026 37.9526 38.7223C37.345 39.042 36.7535 39.2258 36.1699 39.2658C35.5943 39.3137 35.0427 39.2258 34.5231 39.002C34.0035 38.7782 33.5318 38.4426 33.1081 37.979C32.7324 37.5714 32.4526 37.1078 32.2687 36.5883C32.0849 36.0688 32.0129 35.5174 32.0609 34.9259C32.1088 34.3345 32.2767 33.7271 32.5885 33.1037C32.9003 32.4803 33.3559 31.8489 33.9715 31.2175C34.5551 30.6181 35.1466 30.1545 35.7542 29.8349C36.3618 29.5072 36.9533 29.3233 37.5449 29.2674C38.1365 29.2115 38.6961 29.2914 39.2397 29.4992C39.7833 29.715 40.2789 30.0427 40.7346 30.4982C41.1743 30.9298 41.478 31.4173 41.6539 31.9608L41.6619 31.9528ZM39.7273 33.855C39.7833 33.1517 39.5754 32.5442 39.0878 32.0407C38.5682 31.5212 37.9766 31.2974 37.3131 31.3694C36.6416 31.4413 35.962 31.8249 35.2666 32.5203C34.5391 33.2476 34.1554 33.9669 34.1154 34.6622C34.0754 35.3575 34.2833 35.933 34.7229 36.3965C35.2186 36.916 35.7942 37.1558 36.4417 37.1238C37.0892 37.0919 37.7767 36.7242 38.4882 36.0289C39.2477 35.2856 39.6554 34.5663 39.7193 33.863L39.7273 33.855Z" fill="white"/>
<path d="M52.0945 12.5876C52.0625 12.7554 51.9186 12.9233 51.6708 13.0831C51.4629 13.203 51.0952 13.4188 50.5676 13.7305C50.04 14.0422 49.4244 14.3859 48.7369 14.7695C48.0414 15.1531 47.3139 15.5607 46.5385 15.9923C45.7631 16.4239 45.0356 16.8315 44.3401 17.2071C43.6526 17.5828 43.045 17.9105 42.5094 18.2062C41.9818 18.4939 41.6141 18.6937 41.4142 18.7976C41.0305 18.9974 40.6788 19.0454 40.351 18.9415C40.0232 18.8376 39.7514 18.5978 39.5196 18.2142C39.3197 17.8625 39.1279 17.5268 38.944 17.1992C38.7601 16.8795 38.5763 16.5518 38.3924 16.2241C38.2085 15.8964 38.0247 15.5607 37.8328 15.2171C37.641 14.8734 37.4411 14.4898 37.2333 14.0822C36.9375 13.5147 37.0414 13.0831 37.545 12.7874C37.7769 12.6515 38.1766 12.4278 38.7362 12.124C39.2958 11.8203 39.9433 11.4687 40.6708 11.0691C41.3982 10.6774 42.1737 10.2618 42.9891 9.83026C43.8045 9.39867 44.5879 8.98307 45.3234 8.58346C46.0588 8.18384 46.7144 7.84018 47.2979 7.53647C47.8815 7.23276 48.3052 7.01697 48.569 6.8811C49.0167 6.64932 49.3604 6.75322 49.5843 7.18481C49.8641 7.72828 50.1039 8.18384 50.2878 8.5435C50.4796 8.91114 50.6555 9.24682 50.8154 9.56651C50.9833 9.8862 51.1432 10.2139 51.303 10.5576C51.4629 10.9012 51.6628 11.3168 51.8946 11.8044C52.0625 12.156 52.1184 12.4198 52.0785 12.5956L52.0945 12.5876ZM49.2885 12.2759C49.4644 12.188 49.4963 12.0521 49.4004 11.8603C49.2805 11.6365 49.1766 11.4287 49.0886 11.2529C48.9927 11.0771 48.9048 10.8932 48.8088 10.7174C48.7129 10.5416 48.609 10.3418 48.4811 10.118C48.3612 9.8942 48.2093 9.63045 48.0334 9.31875L39.7674 13.7944C39.9673 14.1461 40.1272 14.4418 40.2471 14.6816C40.375 14.9213 40.4869 15.1371 40.5988 15.3449C40.7107 15.5447 40.8226 15.7525 40.9266 15.9524C41.0305 16.1602 41.1664 16.3919 41.3183 16.6717L49.2805 12.2759H49.2885ZM49.5283 19.7567C50.2398 19.3571 50.9513 18.9575 51.6468 18.5738C52.3423 18.1902 53.0298 17.8066 53.6853 17.4309C53.8292 17.359 53.9651 17.335 54.093 17.359C54.2129 17.391 54.3248 17.4949 54.4208 17.6787C54.6686 18.1582 54.9164 18.6777 55.1722 19.2532C55.428 19.8286 55.6599 20.3561 55.8757 20.8277C55.9876 21.1074 56.0196 21.3312 55.9716 21.499C55.9237 21.6668 55.7558 21.8347 55.476 21.9945C54.9484 22.2982 54.3408 22.6419 53.6613 23.0175C52.9818 23.3932 52.2863 23.7848 51.5828 24.1844C50.8713 24.584 50.1679 24.9836 49.4644 25.3673C48.7609 25.7589 48.1134 26.1186 47.5298 26.4542C47.6497 26.646 47.7296 26.7899 47.7776 26.8938C47.8256 26.9897 47.9135 27.1496 48.0414 27.3494C48.649 27.0377 49.3125 26.686 50.032 26.2944C50.7514 25.9108 51.4789 25.5191 52.2304 25.1195C52.9818 24.7199 53.7253 24.3283 54.4607 23.9287C55.1962 23.5291 55.8917 23.1534 56.5472 22.8018C56.7471 22.6979 56.915 22.6899 57.0589 22.7618C57.2028 22.8337 57.3307 22.9936 57.4426 23.2174C57.5625 23.4411 57.6264 23.6569 57.6504 23.8567C57.6664 24.0565 57.5625 24.2244 57.3307 24.3603C55.8038 25.2314 54.2769 26.0786 52.758 26.8938C51.2391 27.709 49.6962 28.5162 48.1293 29.3235C47.6657 29.5632 47.2979 29.6432 47.0421 29.5552C46.7863 29.4673 46.5305 29.2276 46.2827 28.812C46.0508 28.4283 45.835 28.0687 45.6352 27.733C45.4353 27.3973 45.2354 27.0297 45.0276 26.6381C44.9556 26.4942 44.9157 26.3583 44.9157 26.2464C44.9157 26.1265 44.9796 26.0306 45.1235 25.9427C45.6431 25.639 46.2747 25.2794 47.0341 24.8558C47.7856 24.4322 48.569 23.9926 49.3764 23.545C50.1838 23.0975 50.9673 22.6579 51.7267 22.2423C52.4862 21.8267 53.1177 21.467 53.6214 21.1793C53.5174 20.9475 53.4215 20.7397 53.3256 20.5639C53.2296 20.3881 53.1257 20.1723 52.9978 19.9405C52.4302 20.2682 51.7667 20.6438 51.0073 21.0674C50.2558 21.491 49.4804 21.9226 48.7049 22.3622C47.9295 22.8018 47.154 23.2333 46.4026 23.6569C45.6511 24.0805 44.9796 24.4482 44.404 24.7679C44.1962 24.8957 44.0203 24.9197 43.8764 24.8638C43.7325 24.8078 43.5726 24.632 43.3968 24.3283C43.2289 24.0326 43.157 23.7928 43.2049 23.609C43.2449 23.4252 43.3728 23.2733 43.5966 23.1454C44.1802 22.8097 44.7958 22.4581 45.4353 22.0984C46.0748 21.7308 46.7463 21.3551 47.4498 20.9555L46.6984 19.5009C45.7551 20.0204 44.8357 20.5239 43.9404 21.0115C43.045 21.499 42.1817 21.9785 41.3583 22.4341C40.8706 22.7218 40.4709 22.57 40.1671 21.9865C40.0152 21.6988 39.9673 21.459 40.0232 21.2672C40.0792 21.0834 40.2391 20.9076 40.5109 20.7477C41.5261 20.1723 42.6054 19.5729 43.7485 18.9335C44.8917 18.3021 46.0269 17.6707 47.17 17.0393C48.3052 16.4079 49.4084 15.8005 50.4876 15.2091C51.5668 14.6176 52.5421 14.0822 53.4295 13.5866C53.8852 13.3309 54.2449 13.4588 54.5087 13.9623C54.6686 14.266 54.7086 14.5137 54.6446 14.7135C54.5807 14.9054 54.4368 15.0732 54.2129 15.2011C53.4055 15.6886 52.5421 16.1921 51.6308 16.7116C50.7195 17.2311 49.7681 17.7666 48.7929 18.3101L49.5443 19.7647L49.5283 19.7567Z" fill="white"/>
<path d="M67.4991 16.9041C68.4104 16.6644 69.3058 16.4326 70.1851 16.2008C71.0645 15.969 71.9358 15.7532 72.7912 15.5374C73.063 15.4655 73.2789 15.4975 73.4308 15.6413C73.5826 15.7852 73.6866 15.985 73.7425 16.2488C73.8145 16.5844 73.7905 16.8482 73.6786 17.032C73.5667 17.2158 73.3908 17.3517 73.143 17.4316C71.0885 18.039 68.986 18.6385 66.8276 19.2219C64.6691 19.8053 62.4787 20.3728 60.2403 20.9083C59.6887 21.0282 59.337 20.7484 59.1931 20.0771C59.1212 19.7574 59.1371 19.5016 59.2331 19.3098C59.329 19.118 59.5289 18.9901 59.8326 18.9102C60.744 18.6864 61.6393 18.4546 62.5187 18.2149C63.398 17.9831 64.2774 17.7433 65.1568 17.5115L64.5092 14.5144C63.5499 14.7542 62.7026 14.946 61.9671 15.1059C61.2316 15.2657 60.736 15.3696 60.4882 15.4256C59.9366 15.5454 59.4969 15.5215 59.1691 15.3616C58.8414 15.2018 58.5935 14.7942 58.4257 14.1228C58.2818 13.5873 58.1219 12.9719 57.946 12.2686C57.7701 11.5653 57.5863 10.83 57.3944 10.0627C57.2025 9.29546 57.0027 8.52021 56.8108 7.73697C56.619 6.95372 56.4431 6.20244 56.2912 5.46715C56.2273 5.17943 56.2592 4.93167 56.3951 4.72387C56.523 4.52406 56.8028 4.36422 57.2265 4.26032C57.6902 4.14843 58.018 4.14043 58.2098 4.26032C58.4017 4.37221 58.5376 4.57202 58.6095 4.85974C58.7374 5.37924 58.8653 5.90673 58.9932 6.43422C59.1212 6.96171 59.2491 7.4892 59.377 8.0087C60.8639 7.62507 62.3828 7.24144 63.9257 6.84982C65.4685 6.4582 66.9715 6.07457 68.4504 5.69094C68.3544 5.25136 68.2585 4.81179 68.1626 4.35622C68.0667 3.90066 67.9627 3.38916 67.8508 2.79773C67.7149 2.15834 68.0427 1.75074 68.8501 1.57491C69.2578 1.48699 69.5696 1.49498 69.7694 1.59089C69.9773 1.69479 70.1052 1.88661 70.1691 2.18232C70.313 2.86966 70.4729 3.62093 70.6328 4.44414C70.7927 5.26735 70.9526 6.09855 71.1124 6.94573C71.2723 7.79291 71.4242 8.6401 71.5761 9.47929C71.728 10.3185 71.8719 11.0937 72.0078 11.813C72.0558 12.1247 72.0158 12.3565 71.8799 12.5164C71.744 12.6762 71.5281 12.8041 71.2324 12.9C70.8486 13.0119 70.2491 13.1637 69.4497 13.3556C68.6502 13.5394 67.7789 13.7472 66.8355 13.963L67.4671 16.8961L67.4991 16.9041ZM60.2803 11.7491C60.4082 12.2846 60.5441 12.8041 60.688 13.3076C60.8159 13.2756 61.1037 13.2117 61.5354 13.1158C61.9751 13.0199 62.4867 12.9 63.0703 12.7641C63.6539 12.6283 64.2854 12.4844 64.9489 12.3245C65.6124 12.1647 66.228 12.0208 66.8116 11.877C67.3951 11.7411 67.8988 11.6212 68.3385 11.5173C68.7781 11.4134 69.0659 11.3495 69.2098 11.3175C69.3297 11.2935 69.4177 11.2456 69.4896 11.1657C69.5536 11.0937 69.5776 10.9738 69.5376 10.814C69.4177 10.1986 69.3058 9.64712 69.2018 9.15959C69.0979 8.67206 69.002 8.20052 68.922 7.74496C67.4351 8.12859 65.9162 8.51222 64.3893 8.90384C62.8544 9.29546 61.3515 9.67909 59.8726 10.0547C60.0085 10.6302 60.1524 11.1976 60.2803 11.7491Z" fill="white"/>
<path d="M84.3428 16.0405C85.3261 16.0405 86.2934 16.0485 87.2367 16.0645C88.18 16.0725 89.0994 16.0885 89.9947 16.0965C90.2745 16.0965 90.4744 16.1764 90.5863 16.3522C90.6982 16.5201 90.7462 16.7439 90.7302 17.0076C90.7142 17.3513 90.6263 17.591 90.4664 17.7349C90.3065 17.8788 90.1066 17.9587 89.8508 17.9747C87.7084 18.0306 85.526 18.0706 83.2876 18.0786C81.0492 18.0866 78.7868 18.0626 76.4925 18.0146C75.9249 17.9827 75.6611 17.639 75.6931 16.9676C75.7091 16.64 75.789 16.4002 75.9329 16.2483C76.0768 16.0965 76.3007 16.0246 76.6124 16.0246C77.5078 16.0405 78.4031 16.0485 79.2905 16.0485C80.1778 16.0485 81.0652 16.0485 81.9446 16.0485L82.0485 13.8986C81.289 13.7867 80.6095 13.5709 79.994 13.2592C79.3784 12.9475 78.8668 12.5559 78.4511 12.0923C78.0354 11.6288 77.7156 11.1013 77.5078 10.5099C77.2999 9.91844 77.212 9.28705 77.244 8.6157C77.268 8.16813 77.3479 7.73654 77.4838 7.32894C77.6197 6.92133 77.8116 6.5377 78.0434 6.19403C78.2752 5.85036 78.539 5.54665 78.8268 5.2909C79.1146 5.03515 79.4184 4.85132 79.7382 4.73144C79.5703 4.73144 79.3305 4.73144 78.9947 4.73144C78.6669 4.72345 78.3312 4.71545 77.9794 4.69947C77.6277 4.69148 77.3079 4.68349 77.0041 4.67549C76.7084 4.67549 76.5085 4.65951 76.4206 4.65951C76.1488 4.65951 75.9409 4.60356 75.789 4.48368C75.6371 4.36379 75.5652 4.13202 75.5652 3.78835C75.5652 3.4287 75.6531 3.17294 75.813 3.0131C75.9729 2.85325 76.1807 2.78132 76.4206 2.77333C76.6764 2.77333 77.0041 2.77333 77.4198 2.77333C77.8275 2.77333 78.2912 2.78132 78.8108 2.78931C79.3225 2.78931 79.8821 2.8053 80.4816 2.81329C81.0812 2.82927 81.6967 2.83726 82.3363 2.83726C82.3363 2.47761 82.3443 2.14993 82.3523 1.83823C82.3523 1.53452 82.3682 1.27078 82.3762 1.06298C82.3762 0.719307 82.4562 0.455561 82.6161 0.27973C82.7759 0.1039 83.0957 0.0079923 83.5674 0C84.103 0 84.4467 0.0719307 84.5826 0.231777C84.7265 0.391622 84.7905 0.66336 84.7905 1.04699C84.7825 1.22282 84.7665 1.47857 84.7505 1.80626C84.7345 2.13394 84.7265 2.4936 84.7185 2.87723C85.3581 2.89321 85.9816 2.9092 86.5892 2.92518C87.1967 2.94116 87.7563 2.95715 88.276 2.96514C88.7956 2.97313 89.2592 2.98113 89.667 2.98912C90.0667 2.98912 90.4024 2.98912 90.6502 2.98912C90.946 2.98912 91.1619 3.04506 91.2978 3.16495C91.4337 3.28483 91.4976 3.5246 91.4976 3.88426C91.4976 4.22792 91.4177 4.4597 91.2738 4.57959C91.1219 4.69947 90.8981 4.76341 90.5783 4.77939C90.4904 4.77939 90.2905 4.7714 89.9867 4.76341C89.6829 4.76341 89.3472 4.74742 88.9874 4.73943C88.6277 4.73144 88.2919 4.71545 87.9722 4.70746C87.6524 4.69947 87.4206 4.69148 87.2927 4.68349C87.9962 5.01916 88.5478 5.56264 88.9635 6.32191C89.3712 7.08117 89.571 7.92836 89.555 8.87145C89.539 9.51083 89.4031 10.1182 89.1393 10.6777C88.8755 11.2372 88.5238 11.7407 88.0761 12.1723C87.6284 12.6039 87.0928 12.9715 86.4773 13.2672C85.8537 13.5629 85.1742 13.7707 84.4148 13.8826L84.3108 16.0325L84.3428 16.0405ZM86.1255 11.2212C86.4853 10.8935 86.7731 10.5099 86.9809 10.0543C87.1887 9.59875 87.3007 9.09523 87.3167 8.52778C87.3246 7.97631 87.2367 7.4728 87.0448 7.00924C86.853 6.54569 86.5892 6.16206 86.2534 5.84237C85.9177 5.52268 85.518 5.26692 85.0543 5.09109C84.5906 4.91526 84.095 4.81935 83.5594 4.80337C83.0078 4.78739 82.4882 4.8753 82.0085 5.05113C81.5289 5.22696 81.1132 5.48272 80.7454 5.8104C80.3857 6.13808 80.0979 6.52171 79.89 6.96928C79.6822 7.41685 79.5623 7.8884 79.5383 8.3999C79.5143 8.95137 79.5863 9.46288 79.7701 9.92643C79.946 10.39 80.2018 10.7896 80.5376 11.1173C80.8733 11.445 81.265 11.7087 81.7207 11.8925C82.1764 12.0764 82.672 12.1803 83.2076 12.1883C83.7912 12.2042 84.3348 12.1243 84.8305 11.9565C85.3341 11.7886 85.7658 11.5489 86.1255 11.2372V11.2212Z" fill="white"/>
<path d="M100.899 8.35926C100.771 8.77486 100.651 9.15849 100.531 9.51015C100.915 10.3174 101.315 11.1006 101.714 11.8519C102.122 12.6032 102.474 13.2905 102.785 13.8979C102.913 14.1617 102.969 14.4014 102.953 14.6172C102.937 14.833 102.801 15.0328 102.554 15.2167C102.282 15.4085 102.026 15.5044 101.794 15.5044C101.562 15.5044 101.362 15.3765 101.219 15.1207C100.803 14.4414 100.427 13.802 100.091 13.1866C99.7557 12.5712 99.3799 11.8759 98.9722 11.0926C98.1568 11.724 97.3974 12.2755 96.7099 12.731C96.0144 13.1866 95.3269 13.6182 94.6394 14.0098C94.3676 14.1697 94.1038 14.1697 93.8479 14.0098C93.5921 13.85 93.4163 13.6262 93.3123 13.3385C93.2164 13.0667 93.2244 12.8509 93.3283 12.6911C93.4402 12.5312 93.6001 12.3794 93.808 12.2275C94.0798 12.0357 94.4075 11.8119 94.7833 11.5482C95.159 11.2844 95.5587 11.0047 95.9664 10.709C96.3741 10.4133 96.7818 10.1176 97.1895 9.82985C97.5972 9.53413 97.965 9.2544 98.2927 8.99065C98.5246 8.23139 98.7644 7.40818 99.0202 6.52103C99.276 5.63389 99.5078 4.84265 99.7077 4.15532C99.8036 3.82763 99.9555 3.59585 100.155 3.46798C100.355 3.3401 100.691 3.3401 101.147 3.46798C101.666 3.61184 101.97 3.77968 102.05 3.9635C102.138 4.14732 102.122 4.42705 102.01 4.80269C101.898 5.13038 101.786 5.49003 101.658 5.88964C101.538 6.28926 101.41 6.69686 101.275 7.12046C101.139 7.53606 101.011 7.95166 100.883 8.36726L100.899 8.35926ZM107.91 25.0871C107.806 25.3829 107.654 25.5747 107.446 25.6466C107.238 25.7265 107.03 25.7345 106.831 25.6866C106.103 25.5027 105.336 25.2949 104.52 25.0632C103.705 24.8314 102.889 24.5916 102.058 24.3439C101.227 24.0881 100.419 23.8403 99.6278 23.5926C98.8363 23.3448 98.1168 23.113 97.4693 22.8893C97.1336 22.7774 96.9017 22.5616 96.7818 22.2659C96.6619 21.9622 96.6539 21.6345 96.7418 21.2748C96.8618 20.8432 96.9657 20.4436 97.0696 20.076C97.1735 19.7083 97.2775 19.3567 97.3894 19.013C97.5013 18.6693 97.6052 18.3257 97.7171 17.982C97.8291 17.6303 97.957 17.2547 98.0929 16.8471C98.2048 16.5194 98.3567 16.3276 98.5405 16.2636C98.7244 16.1997 99.0282 16.2237 99.4519 16.3356C99.8676 16.4475 100.155 16.5913 100.299 16.7672C100.443 16.943 100.467 17.1987 100.371 17.5264C100.291 17.7662 100.195 18.0539 100.091 18.3736C99.9875 18.7013 99.8756 19.037 99.7637 19.3726C99.6517 19.7083 99.5398 20.036 99.4439 20.3397C99.348 20.6434 99.268 20.8992 99.1961 21.099C99.1401 21.2668 99.1801 21.3787 99.324 21.4267C99.8676 21.5945 100.491 21.7943 101.203 22.0101C101.914 22.2259 102.642 22.4497 103.377 22.6735C104.112 22.8972 104.84 23.113 105.543 23.3288C106.247 23.5446 106.87 23.7444 107.406 23.9283C107.686 24.0242 107.87 24.16 107.95 24.3359C108.03 24.5117 108.014 24.7674 107.902 25.0871H107.91ZM105.392 9.13452C105.663 9.21444 105.927 9.28637 106.191 9.3583C106.495 8.39123 106.783 7.52806 107.078 6.77679C107.166 6.50505 107.31 6.33721 107.502 6.27327C107.694 6.20134 107.982 6.23331 108.389 6.3532C108.789 6.47308 109.045 6.64092 109.165 6.84073C109.285 7.04853 109.301 7.27231 109.221 7.51208C108.973 8.29532 108.685 9.14251 108.373 10.0616C108.062 10.9807 107.75 11.8999 107.43 12.811C107.118 13.7301 106.807 14.6172 106.495 15.4804C106.183 16.3436 105.911 17.1028 105.663 17.7662C105.44 18.3656 105.008 18.5574 104.36 18.3336C103.729 18.1179 103.513 17.6703 103.729 17.0069C103.945 16.2876 104.208 15.4324 104.544 14.4254C104.872 13.4184 105.208 12.3874 105.559 11.3164C105.304 11.2445 105.032 11.1646 104.768 11.0766C104.496 10.9887 104.24 10.9168 104.009 10.8449C103.777 10.7729 103.569 10.709 103.401 10.661C103.233 10.6131 103.105 10.5731 103.033 10.5492C102.737 10.4453 102.562 10.3014 102.514 10.1016C102.466 9.90178 102.482 9.64602 102.578 9.33432C102.777 8.71092 103.121 8.47115 103.625 8.631C103.713 8.66297 103.841 8.69494 104.025 8.74289C104.208 8.79085 104.416 8.84679 104.648 8.91872C104.88 8.99065 105.136 9.06259 105.408 9.14251L105.392 9.13452ZM109.525 19.8682C109.261 20.4916 108.805 20.6754 108.158 20.4196C107.558 20.1959 107.366 19.7643 107.59 19.1169C107.726 18.7093 107.902 18.2138 108.11 17.6383C108.317 17.0629 108.533 16.4395 108.765 15.7841C108.997 15.1207 109.245 14.4414 109.501 13.7381C109.756 13.0348 110.004 12.3474 110.244 11.6761C110.484 10.9967 110.716 10.3573 110.94 9.74992C111.163 9.14251 111.363 8.59903 111.539 8.11949C111.643 7.85575 111.795 7.68791 111.987 7.60799C112.179 7.52806 112.474 7.56003 112.866 7.6959C113.258 7.84776 113.514 8.01559 113.626 8.20741C113.746 8.39922 113.761 8.61502 113.674 8.85478C113.394 9.63004 113.074 10.5092 112.722 11.5082C112.363 12.5073 111.995 13.5223 111.611 14.5453C111.227 15.5763 110.852 16.5594 110.484 17.4945C110.116 18.4296 109.796 19.2288 109.525 19.8762V19.8682Z" fill="white"/>
<path d="M114.409 22.7779C114.305 22.9217 114.313 23.0416 114.433 23.1295C114.921 23.4252 115.456 23.7609 116.04 24.1286C116.631 24.4962 117.223 24.8718 117.822 25.2555C118.422 25.6311 119.014 26.0068 119.597 26.3744C120.181 26.742 120.716 27.0697 121.196 27.3654C121.452 27.5173 121.596 27.6771 121.62 27.853C121.644 28.0288 121.564 28.2606 121.388 28.5563C121.204 28.86 121.004 29.0278 120.796 29.0518C120.588 29.0758 120.373 29.0278 120.165 28.9159C118.862 28.1727 117.551 27.4054 116.232 26.5982C114.913 25.799 113.673 24.9997 112.514 24.2165C112.155 23.9767 111.931 23.665 111.851 23.2814C111.771 22.8978 111.851 22.5061 112.107 22.0985C112.266 21.8508 112.522 21.4671 112.874 20.9636C113.226 20.4601 113.617 19.8926 114.065 19.2613C114.513 18.6299 114.984 17.9665 115.48 17.2712C115.976 16.5758 116.439 15.9125 116.895 15.2811C117.343 14.6497 117.75 14.0822 118.102 13.5867C118.462 13.0912 118.726 12.7236 118.902 12.4838C119.078 12.244 119.245 12.1002 119.397 12.0602C119.557 12.0202 119.765 12.0762 120.013 12.244C121.18 13.0193 122.411 13.8345 123.698 14.6897C124.985 15.5448 126.24 16.4 127.471 17.2472C127.855 17.5269 127.863 17.9265 127.487 18.446C127.288 18.7258 127.104 18.8936 126.944 18.9496C126.784 19.0055 126.568 18.9576 126.312 18.8137C125.817 18.51 125.297 18.1823 124.769 17.8386C124.234 17.495 123.706 17.1513 123.171 16.8076C122.635 16.464 122.107 16.1283 121.588 15.7846C121.068 15.4489 120.58 15.1212 120.125 14.8095C120.053 14.9055 119.941 15.0653 119.781 15.2891C119.621 15.5129 119.421 15.7846 119.197 16.1123C118.974 16.44 118.718 16.7916 118.446 17.1753C118.174 17.5589 117.886 17.9425 117.599 18.3421C118.422 18.8856 119.261 19.4451 120.125 20.0285C120.98 20.612 121.804 21.1714 122.595 21.7069C122.811 21.8667 122.923 22.0346 122.923 22.2184C122.923 22.4022 122.827 22.618 122.635 22.8658C122.419 23.1375 122.227 23.2974 122.051 23.3453C121.875 23.3933 121.66 23.3453 121.404 23.1935C120.62 22.7219 119.797 22.2024 118.926 21.635C118.054 21.0675 117.215 20.516 116.415 19.9726C116.16 20.3242 115.92 20.6599 115.696 20.9716C115.472 21.2833 115.264 21.571 115.08 21.8268C114.897 22.0825 114.745 22.2983 114.633 22.4662C114.521 22.634 114.441 22.7539 114.409 22.8018V22.7779ZM126.608 23.673C126.872 23.8408 127.128 24.0087 127.376 24.1765C127.887 23.5132 128.391 22.8658 128.886 22.2184C129.382 21.571 129.886 20.9237 130.397 20.2603C130.645 19.9406 130.893 19.7648 131.149 19.7408C131.405 19.7168 131.708 19.8287 132.068 20.0925C132.7 20.548 132.78 21.0915 132.316 21.7389C131.588 22.7219 130.829 23.7289 130.046 24.7679C129.262 25.799 128.471 26.83 127.679 27.853C126.888 28.876 126.096 29.867 125.305 30.8501C124.514 31.8251 123.754 32.7443 123.019 33.6154C122.739 33.9511 122.467 34.1189 122.203 34.1269C121.939 34.1349 121.684 34.039 121.452 33.8312C121.204 33.6154 121.076 33.3757 121.068 33.1119C121.068 32.8482 121.204 32.5285 121.484 32.1368C123.003 30.0349 124.554 27.9329 126.128 25.8309C125.881 25.6711 125.625 25.5032 125.361 25.3274C125.097 25.1596 124.849 24.9917 124.625 24.8399C124.394 24.68 124.194 24.5442 124.026 24.4323C123.85 24.3124 123.73 24.2325 123.658 24.1765C123.402 23.9927 123.282 23.8009 123.29 23.5931C123.298 23.3933 123.394 23.1535 123.578 22.8738C123.954 22.3303 124.354 22.2104 124.785 22.5061C124.873 22.5701 125.009 22.658 125.201 22.7779C125.393 22.8978 125.609 23.0336 125.857 23.1935C126.104 23.3533 126.352 23.5211 126.616 23.689L126.608 23.673Z" fill="white"/>
<path d="M141.318 71.9627C140.758 71.8588 140.238 71.627 139.759 71.2673C139.279 70.8997 138.847 70.4202 138.472 69.8207C138.096 69.2213 137.8 68.502 137.576 67.6868C137.352 66.8476 137.256 66.0883 137.28 65.401C137.304 64.7137 137.44 64.1062 137.688 63.5867C137.936 63.0672 138.288 62.6277 138.735 62.292C139.183 61.9483 139.719 61.7086 140.326 61.5727C140.862 61.4528 141.405 61.4368 141.949 61.5327C142.493 61.6286 143.012 61.8444 143.5 62.1721C143.988 62.4998 144.427 62.9554 144.819 63.5308C145.211 64.1062 145.53 64.8176 145.77 65.6647C146.002 66.472 146.106 67.2153 146.09 67.8946C146.074 68.5819 145.938 69.1893 145.698 69.7328C145.459 70.2683 145.107 70.7239 144.651 71.0835C144.195 71.4512 143.66 71.7149 143.044 71.8907C142.453 72.0586 141.877 72.0826 141.318 71.9627ZM140.622 69.3412C141.206 69.7408 141.837 69.8607 142.517 69.6849C143.22 69.4931 143.716 69.0854 143.988 68.478C144.259 67.8626 144.267 67.0794 144.004 66.1363C143.732 65.1452 143.3 64.4579 142.716 64.0823C142.133 63.7066 141.525 63.5947 140.91 63.7466C140.214 63.9224 139.719 64.2981 139.423 64.8815C139.127 65.4649 139.103 66.2402 139.359 67.2073C139.623 68.2303 140.046 68.9496 140.63 69.3492L140.622 69.3412ZM148.968 66.1603C149.256 67.2712 149.528 68.3422 149.799 69.3812C150.063 70.4122 150.319 71.3712 150.551 72.2504C150.631 72.5221 150.599 72.7379 150.471 72.8898C150.335 73.0416 150.143 73.1535 149.879 73.2095C149.544 73.2894 149.288 73.2734 149.096 73.1615C148.912 73.0496 148.784 72.8738 148.712 72.626C148.416 71.611 148.105 70.5001 147.777 69.3012C147.449 68.1024 147.121 66.8876 146.786 65.6408C146.45 64.394 146.13 63.1472 145.81 61.9004C145.49 60.6536 145.195 59.4867 144.915 58.3918C144.755 57.8483 145.011 57.4966 145.682 57.3448C146.002 57.2728 146.25 57.2808 146.434 57.3767C146.618 57.4726 146.754 57.6724 146.834 57.9762C147.073 58.8873 147.321 59.8384 147.577 60.8214C147.833 61.8125 148.097 62.8195 148.36 63.8425L149.975 63.4749C149.759 62.6836 149.568 61.9323 149.392 61.221C149.216 60.5097 149.064 59.9023 148.952 59.3908C148.856 58.9672 148.896 58.5916 149.08 58.2479C149.264 57.9042 149.584 57.6724 150.039 57.5366C150.903 57.3048 151.814 57.089 152.765 56.8892C153.717 56.6894 154.628 56.4896 155.499 56.3058C155.787 56.2418 156.011 56.2418 156.163 56.3058C156.315 56.3697 156.427 56.5615 156.498 56.8492C156.73 57.7923 156.978 58.7754 157.234 59.8064C157.49 60.8374 157.746 61.8684 158.001 62.9154C158.257 63.9544 158.505 64.9854 158.745 66.0084C158.985 67.0234 159.217 68.0065 159.432 68.9496C159.536 69.4131 159.304 69.7168 158.721 69.8447C158.385 69.9246 158.121 69.9326 157.937 69.8767C157.746 69.8207 157.61 69.6449 157.53 69.3652C157.434 69.0055 157.314 68.55 157.17 67.9985C157.026 67.447 156.882 66.8476 156.722 66.2082C156.562 65.5608 156.403 64.8895 156.227 64.1942C156.051 63.4988 155.883 62.8275 155.715 62.1641C155.547 61.5087 155.395 60.8933 155.243 60.3179C155.092 59.7425 154.98 59.2629 154.892 58.8713C154.38 58.9752 153.796 59.0951 153.141 59.2389C152.485 59.3828 151.878 59.5107 151.326 59.6226C151.15 59.6625 151.078 59.7584 151.11 59.9023C151.198 60.2699 151.31 60.7255 151.446 61.269C151.59 61.8204 151.742 62.4119 151.902 63.0513C152.062 63.6906 152.23 64.346 152.413 65.0254C152.597 65.7047 152.765 66.3601 152.925 66.9995C153.085 67.6308 153.237 68.2223 153.389 68.7658C153.533 69.3012 153.661 69.7568 153.756 70.1165C153.836 70.4042 153.844 70.62 153.764 70.7558C153.693 70.8997 153.485 71.0196 153.157 71.1235C152.813 71.2354 152.557 71.2274 152.373 71.1075C152.19 70.9876 152.062 70.8118 151.982 70.588C151.782 69.9726 151.558 69.2533 151.318 68.4061C151.078 67.5669 150.839 66.6878 150.599 65.7766L148.96 66.1523L148.968 66.1603Z" fill="white"/>
<path d="M148.009 84.831C148.009 85.6542 148.001 86.4614 147.985 87.2607C147.977 88.0599 147.969 88.8431 147.969 89.6024C147.969 89.7703 147.913 89.8981 147.833 89.986C147.753 90.074 147.601 90.1219 147.393 90.1139C146.857 90.0899 146.274 90.05 145.65 89.986C145.027 89.9221 144.451 89.8662 143.932 89.8182C143.636 89.7782 143.428 89.6903 143.3 89.5704C143.18 89.4426 143.116 89.2188 143.116 88.8911C143.116 88.2757 143.116 87.5884 143.116 86.8051C143.124 86.0299 143.132 85.2386 143.132 84.4234C143.132 83.6082 143.14 82.801 143.156 81.9938C143.172 81.1865 143.172 80.4512 143.164 79.7799C142.94 79.7799 142.772 79.7799 142.66 79.7799C142.549 79.7799 142.373 79.7799 142.133 79.7799C142.101 80.4672 142.085 81.2185 142.061 82.0257C142.045 82.8409 142.021 83.6721 141.997 84.5193C141.973 85.3665 141.949 86.2137 141.925 87.0449C141.901 87.8761 141.893 88.6673 141.877 89.4186C141.869 89.6424 141.797 89.7942 141.653 89.8821C141.517 89.9701 141.317 90.002 141.07 89.994C140.814 89.986 140.598 89.9381 140.414 89.8582C140.23 89.7782 140.134 89.6024 140.134 89.3307C140.134 87.5644 140.15 85.8301 140.198 84.1037C140.246 82.3854 140.302 80.6431 140.374 78.8847C140.398 78.3653 140.51 78.0056 140.71 77.8218C140.91 77.6379 141.253 77.534 141.733 77.5261C142.181 77.5181 142.596 77.5021 142.988 77.5021C143.38 77.5021 143.796 77.5021 144.243 77.5181C144.411 77.5181 144.539 77.558 144.643 77.614C144.747 77.6699 144.803 77.7818 144.811 77.9417C144.811 78.5411 144.811 79.2684 144.811 80.1395C144.811 81.0027 144.795 81.8978 144.795 82.825C144.795 83.7521 144.779 84.6472 144.763 85.5104C144.747 86.3735 144.747 87.1008 144.755 87.6843C145.011 87.7082 145.235 87.7242 145.434 87.7322C145.634 87.7402 145.866 87.7482 146.138 87.7642C146.138 87.1088 146.138 86.3416 146.138 85.4784C146.138 84.6152 146.146 83.7361 146.154 82.8409C146.154 81.9458 146.162 81.0666 146.17 80.1955C146.17 79.3323 146.186 78.5651 146.194 77.9097C146.194 77.6699 146.25 77.5021 146.37 77.4062C146.49 77.3103 146.729 77.2543 147.073 77.2543C147.417 77.2543 147.657 77.3183 147.793 77.4381C147.929 77.566 148.001 77.7498 148.009 78.0056C148.009 78.6769 148.009 79.3803 148.009 80.1236C148.009 80.8668 148.009 81.6341 148.009 82.4413L149.639 82.5053C149.655 81.4343 149.671 80.3793 149.687 79.3643C149.711 78.3413 149.719 77.3582 149.727 76.4231C149.727 75.8557 150.047 75.5839 150.703 75.6079C151.03 75.6239 151.262 75.6958 151.398 75.8397C151.534 75.9755 151.606 76.2073 151.606 76.519C151.606 77.6859 151.598 78.9167 151.582 80.2275C151.566 81.5302 151.55 82.8329 151.534 84.1357C151.518 85.4304 151.502 86.6932 151.478 87.916C151.462 89.1389 151.446 90.2578 151.43 91.2728C151.43 91.7923 151.134 92.0481 150.567 92.0241C150.223 92.0081 149.983 91.9282 149.847 91.7683C149.711 91.6085 149.639 91.4087 149.639 91.1529C149.615 90.2098 149.607 89.2188 149.607 88.1638C149.607 87.1088 149.607 86.0219 149.631 84.9029L148.001 84.839L148.009 84.831ZM152.973 90.6094C152.845 90.4976 152.773 90.2977 152.749 89.994C152.749 89.7543 152.741 89.3307 152.733 88.7153C152.733 88.0999 152.733 87.4045 152.733 86.6133C152.733 85.8221 152.749 84.9829 152.757 84.0957C152.757 83.2086 152.773 82.3694 152.789 81.5861C152.805 80.8029 152.821 80.1076 152.829 79.5002C152.837 78.8927 152.845 78.4851 152.861 78.2614C152.877 77.8298 153.013 77.4941 153.261 77.2703C153.509 77.0385 153.86 76.9186 154.308 76.9107C154.708 76.9107 155.099 76.9107 155.475 76.9107H156.594C156.97 76.9107 157.354 76.9106 157.746 76.9266C158.137 76.9266 158.569 76.9506 159.033 76.9666C159.672 76.9906 160 77.2943 160 77.8777C160 78.1495 160 78.605 159.992 79.2444C159.984 79.8838 159.968 80.6191 159.944 81.4503C159.928 82.2815 159.904 83.1526 159.872 84.0797C159.84 85.0068 159.816 85.886 159.8 86.7172C159.784 87.5484 159.76 88.2997 159.736 88.955C159.712 89.6104 159.688 90.0899 159.68 90.3857C159.656 90.8892 159.4 91.1369 158.913 91.113C158.305 91.089 157.793 91.065 157.378 91.049C156.97 91.033 156.586 91.0171 156.227 91.0011C155.867 90.9851 155.499 90.9611 155.123 90.9371C154.74 90.9052 154.284 90.8732 153.748 90.8332C153.365 90.8013 153.101 90.7293 152.973 90.6015V90.6094ZM154.628 88.3236C154.628 88.5155 154.724 88.6194 154.932 88.6274C155.187 88.6353 155.411 88.6433 155.611 88.6593C155.811 88.6593 156.011 88.6753 156.219 88.6833C156.426 88.6913 156.65 88.6993 156.898 88.6993C157.154 88.6993 157.458 88.6993 157.817 88.6993L158.017 79.3003C157.618 79.3003 157.282 79.3003 157.01 79.2844C156.738 79.2764 156.49 79.2684 156.259 79.2684C156.027 79.2684 155.795 79.2684 155.563 79.2524C155.331 79.2444 155.059 79.2364 154.748 79.2444L154.628 88.3316V88.3236Z" fill="white"/>
<path d="M141.605 101.878C141.365 102.789 141.126 103.684 140.894 104.563C140.654 105.442 140.422 106.305 140.182 107.152C140.11 107.424 139.974 107.592 139.775 107.656C139.575 107.72 139.343 107.712 139.087 107.632C138.759 107.528 138.544 107.384 138.44 107.192C138.336 107.001 138.304 106.785 138.352 106.529C138.839 104.443 139.351 102.317 139.911 100.159C140.47 97.9933 141.062 95.8114 141.693 93.5975C141.861 93.0541 142.277 92.8862 142.932 93.094C143.244 93.1899 143.46 93.3338 143.58 93.5096C143.692 93.6855 143.716 93.9252 143.636 94.2289C143.38 95.1321 143.14 96.0272 142.908 96.9064C142.676 97.7855 142.445 98.6727 142.221 99.5518L145.147 100.471C145.411 99.5198 145.658 98.6886 145.89 97.9693C146.114 97.25 146.266 96.7705 146.346 96.5307C146.514 95.9872 146.754 95.6196 147.049 95.4118C147.345 95.212 147.833 95.196 148.496 95.3718C149.032 95.5077 149.647 95.6755 150.343 95.8674C151.038 96.0672 151.774 96.267 152.533 96.4748C153.301 96.6826 154.068 96.8984 154.844 97.1142C155.619 97.3299 156.363 97.5537 157.074 97.7775C157.362 97.8654 157.562 98.0173 157.674 98.2331C157.786 98.4489 157.786 98.7606 157.674 99.1842C157.546 99.6477 157.386 99.9274 157.194 100.039C157.002 100.151 156.762 100.167 156.474 100.095C155.955 99.9514 155.435 99.7996 154.916 99.6557C154.388 99.5038 153.868 99.36 153.357 99.2161C152.957 100.703 152.541 102.205 152.118 103.74C151.702 105.274 151.286 106.777 150.887 108.247C151.318 108.383 151.75 108.519 152.19 108.655C152.629 108.791 153.133 108.959 153.7 109.151C154.324 109.35 154.516 109.838 154.268 110.621C154.14 111.021 153.988 111.284 153.796 111.412C153.605 111.54 153.373 111.556 153.085 111.468C152.413 111.261 151.686 111.021 150.895 110.757C150.103 110.493 149.296 110.222 148.48 109.942C147.657 109.662 146.849 109.374 146.05 109.095C145.251 108.807 144.499 108.551 143.804 108.319C143.508 108.207 143.324 108.056 143.252 107.864C143.18 107.672 143.18 107.416 143.244 107.113C143.34 106.721 143.5 106.129 143.732 105.338C143.964 104.555 144.219 103.692 144.491 102.765L141.629 101.87L141.605 101.878ZM149.655 98.1452C149.128 97.9933 148.608 97.8574 148.097 97.7296C148.057 97.8574 147.977 98.1372 147.849 98.5687C147.721 99.0003 147.569 99.5038 147.393 100.079C147.217 100.655 147.033 101.27 146.849 101.926C146.658 102.573 146.482 103.188 146.322 103.764C146.154 104.339 146.01 104.835 145.882 105.266C145.754 105.698 145.666 105.978 145.626 106.121C145.594 106.233 145.586 106.337 145.626 106.433C145.658 106.529 145.754 106.601 145.906 106.649C146.498 106.849 147.033 107.025 147.513 107.176C147.993 107.328 148.448 107.48 148.88 107.632C149.288 106.145 149.695 104.643 150.111 103.116C150.527 101.59 150.935 100.087 151.334 98.6247C150.759 98.4569 150.199 98.297 149.655 98.1452Z" fill="white"/>
<path d="M134.027 116.927C133.531 117.783 133.052 118.614 132.572 119.429C132.1 120.244 131.629 121.036 131.173 121.803C131.037 122.051 130.861 122.178 130.661 122.194C130.461 122.202 130.246 122.138 130.014 121.995C129.726 121.811 129.558 121.611 129.51 121.411C129.462 121.211 129.494 120.988 129.606 120.756C130.613 118.87 131.677 116.951 132.772 115.009C133.875 113.067 135.018 111.109 136.201 109.143C136.505 108.663 136.945 108.608 137.504 108.967C137.776 109.143 137.952 109.335 138.008 109.527C138.064 109.726 138.016 109.958 137.864 110.23C137.408 110.997 136.961 111.772 136.521 112.54C136.081 113.315 135.642 114.082 135.21 114.849L137.025 116.008C137.496 115.409 138.024 114.921 138.6 114.546C139.175 114.17 139.767 113.914 140.374 113.779C140.982 113.643 141.597 113.635 142.213 113.747C142.836 113.858 143.428 114.098 143.988 114.458C144.363 114.698 144.699 114.985 144.987 115.305C145.275 115.633 145.514 115.976 145.698 116.352C145.882 116.728 146.018 117.103 146.09 117.479C146.162 117.855 146.178 118.214 146.122 118.55C146.202 118.406 146.322 118.19 146.49 117.911C146.658 117.631 146.834 117.343 147.017 117.039C147.201 116.736 147.369 116.464 147.521 116.208C147.673 115.952 147.777 115.785 147.825 115.713C147.961 115.481 148.113 115.329 148.288 115.257C148.464 115.185 148.704 115.233 149 115.409C149.312 115.593 149.488 115.793 149.544 116.008C149.6 116.224 149.568 116.44 149.448 116.656C149.32 116.88 149.16 117.167 148.952 117.519C148.744 117.871 148.512 118.27 148.249 118.718C147.993 119.165 147.705 119.645 147.401 120.148C147.089 120.66 146.778 121.195 146.458 121.747C146.77 121.923 147.049 122.098 147.313 122.25C147.577 122.41 147.793 122.546 147.969 122.658C148.264 122.834 148.456 123.026 148.528 123.257C148.6 123.489 148.528 123.809 148.296 124.224C148.033 124.696 147.801 124.952 147.593 124.992C147.385 125.04 147.113 124.96 146.778 124.768C146.626 124.672 146.41 124.536 146.138 124.36C145.858 124.184 145.554 123.993 145.219 123.801C144.883 124.352 144.563 124.88 144.251 125.399C143.94 125.919 143.652 126.398 143.38 126.846C143.116 127.293 142.876 127.693 142.669 128.037C142.461 128.38 142.301 128.668 142.173 128.892C142.029 129.148 141.869 129.308 141.693 129.371C141.517 129.435 141.286 129.371 140.974 129.188C140.678 129.012 140.51 128.836 140.486 128.644C140.454 128.46 140.51 128.221 140.654 127.941C140.702 127.869 140.806 127.693 140.966 127.437C141.126 127.174 141.294 126.894 141.485 126.582C141.669 126.278 141.853 125.983 142.013 125.711C142.181 125.439 142.301 125.239 142.373 125.128C141.733 125.567 140.982 125.783 140.118 125.759C139.255 125.735 138.424 125.487 137.608 125.008C137.057 124.672 136.609 124.256 136.249 123.753C135.889 123.249 135.634 122.698 135.474 122.091C135.314 121.483 135.266 120.844 135.314 120.156C135.362 119.469 135.522 118.774 135.802 118.062L133.995 116.904L134.027 116.927ZM137.328 120.868C137.432 121.339 137.632 121.779 137.92 122.186C138.208 122.594 138.6 122.946 139.087 123.233C139.559 123.521 140.046 123.689 140.534 123.745C141.022 123.801 141.501 123.769 141.941 123.641C142.389 123.513 142.804 123.289 143.188 122.978C143.572 122.666 143.9 122.282 144.179 121.819C144.467 121.347 144.651 120.86 144.731 120.348C144.811 119.845 144.803 119.357 144.699 118.878C144.595 118.406 144.403 117.966 144.116 117.567C143.836 117.167 143.476 116.824 143.052 116.552C142.589 116.256 142.109 116.072 141.613 115.992C141.118 115.92 140.646 115.944 140.198 116.072C139.751 116.2 139.327 116.416 138.935 116.712C138.552 117.015 138.216 117.391 137.936 117.855C137.632 118.35 137.432 118.862 137.328 119.381C137.225 119.901 137.225 120.396 137.312 120.86L137.328 120.868Z" fill="white"/>
<path d="M114.473 132.912C114.265 132.68 114.177 132.448 114.217 132.232C114.257 132.017 114.345 131.825 114.489 131.681C115.009 131.145 115.568 130.578 116.176 129.987C116.776 129.395 117.391 128.804 118.023 128.204C118.654 127.613 119.27 127.029 119.877 126.462C120.485 125.895 121.044 125.391 121.556 124.935C121.828 124.696 122.116 124.6 122.435 124.648C122.755 124.696 123.051 124.848 123.323 125.103C123.643 125.415 123.938 125.711 124.202 125.982C124.474 126.254 124.73 126.518 124.97 126.782C125.209 127.045 125.457 127.309 125.705 127.581C125.953 127.853 126.217 128.148 126.504 128.468C126.728 128.724 126.824 128.948 126.784 129.139C126.744 129.331 126.576 129.587 126.273 129.891C125.969 130.202 125.705 130.37 125.481 130.41C125.257 130.45 125.026 130.346 124.786 130.098C124.618 129.907 124.418 129.683 124.186 129.435C123.954 129.179 123.715 128.924 123.483 128.652C123.243 128.38 123.019 128.132 122.803 127.893C122.587 127.661 122.403 127.461 122.268 127.301C122.148 127.165 122.036 127.149 121.924 127.245C121.508 127.629 121.028 128.076 120.485 128.588C119.941 129.099 119.39 129.619 118.838 130.154C118.278 130.69 117.735 131.201 117.191 131.713C116.656 132.216 116.168 132.656 115.744 133.032C115.52 133.231 115.313 133.319 115.113 133.303C114.921 133.287 114.705 133.152 114.481 132.896L114.473 132.912ZM118.207 136.9C117.799 136.364 117.863 135.877 118.406 135.437C118.894 135.022 119.374 135.07 119.821 135.589C120.109 135.917 120.453 136.308 120.853 136.772C121.252 137.236 121.684 137.731 122.14 138.267C122.595 138.794 123.067 139.346 123.555 139.913C124.034 140.48 124.514 141.04 124.986 141.575C125.457 142.119 125.897 142.638 126.321 143.134C126.736 143.629 127.112 144.069 127.432 144.461C127.608 144.684 127.68 144.892 127.656 145.1C127.624 145.308 127.456 145.548 127.144 145.819C126.824 146.083 126.544 146.219 126.329 146.227C126.105 146.227 125.913 146.147 125.745 145.955C125.209 145.332 124.602 144.612 123.914 143.813C123.227 143.006 122.523 142.183 121.82 141.344C121.116 140.504 120.445 139.689 119.813 138.906C119.182 138.123 118.646 137.451 118.215 136.9H118.207ZM129.582 138.618C129.382 138.818 129.183 139.01 128.991 139.202C129.686 139.945 130.286 140.624 130.797 141.248C130.981 141.464 131.061 141.663 131.029 141.863C130.997 142.063 130.829 142.303 130.526 142.59C130.222 142.878 129.95 143.022 129.718 143.022C129.478 143.022 129.278 142.926 129.111 142.734C128.559 142.127 127.959 141.464 127.312 140.736C126.672 140.009 126.025 139.282 125.385 138.554C124.746 137.827 124.122 137.116 123.531 136.42C122.931 135.725 122.411 135.11 121.956 134.574C121.54 134.087 121.588 133.607 122.108 133.16C122.611 132.712 123.099 132.752 123.579 133.263C124.09 133.799 124.706 134.462 125.425 135.246C126.137 136.029 126.872 136.836 127.624 137.667C127.816 137.475 128.015 137.292 128.223 137.092C128.431 136.892 128.623 136.716 128.807 136.548C128.991 136.38 129.143 136.237 129.27 136.109C129.398 135.981 129.494 135.901 129.55 135.845C129.782 135.637 129.998 135.557 130.198 135.613C130.398 135.669 130.606 135.813 130.837 136.053C131.285 136.532 131.317 136.956 130.933 137.308C130.869 137.371 130.765 137.467 130.637 137.595C130.51 137.731 130.35 137.883 130.174 138.051C129.998 138.219 129.806 138.402 129.598 138.602L129.582 138.618ZM132.484 135.102C132.188 134.79 131.917 134.494 131.669 134.215C130.773 134.151 129.902 134.103 129.047 134.087C128.191 134.063 127.424 134.039 126.736 134.007C126.441 133.991 126.209 133.919 126.025 133.799C125.849 133.679 125.745 133.463 125.705 133.152C125.673 132.824 125.713 132.552 125.833 132.352C125.953 132.145 126.161 132.049 126.457 132.041C127.248 132.017 127.999 132.009 128.695 132.017C129.39 132.025 130.182 132.049 131.069 132.081C130.917 131.058 130.821 130.13 130.765 129.307C130.709 128.476 130.685 127.669 130.677 126.878C130.677 126.558 130.805 126.334 131.069 126.19C131.333 126.046 131.613 125.998 131.917 126.054C132.196 126.102 132.38 126.214 132.468 126.39C132.556 126.566 132.612 126.782 132.636 127.037C132.668 127.365 132.708 127.765 132.748 128.228C132.788 128.692 132.836 129.171 132.892 129.675C132.948 130.17 132.996 130.674 133.052 131.177C133.108 131.673 133.164 132.137 133.236 132.552C133.779 133.128 134.379 133.743 135.026 134.406C135.674 135.07 136.241 135.661 136.737 136.181C136.977 136.428 137.105 136.668 137.113 136.908C137.121 137.148 136.961 137.435 136.625 137.771C136.241 138.147 135.946 138.331 135.746 138.315C135.546 138.299 135.306 138.147 135.034 137.867C134.81 137.611 134.547 137.332 134.259 137.028C133.971 136.724 133.683 136.412 133.379 136.085C133.084 135.757 132.788 135.437 132.484 135.126V135.102Z" fill="white"/>
<path d="M106.447 149.88C106.167 150.024 105.895 150.16 105.632 150.304C105.951 151.071 106.271 151.838 106.583 152.589C106.903 153.341 107.214 154.1 107.534 154.875C107.686 155.251 107.718 155.555 107.614 155.786C107.518 156.018 107.262 156.226 106.855 156.418C106.151 156.737 105.632 156.538 105.304 155.818C104.808 154.699 104.305 153.541 103.793 152.35C103.281 151.159 102.778 149.96 102.282 148.769C101.786 147.578 101.315 146.395 100.851 145.229C100.395 144.062 99.9717 142.943 99.58 141.872C99.4281 141.464 99.4121 141.144 99.532 140.905C99.6519 140.665 99.8677 140.497 100.164 140.393C100.475 140.289 100.747 140.297 100.971 140.417C101.195 140.537 101.411 140.825 101.61 141.256C102.69 143.622 103.753 146.004 104.8 148.409C105.064 148.274 105.336 148.13 105.616 147.986C105.895 147.842 106.159 147.706 106.407 147.586C106.655 147.466 106.871 147.355 107.063 147.267C107.254 147.179 107.382 147.107 107.462 147.075C107.75 146.947 107.974 146.931 108.15 147.043C108.326 147.155 108.485 147.355 108.637 147.65C108.925 148.242 108.829 148.649 108.366 148.881C108.27 148.921 108.126 149.001 107.926 149.105C107.726 149.209 107.502 149.329 107.238 149.464C106.975 149.6 106.711 149.736 106.431 149.88H106.447ZM113.258 139.722C113.186 139.554 113.082 139.506 112.946 139.57C112.451 139.842 111.891 140.145 111.283 140.473C110.668 140.801 110.052 141.137 109.421 141.464C108.797 141.8 108.182 142.128 107.574 142.455C106.967 142.783 106.415 143.079 105.919 143.358C105.664 143.51 105.448 143.55 105.288 143.486C105.128 143.422 104.96 143.238 104.792 142.935C104.616 142.623 104.568 142.367 104.656 142.176C104.744 141.984 104.888 141.824 105.088 141.696C106.375 140.929 107.694 140.169 109.045 139.426C110.396 138.683 111.699 137.996 112.954 137.372C113.338 137.18 113.722 137.14 114.097 137.26C114.473 137.38 114.769 137.644 114.993 138.067C115.129 138.331 115.337 138.739 115.6 139.29C115.864 139.842 116.168 140.465 116.496 141.168C116.823 141.872 117.167 142.607 117.527 143.382C117.887 144.15 118.23 144.893 118.558 145.596C118.886 146.3 119.182 146.931 119.43 147.482C119.685 148.042 119.869 148.449 119.997 148.729C120.117 149.001 120.165 149.217 120.117 149.377C120.077 149.536 119.917 149.68 119.653 149.816C118.398 150.448 117.087 151.119 115.704 151.814C114.321 152.51 112.962 153.181 111.611 153.828C111.18 154.028 110.828 153.828 110.564 153.253C110.42 152.941 110.364 152.701 110.396 152.534C110.428 152.366 110.572 152.206 110.828 152.054C111.339 151.774 111.875 151.487 112.443 151.199C113.01 150.911 113.57 150.615 114.129 150.32C114.689 150.024 115.249 149.736 115.8 149.448C116.352 149.169 116.871 148.905 117.367 148.657C117.319 148.545 117.239 148.37 117.119 148.114C117.007 147.866 116.863 147.562 116.688 147.203C116.52 146.843 116.336 146.451 116.136 146.028C115.936 145.596 115.744 145.165 115.536 144.717C114.657 145.165 113.754 145.62 112.826 146.076C111.891 146.531 111.004 146.971 110.14 147.394C109.892 147.506 109.693 147.514 109.525 147.426C109.357 147.339 109.221 147.147 109.101 146.859C108.973 146.539 108.933 146.292 108.973 146.116C109.013 145.94 109.165 145.78 109.429 145.628C110.228 145.181 111.084 144.725 112.011 144.246C112.93 143.766 113.834 143.318 114.697 142.887C114.521 142.495 114.345 142.12 114.185 141.768C114.025 141.416 113.882 141.097 113.754 140.809C113.626 140.521 113.514 140.289 113.418 140.098C113.322 139.914 113.266 139.794 113.242 139.738L113.258 139.722Z" fill="white"/>
<path d="M58.4658 148.249C57.3546 147.945 56.2834 147.657 55.2521 147.386C54.2209 147.106 53.2696 146.85 52.3822 146.618C52.1024 146.554 51.9345 146.419 51.8706 146.235C51.8066 146.051 51.8066 145.819 51.8866 145.563C51.9825 145.236 52.1264 145.02 52.3183 144.908C52.5021 144.804 52.726 144.772 52.9738 144.836C54.005 145.084 55.1242 145.356 56.3233 145.659C57.5225 145.963 58.7536 146.283 60.0007 146.61C61.2478 146.938 62.4949 147.274 63.734 147.609C64.9731 147.945 66.1402 148.265 67.2354 148.561C67.787 148.696 67.9629 149.088 67.771 149.751C67.6751 150.063 67.5392 150.279 67.3713 150.391C67.1955 150.503 66.9556 150.519 66.6519 150.447C65.7405 150.207 64.7972 149.951 63.8059 149.687C62.8146 149.424 61.8154 149.152 60.7921 148.88L60.3204 150.463C61.1119 150.671 61.8633 150.87 62.5668 151.062C63.2703 151.254 63.8779 151.43 64.3735 151.582C64.7892 151.71 65.101 151.933 65.3088 152.261C65.5167 152.589 65.5646 152.98 65.4527 153.452C65.2209 154.315 64.9651 155.218 64.6693 156.137C64.3735 157.064 64.0937 157.952 63.8219 158.807C63.734 159.094 63.6221 159.286 63.4862 159.382C63.3503 159.478 63.1344 159.486 62.8466 159.398C61.9113 159.134 60.936 158.863 59.9127 158.583C58.8895 158.303 57.8662 158.015 56.827 157.72C55.7957 157.424 54.7725 157.136 53.7732 156.841C52.7739 156.545 51.8066 156.265 50.8713 155.985C50.4156 155.85 50.2717 155.49 50.4396 154.922C50.5356 154.595 50.6555 154.363 50.7994 154.227C50.9433 154.091 51.1591 154.059 51.4469 154.131C51.8066 154.227 52.2623 154.347 52.8139 154.491C53.3575 154.635 53.9571 154.803 54.5886 154.986C55.2281 155.17 55.8917 155.354 56.5792 155.546C57.2667 155.738 57.9462 155.921 58.5937 156.105C59.2492 156.289 59.8648 156.449 60.4324 156.609C61 156.761 61.4796 156.897 61.8633 157.016C62.0232 156.521 62.2071 155.953 62.4069 155.314C62.6068 154.675 62.7986 154.083 62.9745 153.548C63.0225 153.38 62.9745 153.268 62.8386 153.228C62.4789 153.124 62.0312 152.996 61.4796 152.844C60.936 152.693 60.3444 152.533 59.7049 152.365C59.0734 152.189 58.4178 152.013 57.7383 151.837C57.0588 151.662 56.4033 151.486 55.7718 151.31C55.1402 151.134 54.5486 150.982 54.005 150.838C53.4614 150.702 53.0138 150.583 52.646 150.495C52.3582 150.423 52.1664 150.319 52.0864 150.191C52.0065 150.063 51.9985 149.823 52.0624 149.488C52.1344 149.136 52.2703 148.912 52.4622 148.816C52.654 148.72 52.8699 148.688 53.1097 148.728C53.7412 148.856 54.4847 149.024 55.3321 149.232C56.1795 149.44 57.0588 149.664 57.9702 149.903L58.4498 148.297L58.4658 148.249ZM57.2027 138.738C57.5704 138.306 58.0261 137.963 58.5777 137.723C59.1293 137.483 59.7609 137.347 60.4723 137.323C61.1838 137.291 61.9513 137.387 62.7747 137.603C63.6141 137.819 64.3255 138.115 64.9091 138.474C65.4927 138.834 65.9564 139.258 66.2841 139.729C66.6199 140.201 66.8197 140.72 66.8917 141.28C66.9636 141.839 66.9157 142.422 66.7318 143.022C66.5719 143.549 66.3161 144.029 65.9644 144.453C65.6126 144.876 65.1729 145.22 64.6373 145.484C64.1017 145.747 63.4941 145.907 62.7987 145.963C62.1032 146.019 61.3277 145.947 60.4723 145.731C59.6569 145.531 58.9614 145.26 58.3699 144.908C57.7863 144.556 57.3146 144.141 56.9709 143.661C56.6191 143.182 56.4033 142.662 56.3074 142.087C56.2114 141.511 56.2434 140.92 56.4033 140.289C56.5472 139.697 56.811 139.178 57.1947 138.746L57.2027 138.738ZM59.8168 139.425C59.1773 139.737 58.7696 140.225 58.5777 140.904C58.3938 141.615 58.5058 142.239 58.9055 142.774C59.3052 143.318 59.9847 143.701 60.936 143.941C61.9353 144.197 62.7427 144.157 63.3582 143.837C63.9738 143.517 64.3735 143.046 64.5414 142.43C64.7332 141.743 64.6453 141.128 64.2856 140.576C63.9258 140.033 63.2623 139.633 62.295 139.377C61.2718 139.106 60.4404 139.122 59.8008 139.425H59.8168Z" fill="white"/>
<path d="M35.2186 139.618C35.3784 139.562 35.5943 139.594 35.8581 139.73C36.0659 139.841 36.4417 140.049 36.9773 140.353C37.5129 140.649 38.1205 141 38.8 141.4C39.4795 141.8 40.2069 142.223 40.9744 142.671C41.7418 143.118 42.4613 143.542 43.1328 143.941C43.8043 144.341 44.4039 144.701 44.9235 145.004C45.4431 145.308 45.7949 145.524 45.9867 145.644C46.3545 145.876 46.5783 146.155 46.6503 146.483C46.7222 146.811 46.6503 147.178 46.4424 147.57C46.2426 147.922 46.0507 148.257 45.8588 148.577C45.675 148.905 45.4911 149.224 45.2992 149.552C45.1074 149.88 44.9155 150.207 44.7157 150.551C44.5158 150.887 44.284 151.254 44.0441 151.646C43.7004 152.19 43.2767 152.317 42.7731 152.038C42.5412 151.91 42.1415 151.678 41.5899 151.35C41.0383 151.023 40.4068 150.647 39.6953 150.215C38.9838 149.792 38.2404 149.336 37.4489 148.849C36.6575 148.361 35.9061 147.906 35.1946 147.474C34.4751 147.042 33.8436 146.651 33.284 146.307C32.7244 145.956 32.3247 145.708 32.0688 145.548C31.6372 145.276 31.5572 144.933 31.813 144.517C32.1408 143.997 32.4126 143.566 32.6284 143.222C32.8443 142.871 33.0521 142.551 33.244 142.247C33.4359 141.943 33.6357 141.632 33.8516 141.32C34.0674 141.008 34.3232 140.625 34.619 140.177C34.8348 139.857 35.0347 139.674 35.2026 139.618H35.2186ZM36.3857 142.191C36.2178 142.087 36.0819 142.127 35.97 142.303C35.8341 142.519 35.7142 142.711 35.6103 142.878C35.5064 143.046 35.3944 143.222 35.2905 143.39C35.1866 143.558 35.0667 143.758 34.9388 143.973C34.8109 144.189 34.659 144.461 34.4831 144.773L42.5492 149.608C42.7491 149.256 42.925 148.969 43.0689 148.745C43.2128 148.521 43.3407 148.305 43.4606 148.105C43.5805 147.906 43.7004 147.706 43.8203 147.514C43.9402 147.314 44.0841 147.082 44.236 146.811L36.4017 142.199L36.3857 142.191ZM42.7011 138.179C41.9896 137.771 41.2862 137.364 40.5987 136.956C39.9111 136.549 39.2316 136.157 38.5761 135.781C38.4402 135.693 38.3443 135.59 38.3123 135.47C38.2723 135.35 38.3123 135.198 38.4242 135.022C38.712 134.567 39.0318 134.087 39.3995 133.575C39.7673 133.064 40.095 132.592 40.3988 132.169C40.5827 131.929 40.7585 131.793 40.9264 131.745C41.0943 131.705 41.3261 131.761 41.6059 131.921C42.1415 132.225 42.7411 132.568 43.4126 132.96C44.0841 133.352 44.7716 133.751 45.4751 134.159C46.1786 134.567 46.8821 134.974 47.5776 135.382C48.2731 135.789 48.9126 136.157 49.4962 136.493C49.6001 136.293 49.6881 136.149 49.744 136.053C49.8 135.957 49.8879 135.805 50.0078 135.598C49.4242 135.23 48.7847 134.838 48.0892 134.423C47.3937 134.007 46.6822 133.575 45.9548 133.128C45.2273 132.68 44.5078 132.249 43.7963 131.817C43.0769 131.386 42.4053 130.978 41.7658 130.594C41.5739 130.474 41.478 130.339 41.47 130.171C41.47 130.011 41.534 129.819 41.6619 129.603C41.7898 129.388 41.9417 129.22 42.1096 129.1C42.2694 128.98 42.4693 128.988 42.7091 129.116C44.244 129.987 45.7469 130.874 47.2178 131.769C48.6888 132.664 50.1757 133.583 51.6626 134.511C52.1023 134.79 52.3581 135.062 52.4221 135.326C52.486 135.598 52.3981 135.941 52.1742 136.357C51.9584 136.748 51.7585 137.116 51.5747 137.46C51.3908 137.803 51.175 138.163 50.9351 138.539C50.8472 138.675 50.7513 138.778 50.6553 138.842C50.5594 138.906 50.4315 138.898 50.2876 138.818C49.768 138.531 49.1285 138.163 48.385 137.731C47.6335 137.3 46.8581 136.844 46.0587 136.381C45.2593 135.917 44.4838 135.462 43.7404 135.022C42.9969 134.582 42.3654 134.223 41.8617 133.935C41.7178 134.143 41.5899 134.335 41.478 134.503C41.3741 134.67 41.2462 134.87 41.1023 135.102C41.6779 135.422 42.3334 135.805 43.0848 136.237C43.8363 136.668 44.5957 137.116 45.3712 137.564C46.1466 138.011 46.9061 138.459 47.6575 138.89C48.409 139.322 49.0645 139.706 49.6321 140.049C49.8399 140.161 49.9599 140.297 49.9838 140.457C50.0078 140.617 49.9359 140.84 49.768 141.136C49.6001 141.44 49.4242 141.616 49.2484 141.672C49.0725 141.728 48.8726 141.696 48.6488 141.576C48.0652 141.24 47.4497 140.896 46.8101 140.529C46.1706 140.161 45.4991 139.777 44.7956 139.378L43.9322 140.761C44.8596 141.304 45.7629 141.84 46.6423 142.367C47.5216 142.886 48.369 143.39 49.1764 143.862C49.6721 144.133 49.744 144.549 49.4003 145.108C49.2244 145.388 49.0485 145.548 48.8567 145.596C48.6648 145.644 48.433 145.596 48.1612 145.436C47.1539 144.853 46.0827 144.237 44.9555 143.574C43.8283 142.91 42.7091 142.255 41.5819 141.6C40.4627 140.944 39.3755 140.305 38.3203 139.682C37.2651 139.058 36.3058 138.491 35.4264 137.979C34.9787 137.715 34.8988 137.34 35.2026 136.86C35.3864 136.573 35.5783 136.405 35.7782 136.365C35.978 136.325 36.1938 136.365 36.4177 136.485C37.2491 136.932 38.1205 137.42 39.0318 137.939C39.9511 138.459 40.8864 139.002 41.8537 139.57L42.7171 138.187L42.7011 138.179Z" fill="white"/>
<path d="M31.0697 124.153C30.3982 123.497 29.7347 122.842 29.0952 122.203C28.4556 121.563 27.8161 120.924 27.1925 120.3C26.9927 120.101 26.9128 119.901 26.9527 119.701C27.0007 119.501 27.1206 119.301 27.3125 119.117C27.5603 118.886 27.8001 118.766 28.016 118.774C28.2318 118.774 28.4396 118.862 28.6315 119.03C30.2064 120.484 31.7892 121.987 33.396 123.537C35.0029 125.088 36.6097 126.694 38.2165 128.333C38.6003 128.748 38.5443 129.188 38.0407 129.659C37.8008 129.883 37.577 130.003 37.3612 130.011C37.1533 130.027 36.9295 129.923 36.7056 129.699C36.0421 129.028 35.3866 128.381 34.7391 127.741C34.0835 127.102 33.436 126.47 32.7805 125.831L30.5341 127.917C31.2216 128.62 31.8292 129.244 32.3408 129.795C32.8524 130.347 33.1962 130.714 33.3641 130.906C33.7478 131.322 33.9556 131.713 33.9876 132.073C34.0196 132.433 33.7878 132.856 33.3081 133.344C32.9244 133.743 32.4767 134.191 31.9571 134.702C31.4375 135.214 30.9019 135.741 30.3423 136.301C29.7827 136.86 29.2151 137.42 28.6395 137.987C28.0639 138.555 27.5043 139.09 26.9527 139.594C26.7369 139.794 26.505 139.897 26.2572 139.881C26.0174 139.873 25.7376 139.714 25.4338 139.41C25.0981 139.074 24.9302 138.787 24.9302 138.571C24.9302 138.347 25.0341 138.131 25.242 137.915C25.6257 137.54 26.0094 137.164 26.4011 136.78C26.7928 136.397 27.1766 136.021 27.5603 135.646C26.4731 134.559 25.3619 133.456 24.2427 132.329C23.1155 131.202 22.0203 130.107 20.9411 129.028C20.6133 129.332 20.2776 129.643 19.9418 129.955C19.6061 130.267 19.2063 130.626 18.7587 131.018C18.279 131.466 17.7594 131.386 17.1998 130.786C16.912 130.483 16.7681 130.211 16.7441 129.987C16.7282 129.763 16.8241 129.547 17.0479 129.34C17.5595 128.86 18.1271 128.349 18.7507 127.789C19.3742 127.23 20.0138 126.67 20.6613 126.095C21.3088 125.519 21.9564 124.96 22.6039 124.4C23.2514 123.841 23.843 123.321 24.3866 122.834C24.6264 122.634 24.8503 122.546 25.0501 122.578C25.258 122.61 25.4738 122.73 25.7056 122.946C26.0014 123.218 26.4331 123.657 27.0007 124.241C27.5683 124.832 28.1918 125.479 28.8633 126.183L31.0617 124.145L31.0697 124.153ZM30.3263 132.992C30.718 132.608 31.1017 132.225 31.4615 131.849C31.3735 131.753 31.1737 131.538 30.8619 131.218C30.5501 130.898 30.1904 130.514 29.7747 130.075C29.359 129.635 28.9113 129.172 28.4396 128.684C27.968 128.197 27.5203 127.741 27.1046 127.31C26.6889 126.886 26.3212 126.51 26.0174 126.183C25.7056 125.863 25.4978 125.647 25.4019 125.535C25.3219 125.447 25.234 125.391 25.13 125.375C25.0341 125.351 24.9222 125.399 24.8023 125.511C24.3306 125.927 23.9149 126.303 23.5472 126.646C23.1795 126.982 22.8197 127.31 22.476 127.613C23.5632 128.7 24.6664 129.803 25.7856 130.922C26.9048 132.041 28 133.136 29.0792 134.215C29.5029 133.799 29.9266 133.392 30.3263 132.992Z" fill="white"/>
<path d="M21.7323 110.126C21.2367 109.279 20.749 108.448 20.2774 107.633C19.8057 106.817 19.3501 106.026 18.9024 105.243C18.7585 105.003 18.7265 104.787 18.8224 104.604C18.9104 104.42 19.0783 104.268 19.3101 104.14C19.6139 103.98 19.8697 103.932 20.0695 103.996C20.2694 104.06 20.4453 104.196 20.5892 104.404C21.7323 106.21 22.8755 108.08 24.0187 109.998C25.1618 111.917 26.297 113.875 27.4242 115.881C27.688 116.384 27.5201 116.792 26.9286 117.104C26.6408 117.255 26.3929 117.311 26.1931 117.263C25.9932 117.215 25.8094 117.064 25.6495 116.792C25.2018 116.017 24.7541 115.241 24.2985 114.482C23.8428 113.715 23.3951 112.956 22.9395 112.196L21.0368 113.195C21.3246 113.899 21.4925 114.602 21.5325 115.289C21.5724 115.977 21.5005 116.616 21.3166 117.215C21.1328 117.807 20.837 118.35 20.4373 118.83C20.0376 119.309 19.5339 119.709 18.9424 120.021C18.5426 120.229 18.1349 120.38 17.7113 120.468C17.2876 120.556 16.8639 120.588 16.4482 120.564C16.0325 120.54 15.6408 120.468 15.273 120.348C14.9053 120.229 14.5935 120.061 14.3297 119.845C14.4176 119.981 14.5455 120.197 14.7054 120.484C14.8653 120.772 15.0332 121.068 15.2011 121.371C15.369 121.675 15.5288 121.963 15.6727 122.219C15.8166 122.482 15.9126 122.65 15.9525 122.73C16.0884 122.962 16.1444 123.17 16.1204 123.361C16.0964 123.553 15.9365 123.737 15.6408 123.905C15.329 124.089 15.0652 124.145 14.8493 124.081C14.6335 124.017 14.4576 123.889 14.3377 123.681C14.2098 123.465 14.0419 123.178 13.8341 122.818C13.6262 122.458 13.3944 122.059 13.1386 121.619C12.8748 121.172 12.603 120.692 12.3072 120.173C12.0114 119.653 11.7076 119.118 11.3798 118.558C11.0681 118.742 10.7803 118.902 10.5165 119.054C10.2527 119.205 10.0208 119.325 9.83697 119.421C9.54118 119.597 9.27738 119.661 9.03755 119.613C8.79772 119.565 8.5579 119.341 8.31008 118.934C8.03028 118.47 7.92636 118.143 7.99031 117.943C8.05426 117.743 8.25412 117.543 8.58987 117.351C8.74976 117.263 8.9736 117.151 9.26139 116.992C9.54918 116.84 9.86895 116.664 10.2047 116.472C9.89293 115.913 9.58915 115.369 9.29336 114.842C8.99758 114.314 8.72578 113.827 8.46197 113.371C8.19816 112.916 7.97432 112.516 7.77447 112.164C7.57461 111.813 7.40673 111.533 7.27883 111.317C7.12694 111.061 7.06298 110.846 7.10295 110.662C7.14293 110.478 7.3108 110.302 7.61458 110.126C7.91037 109.95 8.15019 109.894 8.32607 109.966C8.50194 110.03 8.67781 110.198 8.85368 110.462C8.89365 110.542 8.98959 110.718 9.14147 110.981C9.29336 111.245 9.45325 111.541 9.62912 111.853C9.80499 112.164 9.96488 112.46 10.1248 112.74C10.2846 113.019 10.3886 113.219 10.4525 113.339C10.3806 112.564 10.5724 111.813 11.0121 111.069C11.4598 110.326 12.0913 109.727 12.9067 109.263C13.4663 108.951 14.0579 108.76 14.6735 108.696C15.289 108.632 15.8966 108.68 16.4961 108.847C17.0957 109.015 17.6873 109.287 18.2549 109.663C18.8304 110.046 19.3501 110.534 19.8297 111.117L21.7323 110.118V110.126ZM16.68 111.045C16.2163 110.901 15.7367 110.854 15.241 110.909C14.7454 110.957 14.2498 111.125 13.7541 111.405C13.2745 111.677 12.8828 112.012 12.587 112.412C12.2912 112.812 12.0913 113.243 11.9874 113.691C11.8835 114.146 11.8675 114.618 11.9474 115.105C12.0274 115.593 12.2033 116.073 12.4671 116.544C12.7389 117.024 13.0746 117.423 13.4663 117.751C13.866 118.071 14.2977 118.302 14.7614 118.446C15.2251 118.59 15.7047 118.638 16.1924 118.59C16.68 118.542 17.1517 118.398 17.5993 118.166C18.087 117.911 18.4867 117.583 18.7985 117.191C19.1102 116.8 19.3181 116.376 19.43 115.921C19.5419 115.465 19.5659 114.994 19.494 114.506C19.422 114.018 19.2541 113.547 18.9903 113.075C18.7025 112.564 18.3588 112.14 17.9591 111.797C17.5594 111.453 17.1277 111.205 16.68 111.053V111.045Z" fill="white"/>
<path d="M12.2273 86.516C12.8908 86.4201 13.2825 86.7238 13.3945 87.4191C13.5064 88.0505 13.2346 88.4341 12.5631 88.578C12.1394 88.6659 11.6277 88.7698 11.0282 88.8817C10.4286 89.0016 9.78108 89.1215 9.09358 89.2573C8.40608 89.3932 7.69459 89.5291 6.95913 89.6649C6.22366 89.8008 5.50418 89.9367 4.8007 90.0726C4.09721 90.2084 3.42569 90.3363 2.78616 90.4562C2.14662 90.5761 1.57904 90.672 1.0754 90.7679C0.795604 90.8078 0.571767 90.7679 0.411883 90.64C0.251999 90.5121 0.124092 90.2484 0.0441498 89.8408C-0.027798 89.4332 -0.0118096 89.1215 0.0921149 88.9297C0.196039 88.7299 0.371912 88.61 0.619732 88.562C1.42715 88.4102 2.34648 88.2343 3.39372 88.0345C4.43296 87.8347 5.49619 87.6349 6.57541 87.4431C7.65462 87.2513 8.69387 87.0754 9.68515 86.9156C10.6764 86.7558 11.5238 86.6279 12.2193 86.524L12.2273 86.516ZM5.08849 95.5393C5.01654 95.2675 4.94459 94.9958 4.88064 94.7401C3.88936 94.9718 3.002 95.1557 2.20258 95.2915C1.92279 95.3475 1.70694 95.3155 1.55505 95.1876C1.40316 95.0597 1.27526 94.796 1.17133 94.3884C1.0754 93.9808 1.0834 93.6771 1.19531 93.4693C1.31523 93.2615 1.49909 93.1336 1.74691 93.0777C2.54633 92.8938 3.42569 92.71 4.377 92.5102C5.32831 92.3104 6.27962 92.1186 7.22294 91.9188C8.16625 91.719 9.10157 91.5351 9.99692 91.3673C10.9003 91.1995 11.6917 91.0476 12.3872 90.9197C13.0187 90.7999 13.4025 91.0796 13.5463 91.7509C13.6822 92.4063 13.4104 92.8139 12.7229 92.9738C11.9955 93.1576 11.1161 93.3574 10.0849 93.5892C9.05361 93.8209 7.99038 94.0527 6.89517 94.2925C6.96712 94.5562 7.03108 94.82 7.09503 95.0997C7.15898 95.3794 7.22294 95.6352 7.2789 95.875C7.33486 96.1147 7.39081 96.3225 7.43079 96.4984C7.47875 96.6742 7.50273 96.7941 7.51872 96.866C7.58268 97.1697 7.5427 97.4015 7.39881 97.5454C7.25491 97.6892 7.02308 97.8011 6.70331 97.881C6.06378 98.0249 5.68006 97.8491 5.56014 97.3376C5.54416 97.2496 5.50419 97.1138 5.45622 96.9379C5.40026 96.7621 5.3523 96.5463 5.28834 96.3065C5.23238 96.0668 5.16843 95.811 5.09648 95.5393H5.08849ZM6.70331 99.7992C7.12701 99.6953 7.51872 99.6074 7.88645 99.5354C8.39009 98.7921 8.86175 98.0569 9.30143 97.3216C9.74111 96.5863 10.1488 95.9309 10.5165 95.3555C10.6764 95.1077 10.8603 94.9399 11.0522 94.844C11.244 94.7481 11.4838 94.764 11.7716 94.8919C12.0754 95.0278 12.2833 95.1956 12.4032 95.4034C12.5231 95.6112 12.5071 95.835 12.3632 96.0987C11.9875 96.8021 11.6277 97.4494 11.268 98.0489C10.9163 98.6483 10.5006 99.3276 10.0289 100.079C10.9962 100.455 11.8436 100.83 12.595 101.19C13.3385 101.557 14.058 101.933 14.7535 102.325C15.0333 102.485 15.1612 102.708 15.1532 103.004C15.1532 103.3 15.0493 103.572 14.8494 103.811C14.6655 104.035 14.4817 104.139 14.2818 104.123C14.082 104.107 13.8741 104.051 13.6423 103.947C13.3385 103.811 12.9788 103.643 12.5551 103.452C12.1314 103.26 11.6917 103.06 11.228 102.86C10.7644 102.66 10.3087 102.461 9.84503 102.253C9.38137 102.053 8.95768 101.877 8.55797 101.733C7.79052 101.925 6.95913 102.133 6.05578 102.365C5.16043 102.596 4.36101 102.796 3.66552 102.972C3.32976 103.06 3.05796 103.044 2.85011 102.94C2.63427 102.836 2.46639 102.549 2.33848 102.085C2.20258 101.565 2.18659 101.222 2.30651 101.054C2.42642 100.886 2.67424 100.75 3.04997 100.662C3.38572 100.59 3.76145 100.51 4.16116 100.407C4.56886 100.311 4.98456 100.207 5.41625 100.111C5.84794 100.015 6.27163 99.9111 6.69532 99.8152L6.70331 99.7992ZM17.5434 85.2612C17.8472 85.1973 18.087 85.2372 18.2629 85.3731C18.4388 85.509 18.5507 85.6848 18.6067 85.8846C18.8145 86.6039 19.0304 87.3712 19.2462 88.1864C19.4621 89.0016 19.6699 89.8328 19.8777 90.672C20.0856 91.5112 20.2775 92.3344 20.4693 93.1416C20.6612 93.9488 20.8211 94.6841 20.965 95.3555C21.0369 95.7071 20.973 96.0108 20.7731 96.2666C20.5732 96.5223 20.2934 96.6982 19.9337 96.8021C19.502 96.922 19.1023 97.0338 18.7346 97.1298C18.3668 97.2257 18.0071 97.3216 17.6554 97.4015C17.3036 97.4814 16.9519 97.5613 16.6001 97.6413C16.2404 97.7212 15.8567 97.8091 15.433 97.897C15.0972 97.9689 14.8574 97.937 14.7055 97.8091C14.5536 97.6812 14.4257 97.4095 14.3058 96.9859C14.1859 96.5703 14.1699 96.2506 14.2498 96.0348C14.3298 95.819 14.5296 95.6752 14.8654 95.5872C15.1132 95.5393 15.409 95.4753 15.7368 95.3954C16.0725 95.3155 16.4163 95.2436 16.768 95.1716C17.1198 95.0997 17.4475 95.0278 17.7593 94.9559C18.0711 94.8839 18.3269 94.828 18.5347 94.788C18.7106 94.756 18.7825 94.6601 18.7506 94.5163C18.6227 93.9648 18.4708 93.3254 18.2949 92.5981C18.119 91.8708 17.9432 91.1355 17.7593 90.3922C17.5754 89.649 17.3995 88.9137 17.2237 88.1944C17.0558 87.4751 16.9119 86.8357 16.792 86.2842C16.728 85.9885 16.76 85.7647 16.8719 85.6049C16.9839 85.445 17.2077 85.3331 17.5434 85.2612Z" fill="white"/>
<path d="M12.2353 80.8182C12.4111 80.8342 12.5071 80.7702 12.523 80.6184C12.523 80.0509 12.539 79.4195 12.555 78.7242C12.571 78.0289 12.587 77.3256 12.611 76.6142C12.627 75.9029 12.6509 75.2076 12.6669 74.5203C12.6829 73.8329 12.6989 73.2015 12.6989 72.6341C12.6989 72.3304 12.7629 72.1306 12.8988 72.0187C13.0347 71.9148 13.2745 71.8588 13.6182 71.8588C13.978 71.8588 14.2178 71.9467 14.3457 72.1146C14.4736 72.2824 14.5376 72.4902 14.5456 72.73C14.5776 74.2325 14.5775 75.7511 14.5616 77.2936C14.5456 78.8361 14.4896 80.3067 14.4097 81.7053C14.3857 82.1369 14.2338 82.4886 13.946 82.7523C13.6582 83.0161 13.2745 83.1439 12.7948 83.128C12.4991 83.112 12.0434 83.088 11.4278 83.048C10.8203 83.0081 10.1248 82.9601 9.34935 82.8962C8.57391 82.8322 7.7665 82.7683 6.91911 82.6964C6.07173 82.6324 5.26431 82.5605 4.48888 82.4966C3.71344 82.4326 3.02594 82.3767 2.41038 82.3207C1.80283 82.2648 1.34716 82.2248 1.05137 82.2009C0.755586 82.1769 0.547737 82.1049 0.427825 81.9851C0.307912 81.8732 0.259946 81.6654 0.267941 81.3617C0.331894 79.963 0.403842 78.4844 0.483784 76.9419C0.563726 75.3994 0.651662 73.8809 0.755587 72.3943C0.795558 71.9228 1.13931 71.707 1.77884 71.7629C2.12259 71.7949 2.35443 71.8668 2.49033 71.9707C2.62623 72.0746 2.69018 72.2824 2.69018 72.5861C2.69018 73.1696 2.6662 73.777 2.64222 74.4164C2.61823 75.0477 2.59425 75.6871 2.57027 76.3185C2.54629 76.9499 2.5303 77.5813 2.50632 78.1967C2.48233 78.8121 2.45036 79.4036 2.41838 79.955C2.53829 79.963 2.73815 79.987 3.00995 80.011C3.28175 80.0349 3.61751 80.0589 4.01722 80.0909C4.41693 80.1229 4.84062 80.1548 5.31228 80.1948C5.78394 80.2348 6.26359 80.2827 6.75123 80.3227C6.7912 79.3396 6.84716 78.3246 6.91112 77.2936C6.97507 76.2626 7.03103 75.2635 7.08699 74.3125C7.11097 74.0487 7.19891 73.8649 7.35879 73.761C7.51868 73.6651 7.75051 73.6331 8.06228 73.6811C8.40603 73.729 8.63786 73.8089 8.77376 73.9368C8.90167 74.0647 8.97362 74.2725 8.97362 74.5682C8.97362 75.4793 8.94164 76.4544 8.90167 77.4934C8.8617 78.5324 8.81374 79.5314 8.75778 80.4985C9.18946 80.5385 9.59717 80.5704 9.98089 80.6104C10.3646 80.6503 10.7164 80.6743 11.0281 80.7063C11.3399 80.7383 11.6037 80.7543 11.8116 80.7622C12.0194 80.7702 12.1553 80.7782 12.2113 80.7862L12.2353 80.8182ZM6.77522 69.8767C6.7912 69.565 6.7992 69.2533 6.81519 68.9576C5.98379 68.8537 5.16838 68.7498 4.36097 68.6539C3.55355 68.558 2.73015 68.4621 1.90675 68.3502C1.50704 68.3023 1.22724 68.1744 1.07535 67.9746C0.923465 67.7748 0.867505 67.4471 0.907476 67.0075C0.979424 66.2323 1.40312 65.8806 2.19454 65.9525C3.40966 66.0724 4.66475 66.2083 5.95981 66.3601C7.24687 66.504 8.53394 66.6558 9.821 66.8237C11.1001 66.9835 12.3632 67.1514 13.6103 67.3352C14.8494 67.511 16.0325 67.7028 17.1597 67.8946C17.5914 67.9666 17.8712 68.1104 18.023 68.3342C18.1669 68.558 18.2149 68.8218 18.151 69.1335C18.095 69.4611 17.9511 69.6849 17.7273 69.8288C17.5034 69.9647 17.1597 70.0126 16.68 69.9726C14.0899 69.7409 11.4918 69.4851 8.88568 69.2054C8.87769 69.5011 8.8617 69.8128 8.84571 70.1245C8.82972 70.4362 8.81374 70.7319 8.79775 71.0116C8.78176 71.2914 8.76577 71.5311 8.75778 71.7389C8.74978 71.9467 8.73379 72.0986 8.7258 72.1865C8.69382 72.4982 8.5899 72.706 8.41403 72.8019C8.23016 72.8978 7.98234 72.9378 7.64658 72.9218C6.99106 72.8818 6.67929 72.5941 6.71126 72.0746C6.71926 71.9707 6.72725 71.8029 6.73524 71.5791C6.73524 71.3553 6.75123 71.0996 6.75923 70.8038C6.76722 70.5161 6.78321 70.2124 6.7992 69.9007L6.77522 69.8767Z" fill="white"/>
<path d="M140.774 48.3536C141.238 47.938 141.525 47.4025 141.717 46.8111C141.837 46.4434 141.829 46.0598 141.917 45.6842C142.189 44.5173 142.597 43.3904 143.108 42.3034C143.244 42.0077 143.372 41.712 143.412 41.3763C143.564 40.1775 142.868 39.2664 141.677 39.0825C140.886 38.9626 140.086 38.9626 139.303 38.8108C138.863 38.7309 138.432 38.611 138.04 38.3952C137.544 38.1155 137.033 37.8837 136.473 37.7478C136.185 37.6759 135.905 37.58 135.61 37.6359C135.234 37.7158 134.858 37.8197 134.546 38.0355C133.715 38.595 133.267 39.3703 133.347 40.3933C133.395 41.0886 133.643 41.72 134.027 42.2954C134.762 43.4064 135.458 44.5333 136.065 45.7161C136.377 46.3235 136.657 46.9629 137.049 47.5144C137.328 47.906 137.656 48.2497 138.096 48.5054C138.959 49.009 140.022 49.0409 140.79 48.3456L140.774 48.3536Z" fill="white"/>
<path d="M137.504 36.9881C137.816 37.3877 138.208 37.6115 138.728 37.5795C139.423 37.5395 139.919 37.1319 140.334 36.6444C140.71 36.1968 140.934 35.6693 141.078 35.1019C141.262 34.3746 141.254 33.6633 140.934 32.9839C140.614 32.2966 140.047 31.905 139.279 32.0328C138.983 32.0808 138.712 32.1927 138.464 32.3525C137.608 32.904 137.121 34.0149 137.025 34.998C136.961 35.7093 137.025 36.4046 137.488 37.004L137.504 36.9881Z" fill="white"/>
<path d="M141.757 37.5792C141.869 38.0987 142.125 38.4983 142.629 38.7221C143.084 38.9219 143.556 38.9059 144.02 38.7461C145.043 38.3944 145.754 37.6911 146.186 36.708C146.458 36.0846 146.522 35.2614 146.194 34.67C146.034 34.3743 145.77 34.1425 145.387 34.0146C144.859 33.8388 144.347 33.9267 143.86 34.1425C142.98 34.5341 142.357 35.1975 141.973 36.0766C141.765 36.5482 141.645 37.0437 141.757 37.5712V37.5792Z" fill="white"/>
<path d="M147.801 47.7856C147.801 47.7856 147.849 47.7536 147.873 47.7376C148.568 47.1862 148.544 46.2191 148.009 45.5717C147.705 45.2041 147.321 44.9483 146.905 44.7405C146.05 44.3249 145.155 44.205 144.219 44.4208C143.852 44.5088 143.532 44.6766 143.276 44.9563C142.876 45.4039 142.844 45.9634 143.172 46.4908C143.596 47.1702 144.219 47.5938 144.963 47.8415C145.786 48.1213 147.033 48.3211 147.809 47.7776L147.801 47.7856Z" fill="white"/>
<path d="M144.619 42.4318C144.723 42.5357 144.963 42.6955 145.227 42.7994C146.178 43.1831 147.121 43.1431 148.049 42.7275C148.52 42.5197 148.936 42.24 149.2 41.7684C149.528 41.185 149.52 40.6815 149.12 40.154C148.896 39.8583 148.576 39.6744 148.241 39.5466C147.465 39.2509 146.674 39.2429 145.882 39.5066C145.315 39.6984 144.811 39.9702 144.451 40.4737C143.996 41.1051 144.028 41.8084 144.627 42.4318H144.619Z" fill="white"/>
<path d="M21.7404 44.0211C21.1328 43.8533 20.5333 43.9012 19.9337 44.0611C19.558 44.157 19.2382 44.3728 18.8785 44.5006C17.7433 44.8923 16.5761 45.156 15.385 45.3079C15.0572 45.3478 14.7455 45.4038 14.4417 45.5476C13.3465 46.0671 12.9468 47.1381 13.4424 48.241C13.7702 48.9683 14.1939 49.6477 14.4896 50.391C14.6575 50.8066 14.7934 51.2302 14.8174 51.6777C14.8494 52.2452 14.9293 52.8046 15.1132 53.3481C15.2091 53.6278 15.2731 53.9236 15.4889 54.1393C15.7527 54.4111 16.0485 54.6748 16.4003 54.8267C17.3196 55.2343 18.2069 55.1863 19.0303 54.5789C19.5899 54.1633 19.9897 53.6119 20.2694 52.9885C20.8131 51.7736 21.3886 50.5828 22.0681 49.4399C22.4119 48.8484 22.8036 48.273 23.0594 47.6416C23.2433 47.202 23.3552 46.7305 23.3392 46.227C23.3072 45.2279 22.7556 44.3168 21.7564 44.0371L21.7404 44.0211Z" fill="white"/>
<path d="M79.8102 147.57C79.8742 148.193 80.138 148.737 80.5137 149.24C80.7456 149.552 81.0573 149.776 81.3052 150.063C82.0886 150.975 82.7601 151.966 83.3437 153.013C83.5036 153.3 83.6714 153.572 83.9113 153.804C84.7906 154.627 85.9418 154.603 86.7892 153.74C87.3488 153.172 87.8204 152.525 88.404 151.974C88.7318 151.662 89.0755 151.382 89.4832 151.198C90.0028 150.959 90.4905 150.679 90.9222 150.311C91.146 150.119 91.3938 149.952 91.5217 149.672C91.6816 149.328 91.8095 148.953 91.8255 148.577C91.8655 147.578 91.4978 146.763 90.6264 146.219C90.0348 145.852 89.3793 145.684 88.6918 145.652C87.3648 145.596 86.0457 145.492 84.7267 145.292C84.0552 145.188 83.3677 145.036 82.6882 145.028C82.2085 145.028 81.7368 145.084 81.2732 145.292C80.3539 145.692 79.7063 146.539 79.8182 147.57H79.8102Z" fill="white"/>
<path d="M90.9302 151.598C90.4266 151.614 90.0109 151.806 89.7311 152.237C89.3474 152.821 89.3873 153.46 89.5472 154.092C89.6831 154.659 89.9869 155.155 90.3626 155.602C90.8423 156.178 91.4179 156.593 92.1613 156.729C92.9048 156.873 93.5603 156.649 93.9041 155.954C94.04 155.682 94.1119 155.394 94.1279 155.107C94.1839 154.092 93.5683 153.037 92.8328 152.389C92.2892 151.918 91.6897 151.566 90.9382 151.59L90.9302 151.598Z" fill="white"/>
<path d="M87.9563 154.69C87.4687 154.482 86.997 154.45 86.5254 154.722C86.0937 154.978 85.8299 155.362 85.686 155.833C85.3742 156.872 85.5181 157.855 86.0617 158.782C86.4055 159.374 87.037 159.909 87.7085 159.989C88.0443 160.029 88.388 159.957 88.7078 159.725C89.1555 159.398 89.3953 158.942 89.4992 158.415C89.6991 157.472 89.5312 156.576 89.0435 155.753C88.7797 155.306 88.452 154.914 87.9563 154.698V154.69Z" fill="white"/>
<path d="M76.1489 153.589C76.1489 153.589 76.1489 153.644 76.1489 153.676C76.1889 154.556 76.9803 155.107 77.8197 155.051C78.2914 155.019 78.731 154.859 79.1388 154.644C79.9781 154.196 80.6017 153.541 80.9694 152.661C81.1133 152.318 81.1693 151.95 81.0893 151.582C80.9614 150.999 80.5217 150.647 79.9142 150.599C79.1148 150.543 78.4033 150.799 77.7717 151.255C77.0603 151.758 76.1649 152.645 76.1489 153.597V153.589Z" fill="white"/>
<path d="M82.3445 154.155C82.2006 154.179 81.9288 154.275 81.689 154.427C80.8176 154.971 80.298 155.754 80.0901 156.753C79.9862 157.256 79.9622 157.752 80.1861 158.248C80.4659 158.855 80.8815 159.143 81.5371 159.127C81.9128 159.127 82.2406 158.967 82.5523 158.767C83.2478 158.311 83.7195 157.68 83.9673 156.889C84.1512 156.321 84.2231 155.746 84.0313 155.162C83.7914 154.419 83.1999 154.036 82.3445 154.155Z" fill="white"/>
</svg>
