<svg width="192" height="34" viewBox="0 0 192 34" fill="none" xmlns="http://www.w3.org/2000/svg">
<g clip-path="url(#clip0_11_146)">
<path d="M62.4272 15.1212C60.3649 14.5947 57.1891 14.6969 55.5812 14.7889C51.7214 3.246 44.7057 4.53423 44.3761 4.60068C39.238 5.77645 35.0585 7.36117 31.8428 9.33441C28.7169 6.45634 24.2578 3.72142 17.9512 2.26449C16.8377 2.00889 16.2035 1.59993 15.4645 1.12451C15.0551 0.863802 14.6356 0.592865 14.1163 0.332152C13.1726 -0.138153 12.3936 -0.107481 11.8044 0.419056C10.9455 1.18075 10.7508 2.58144 12.1839 7.39695C9.29272 7.90304 3.71513 10.1779 2.18217 20.0594C1.38323 21.0614 -0.843815 24.2717 0.324634 27.4923C1.44814 30.585 5.28804 32.5327 11.7395 33.2842C14.5008 33.6062 17.2322 33.7596 19.8387 33.7596C23.8284 33.7596 27.5285 33.3915 30.6494 32.7116C31.5032 32.7934 32.5468 32.9161 33.5205 33.0337C37.0758 33.4529 41.6547 33.9948 45.7942 33.9948C48.99 33.9948 51.9161 33.6727 53.9035 32.7219C59.6359 29.9818 64.4245 21.1329 64.07 17.3449C63.9152 15.6784 62.8616 15.2337 62.4172 15.1212H62.4272ZM30.4546 30.125C29.9453 30.079 29.5308 30.0585 29.1863 30.0585C29.1314 30.0585 29.0814 30.0585 29.0315 30.0585C27.898 28.2386 25.2865 23.2646 27.0242 18.352C27.7932 16.1845 29.3061 14.2624 31.5282 12.5908C36.4866 17.9788 37.6151 24.2001 37.5053 26.2449C37.4803 26.7408 37.0309 27.2316 36.6614 27.5485C35.5029 28.5505 33.3508 29.4604 30.4546 30.125ZM12.0291 30.7435C5.26307 29.9512 3.20581 28.0597 2.67651 26.6079C1.82764 24.287 4.24443 21.5266 4.28937 21.4754L4.54902 21.1892L4.60395 20.7955C6.22679 9.4162 13.4522 9.78426 13.7518 9.80982L15.6243 9.9683L15.0401 8.1382C14.1563 5.37771 13.8167 3.84411 13.6919 3.00574C13.8417 3.09775 13.9865 3.19488 14.1413 3.29201C14.9552 3.81343 15.879 4.40643 17.4069 4.75916C22.7748 6.00137 26.7645 8.23021 29.7106 10.8118C27.2539 12.7339 25.5661 14.9678 24.6723 17.5034C22.7399 22.9937 25.0768 28.2744 26.5398 30.8049C22.4552 31.311 17.4868 31.3825 12.0291 30.7435ZM52.8599 30.4112C49.4744 32.0317 41.9543 31.4183 36.3268 30.7895C37.0808 30.3959 37.7399 29.9665 38.2742 29.5013C39.3578 28.5607 39.942 27.5127 40.0019 26.383C40.1018 24.4557 39.4077 19.4409 36.0372 14.2726C35.3981 13.2962 34.6141 12.2483 33.6703 11.1901C36.5615 9.52355 40.2965 8.15864 44.8855 7.11068C45.1102 7.06979 50.4281 6.25698 53.509 16.5168L53.8086 17.5085L54.8173 17.4165C54.8622 17.4165 59.1815 17.0229 61.6132 17.5545C61.9877 19.3846 58.2577 27.8348 52.8649 30.4112H52.8599Z" fill="#00AEEF"/>
<path d="M11.5346 15.2134H11.3548C10.5606 15.2134 9.91675 15.8725 9.91675 16.6856V18.6435C9.91675 19.4566 10.5606 20.1158 11.3548 20.1158H11.5346C12.3288 20.1158 12.9727 19.4566 12.9727 18.6435V16.6856C12.9727 15.8725 12.3288 15.2134 11.5346 15.2134Z" fill="#00AEEF"/>
<path d="M49.1596 14.4263H48.9798C48.1856 14.4263 47.5417 15.0854 47.5417 15.8985V17.8564C47.5417 18.6695 48.1856 19.3287 48.9798 19.3287H49.1596C49.9538 19.3287 50.5977 18.6695 50.5977 17.8564V15.8985C50.5977 15.0854 49.9538 14.4263 49.1596 14.4263Z" fill="#00AEEF"/>
<path d="M83.7487 24.1696C83.2094 23.7505 82.5403 23.4386 81.7513 23.2341C80.9624 23.0297 80.0635 22.953 79.0649 23.0041C78.0312 23.0552 77.1324 23.2444 76.3685 23.5767C75.6045 23.9089 74.9653 24.3179 74.461 24.8035C73.9517 25.2892 73.5722 25.8362 73.3225 26.4547C73.0728 27.0682 72.948 27.6816 72.948 28.295C72.948 28.9596 73.0828 29.5884 73.3475 30.1865C73.6121 30.7846 74.0066 31.3009 74.5359 31.7456C75.0602 32.1904 75.7243 32.5329 76.5233 32.7834C77.3222 33.0288 78.246 33.1361 79.2946 33.1003C80.3781 33.0645 81.3169 32.8856 82.1158 32.5636C82.9148 32.2415 83.5739 31.8274 84.0882 31.3265C84.6025 30.8255 84.977 30.2478 85.2117 29.5986C85.4464 28.9698 85.5463 28.3206 85.5113 27.656C85.4764 26.9404 85.3116 26.286 85.012 25.6879C84.7124 25.0898 84.2929 24.5837 83.7487 24.1645V24.1696ZM81.1271 29.527C80.7177 29.9718 80.0935 30.2069 79.2446 30.2427C78.4807 30.2785 77.8814 30.0894 77.462 29.6804C77.0376 29.2714 76.8079 28.7602 76.7729 28.1468C76.7579 27.8401 76.8029 27.5538 76.9077 27.2931C77.0176 27.0273 77.1774 26.7921 77.3971 26.5876C77.6118 26.3831 77.8765 26.2144 78.1811 26.0866C78.4906 25.9588 78.8352 25.8873 79.2197 25.8668C79.9537 25.831 80.5379 25.9844 80.9773 26.3167C81.4168 26.649 81.6564 27.1397 81.6864 27.789C81.7213 28.5046 81.5316 29.0823 81.1271 29.527Z" fill="black"/>
<path d="M87.6785 19.2264C86.6948 19.2264 85.6612 19.2366 84.5727 19.252C83.4841 19.2673 82.3556 19.2929 81.1872 19.3286V17.9484C82.1359 17.8973 83.0547 17.8411 83.9485 17.7848C84.8373 17.7235 85.6662 17.6519 86.4302 17.565C86.7298 17.5292 86.9545 17.4065 87.1043 17.1969C87.2541 16.9822 87.329 16.6244 87.329 16.1132C87.329 15.6889 87.2491 15.3464 87.0893 15.0908C86.9295 14.8352 86.7048 14.7074 86.4002 14.7074C84.5527 14.7074 82.7701 14.7227 81.0424 14.7585C79.3196 14.7943 77.552 14.8199 75.7394 14.8352C75.3399 14.8352 75.1402 14.6409 75.1402 14.2473L75.1901 12.7648C76.1738 12.7495 77.1026 12.729 77.9864 12.7035C78.8702 12.6779 79.7441 12.6524 80.6079 12.6268C81.4718 12.6012 82.3506 12.5655 83.2394 12.5246C84.1283 12.4837 85.082 12.4274 86.1006 12.361C86.8496 12.3099 87.2241 11.7117 87.2241 10.5718C87.2241 10.0248 87.1143 9.61071 86.8996 9.32955C86.6849 9.04839 86.4102 8.91037 86.0757 8.91037C84.8623 8.89503 83.6838 8.87969 82.5404 8.86947C81.4019 8.85925 80.2634 8.86947 79.1349 8.87969C78.0014 8.89503 76.8629 8.92059 75.7144 8.94104C74.566 8.9666 73.3775 9.00238 72.1442 9.05861C71.4601 9.0944 71.1105 9.43179 71.0956 10.081C71.0306 11.3744 70.9807 12.5194 70.9607 13.5061C70.9358 14.4927 70.9408 15.4486 70.9707 16.3688C71.0057 17.0845 71.1605 17.5548 71.4301 17.7848C71.7048 18.0149 72.1891 18.1273 72.8932 18.1273H74.9255C75.6345 18.1273 76.3636 18.112 77.1126 18.0762V19.4309C75.999 19.4667 74.9055 19.5025 73.8419 19.5434C72.7783 19.5842 71.7447 19.6251 70.746 19.6609C70.3615 19.6763 70.1318 19.8398 70.047 20.1466C69.9621 20.4533 69.9221 20.7753 69.9221 21.1179C69.9221 21.2712 69.9321 21.4348 69.9471 21.6188C69.9621 21.8029 69.997 21.9613 70.047 22.1045C70.0969 22.2476 70.1768 22.3754 70.2866 22.4776C70.3965 22.5799 70.5413 22.631 70.7261 22.631C71.9594 22.6157 73.3076 22.585 74.7807 22.539C76.2537 22.4981 77.7467 22.4521 79.2647 22.401C80.7777 22.3498 82.2657 22.2936 83.7188 22.2323C85.1769 22.1709 86.5051 22.0994 87.7035 22.0176C88.0181 22.0022 88.2378 21.8386 88.3526 21.5319C88.4675 21.2252 88.5274 20.9031 88.5274 20.5606C88.5274 20.2181 88.4775 19.9114 88.3776 19.6405C88.2777 19.3695 88.0431 19.2315 87.6785 19.2315V19.2264Z" fill="black"/>
<path d="M91.1239 15.5969C91.1589 16.2461 91.3037 16.7267 91.5633 17.0385C91.823 17.3555 92.2674 17.5037 92.9015 17.4884C93.3509 17.473 93.9352 17.4577 94.6492 17.4526C95.3633 17.4424 96.1522 17.427 97.0061 17.4015C97.8649 17.3759 98.7438 17.3503 99.6526 17.3248C100.561 17.2992 101.435 17.2737 102.274 17.2481C103.113 17.2225 103.887 17.1868 104.581 17.1459C105.28 17.105 105.839 17.0538 106.254 17.0078C106.618 16.9721 106.883 16.8698 107.043 16.7011C107.203 16.5324 107.297 16.2052 107.327 15.7298C107.342 15.3362 107.362 14.8659 107.377 14.3087C107.392 13.7566 107.407 13.1892 107.417 12.6115C107.427 12.0338 107.427 11.4766 107.427 10.9501C107.427 10.4236 107.417 9.99415 107.402 9.6721C107.367 9.14556 107.093 8.8644 106.578 8.82861H104.956C104.192 8.82861 103.313 8.82861 102.324 8.83884C101.335 8.84906 100.292 8.85929 99.2032 8.87462C98.1146 8.88996 97.081 8.9104 96.1073 8.92574C95.1336 8.94108 94.2747 8.96153 93.5257 8.97686C92.7767 8.9922 92.2524 9.01265 91.9528 9.02798C91.6382 9.04332 91.3836 9.15067 91.1938 9.34493C91.0041 9.53918 90.9092 9.83568 90.9092 10.2293C90.9092 11.1495 90.9391 12.1003 90.9941 13.0767C91.054 14.0582 91.0989 14.8966 91.1289 15.5969H91.1239ZM103.333 12.3508C103.348 12.6422 103.363 12.9642 103.373 13.3221C103.383 13.6799 103.388 13.9509 103.388 14.14V14.1656C103.388 14.3343 103.353 14.4416 103.288 14.4825C103.223 14.5234 103.103 14.5541 102.938 14.5745C102.723 14.5899 102.409 14.6052 101.999 14.6103C101.59 14.6205 101.141 14.6256 100.651 14.6359C100.162 14.6461 99.6426 14.6461 99.1033 14.6461H97.5454C97.046 14.6461 96.5966 14.6461 96.1972 14.6563C95.7977 14.6665 95.4881 14.6665 95.2734 14.6665C95.2584 14.5643 95.2434 14.416 95.2334 14.2167C95.2235 14.0224 95.2135 13.8077 95.1935 13.5777C95.1785 13.3476 95.1635 13.1227 95.1535 12.9029C95.1436 12.6831 95.1336 12.4939 95.1186 12.3406H103.333V12.3508Z" fill="black"/>
<path d="M107.802 18.2041C106.588 18.2041 105.265 18.2194 103.847 18.245C102.429 18.2705 100.971 18.3063 99.4928 18.3472C98.0097 18.3881 96.5317 18.4341 95.0586 18.4852C93.5856 18.5364 92.1925 18.5875 90.8742 18.6386C90.4897 18.6539 90.26 18.8022 90.1751 19.0731C90.0902 19.3441 90.0503 19.6508 90.0503 19.9933C90.0503 20.1466 90.0603 20.3102 90.0753 20.4789C90.0902 20.6476 90.1252 20.801 90.1751 20.939C90.2251 21.077 90.305 21.1895 90.4148 21.2866C90.5247 21.3786 90.6695 21.4246 90.8542 21.4246C91.803 21.4093 92.8166 21.3837 93.9002 21.3633C94.9837 21.3377 96.0973 21.3071 97.2457 21.2713V22.4982C96.4618 22.5339 95.6878 22.5595 94.9088 22.5851C94.1349 22.6106 93.3409 22.6413 92.527 22.672C92.1775 22.6873 91.9678 22.8356 91.8879 23.1065C91.813 23.3774 91.778 23.6535 91.778 23.9244C91.778 24.3692 91.8379 24.6963 91.9528 24.9059C92.0676 25.1206 92.2674 25.2229 92.552 25.2229C94.2847 25.1871 96.0074 25.1513 97.7201 25.1104C99.4328 25.0695 101.156 25.0286 102.888 24.9928C102.888 25.1615 102.888 25.3098 102.873 25.4427C102.858 25.5756 102.863 25.7085 102.863 25.8619C101.151 25.9488 99.4528 26.0255 97.77 26.0919C96.0873 26.1584 94.3995 26.2299 92.7018 26.2964C92.517 26.3117 92.3922 26.3731 92.3273 26.4753C92.2624 26.5775 92.2274 26.7411 92.2274 26.961C92.2274 27.4875 92.2424 28.014 92.2773 28.5303C92.3123 29.0518 92.3423 29.5732 92.3772 30.1048C92.4122 30.6314 92.5719 31.0454 92.8666 31.3419C93.1612 31.6384 93.6605 31.7918 94.3795 31.7918C96.3419 31.756 98.3093 31.7305 100.272 31.7049C102.234 31.6793 104.216 31.6487 106.214 31.6129C106.414 31.6129 106.568 31.5515 106.678 31.434C106.788 31.3164 106.868 31.1681 106.928 30.9994C106.988 30.8307 107.018 30.662 107.028 30.4985C107.038 30.3349 107.043 30.202 107.043 30.1048C107.043 29.747 106.993 29.4812 106.893 29.3125C106.793 29.1438 106.578 29.0569 106.244 29.0569C104.611 29.0569 102.988 29.0671 101.375 29.0824C99.7624 29.0978 98.1296 29.108 96.4818 29.108V28.3668L105.495 28.0345C106.209 28.0191 106.593 27.6153 106.643 26.8332C106.693 26.1839 106.728 25.5398 106.753 24.9008C106.778 24.2618 106.798 23.6177 106.813 22.9736C106.813 22.447 106.613 22.1812 106.214 22.1812C105.365 22.217 104.536 22.2426 103.732 22.2579C102.923 22.2732 102.124 22.2988 101.32 22.3346V21.1333C102.504 21.0975 103.647 21.0515 104.756 20.9952C105.864 20.9339 106.893 20.8725 107.837 20.801C108.151 20.7856 108.371 20.6374 108.486 20.3511C108.601 20.07 108.661 19.7581 108.661 19.4207C108.661 19.0833 108.611 18.792 108.511 18.5517C108.411 18.3114 108.176 18.1938 107.812 18.1938L107.802 18.2041Z" fill="black"/>
<path d="M127.051 25.1562C126.102 25.1716 125.169 25.192 124.255 25.2074C123.341 25.2227 122.432 25.2482 121.534 25.284V22.6002C122.482 22.5849 123.346 22.5644 124.13 22.5491C124.914 22.5338 125.493 22.5133 125.878 22.498C126.242 22.4622 126.522 22.3804 126.712 22.2424C126.901 22.1044 127.016 21.859 127.046 21.5011C127.061 21.2813 127.086 20.8877 127.106 20.3254C127.131 19.7631 127.156 19.1189 127.181 18.393C127.206 17.6671 127.226 16.9003 127.241 16.0824C127.256 15.2645 127.276 14.4824 127.291 13.7309C127.306 12.9794 127.321 12.3046 127.331 11.7014C127.341 11.0982 127.346 10.6381 127.346 10.3314C127.346 9.46235 126.632 9.02783 125.199 9.02783C124.485 9.02783 123.95 9.15563 123.601 9.41123C123.251 9.66683 123.076 10.0145 123.076 10.4592V13.2708L115.262 13.552C115.247 12.9232 115.232 12.3609 115.222 11.865C115.212 11.3691 115.207 11.0215 115.207 10.817C115.172 10.2905 114.972 9.92755 114.608 9.73329C114.243 9.53903 113.734 9.45724 113.085 9.48791C112.271 9.5237 111.702 9.67706 111.377 9.94799C111.052 10.2189 110.898 10.6126 110.918 11.1238C110.918 11.3794 110.933 11.7832 110.958 12.3404C110.983 12.8925 111.003 13.5213 111.018 14.2165C111.032 14.9169 111.057 15.6479 111.077 16.4147C111.097 17.1815 111.127 17.9023 111.152 18.5771C111.177 19.2519 111.202 19.8346 111.227 20.3305C111.252 20.8264 111.272 21.1586 111.287 21.3273C111.387 22.2475 111.861 22.7076 112.71 22.7076C112.96 22.7076 113.514 22.7076 114.373 22.6974C115.232 22.6871 116.216 22.6769 117.329 22.6565V25.4425C116.48 25.4783 115.626 25.5192 114.773 25.5703C113.914 25.6214 113.03 25.6623 112.116 25.6981C111.682 25.7134 111.337 25.877 111.077 26.1837C110.818 26.4905 110.698 26.925 110.713 27.4873C110.713 28.0854 110.848 28.5148 111.112 28.7755C111.377 29.0414 111.747 29.1692 112.211 29.1692C114.773 29.118 117.244 29.0209 119.626 28.8727C122.008 28.7295 124.41 28.5302 126.841 28.2746C127.206 28.2388 127.531 28.1059 127.815 27.8809C128.1 27.6509 128.24 27.2215 128.24 26.5927C128.225 26.148 128.11 25.8003 127.905 25.5447C127.695 25.2891 127.411 25.1613 127.041 25.1613L127.051 25.1562ZM119.012 19.3285C118.278 19.3439 117.579 19.3643 116.915 19.3797C116.251 19.395 115.741 19.4052 115.392 19.4052C115.377 19.2519 115.362 18.9502 115.352 18.5004C115.342 18.0505 115.332 17.5189 115.312 16.9054L123.101 16.6243L123.126 18.7713C123.126 18.9605 123.081 19.0883 122.987 19.1547C122.897 19.2212 122.782 19.257 122.652 19.257C122.288 19.257 121.768 19.2672 121.104 19.2825C120.44 19.2979 119.741 19.3183 119.007 19.3337L119.012 19.3285Z" fill="black"/>
<path d="M145.826 13.9863C146.076 13.9709 146.301 13.9556 146.501 13.9505C146.7 13.9403 146.85 13.93 146.95 13.9096C147.334 13.8738 147.639 13.7256 147.859 13.4597C148.083 13.1939 148.178 12.7492 148.148 12.1204C148.098 11.0315 147.689 10.4948 146.925 10.5101C146.161 10.5459 145.267 10.5714 144.253 10.5868C143.24 10.6021 142.171 10.6277 141.058 10.6635V9.51325C141.058 9.24232 141.023 8.99183 140.958 8.76179C140.893 8.53175 140.768 8.33749 140.583 8.17391C140.399 8.01032 140.144 7.89275 139.809 7.81607C139.475 7.73939 139.05 7.70871 138.536 7.72405C138.037 7.73938 137.627 7.80584 137.313 7.91831C136.998 8.03077 136.753 8.17391 136.589 8.35283C136.424 8.53175 136.314 8.74645 136.264 8.99183C136.214 9.2372 136.189 9.49792 136.189 9.76885V10.7913C135.106 10.827 134.097 10.8577 133.158 10.8935C132.219 10.9293 131.421 10.96 130.771 10.9957C130.337 11.0315 130.032 11.2104 129.848 11.5427C129.663 11.875 129.583 12.33 129.598 12.9127C129.613 13.562 129.733 14.0067 129.947 14.2521C130.162 14.4975 130.462 14.6202 130.846 14.6202H131.995C132.229 14.6202 132.459 14.6202 132.694 14.6099C132.929 14.5997 133.128 14.5997 133.293 14.5997C133.058 14.7377 132.839 14.932 132.629 15.1876C132.419 15.4432 132.244 15.7346 132.095 16.0566C131.945 16.3787 131.83 16.7263 131.745 17.0893C131.66 17.4573 131.62 17.8152 131.62 18.173C131.62 19.6913 132.105 20.9488 133.068 21.9559C134.032 22.963 135.365 23.6071 137.063 23.8985V25.8921C136.214 25.9279 135.36 25.9688 134.506 26.0199C133.653 26.0711 132.764 26.112 131.85 26.1477C131.416 26.1631 131.071 26.3164 130.811 26.6078C130.552 26.8992 130.432 27.3235 130.447 27.8858C130.447 28.4839 130.582 28.9031 130.846 29.1536C131.111 29.399 131.48 29.5268 131.945 29.5268C134.506 29.4757 136.978 29.3785 139.36 29.2303C141.742 29.0872 144.144 28.8878 146.575 28.6322C146.94 28.5964 147.264 28.4737 147.549 28.259C147.834 28.0443 147.974 27.6251 147.974 26.9912C147.959 26.5465 147.844 26.2091 147.639 25.9688C147.429 25.7286 147.145 25.611 146.775 25.611C145.826 25.6263 144.893 25.6468 143.979 25.6621C143.065 25.6774 142.156 25.703 141.257 25.7388V23.7451C141.992 23.556 142.666 23.2799 143.28 22.917C143.894 22.5489 144.423 22.1195 144.863 21.6287C145.302 21.1329 145.647 20.5859 145.886 19.9775C146.126 19.3743 146.246 18.72 146.246 18.0248C146.246 17.6158 146.191 17.2068 146.081 16.7979C145.971 16.3889 145.831 16.0055 145.657 15.6477C145.482 15.2898 145.282 14.9729 145.057 14.6866C144.833 14.4054 144.598 14.1959 144.348 14.0629C144.563 14.0476 144.803 14.0323 145.057 14.022C145.317 14.0118 145.572 14.0016 145.821 13.9812L145.826 13.9863ZM141.907 18.7149C141.742 19.1085 141.507 19.4408 141.208 19.7117C140.908 19.9827 140.553 20.1923 140.149 20.3405C139.739 20.4836 139.305 20.5552 138.841 20.5552C138.406 20.5552 138.002 20.4887 137.627 20.3507C137.253 20.2127 136.923 20.0133 136.644 19.7526C136.359 19.4868 136.134 19.1698 135.969 18.7916C135.805 18.4184 135.72 17.989 135.72 17.5136C135.72 17.0381 135.805 16.5985 135.969 16.1947C136.134 15.7959 136.364 15.4534 136.659 15.1723C136.948 14.8911 137.303 14.6713 137.717 14.5077C138.132 14.3441 138.591 14.2623 139.09 14.2623C139.505 14.2623 139.899 14.3339 140.279 14.477C140.653 14.6202 140.983 14.8297 141.262 15.1058C141.547 15.3767 141.767 15.709 141.927 16.1026C142.086 16.4963 142.161 16.9308 142.161 17.4062C142.161 17.8816 142.076 18.3161 141.912 18.7098L141.907 18.7149Z" fill="black"/>
<path d="M168.921 28.07C168.406 28.07 167.737 28.0802 166.923 28.0955C166.109 28.1109 165.256 28.1313 164.367 28.1466C163.478 28.162 162.624 28.1773 161.81 28.1875C160.996 28.1978 160.327 28.1978 159.813 28.1978C159.563 28.1978 159.438 28.0444 159.438 27.7377C159.423 27.16 159.408 26.5619 159.398 25.9485C159.388 25.335 159.378 24.7574 159.358 24.2104C159.343 23.7656 159.263 23.4487 159.124 23.2493C158.984 23.0551 158.694 22.9375 158.26 22.9068C157.96 22.871 157.561 22.8659 157.061 22.8966C156.562 22.9222 156.128 22.9835 155.763 23.0909C155.214 23.2442 154.939 23.7299 154.939 24.5478C154.939 24.9925 154.949 25.4577 154.964 25.9536C154.979 26.4495 155.004 26.9351 155.024 27.4258C155.049 27.9115 155.079 28.3665 155.109 28.7908C155.144 29.2151 155.174 29.5831 155.209 29.8898C155.344 31.0809 155.993 31.6637 157.156 31.6279C158.02 31.6126 159.019 31.587 160.152 31.5512C161.286 31.5155 162.414 31.4797 163.538 31.4337C164.661 31.3928 165.715 31.3468 166.699 31.2956C167.682 31.2445 168.471 31.1832 169.07 31.1167C169.335 31.0809 169.555 30.9276 169.72 30.6566C169.884 30.401 169.954 29.9819 169.919 29.4042C169.869 28.5198 169.535 28.0751 168.921 28.0751V28.07Z" fill="black"/>
<path d="M159.258 16.466C159.423 16.4813 159.713 16.4916 160.122 16.4916C160.532 16.4916 160.976 16.4762 161.455 16.4404C161.455 17.0539 161.455 17.6571 161.465 18.2552C161.475 18.8533 161.485 19.4054 161.505 19.9166C161.525 20.4278 161.535 20.8828 161.545 21.2866C161.555 21.6854 161.565 21.9972 161.585 22.217C161.62 22.7793 161.78 23.1525 162.07 23.3416C162.359 23.5308 162.764 23.6228 163.278 23.6228C163.827 23.6228 164.262 23.5308 164.576 23.3416C164.891 23.1525 165.066 22.8049 165.101 22.2937C165.151 21.3377 165.185 20.3102 165.21 19.2009C165.235 18.0916 165.25 16.9976 165.25 15.919C165.25 14.8404 165.25 13.818 165.24 12.862C165.23 11.9061 165.225 11.0984 165.225 10.4338C165.225 10.0095 165.086 9.66701 164.801 9.41141C164.516 9.15581 164.012 9.03824 163.278 9.05357C162.544 9.06891 162.055 9.21716 161.805 9.48809C161.555 9.75903 161.43 10.1271 161.43 10.5872V12.7853C160.931 12.8211 160.467 12.8467 160.032 12.8722C159.598 12.8978 159.298 12.9285 159.134 12.9592C158.734 13.0461 158.424 13.2148 158.21 13.4704C157.995 13.726 157.895 14.1707 157.91 14.7995C157.945 15.326 158.055 15.7299 158.25 16.0008C158.439 16.2717 158.779 16.4251 159.258 16.4609V16.466Z" fill="black"/>
<path d="M168.371 9.00244C167.657 9.00244 167.173 9.13535 166.923 9.40118C166.674 9.667 166.549 10.0197 166.549 10.4594V22.8816C166.549 23.4439 166.679 23.8375 166.933 24.0573C167.193 24.2771 167.572 24.4049 168.072 24.4407C169.205 24.4918 169.819 24.0318 169.919 23.0605C169.954 22.6873 169.984 22.1812 170.019 21.5524C170.054 20.9237 170.079 20.2182 170.109 19.4463C170.134 18.6693 170.159 17.8616 170.184 17.0181C170.209 16.1746 170.234 15.3464 170.259 14.5388C170.284 13.7311 170.304 12.9694 170.319 12.2639C170.334 11.5584 170.354 10.9552 170.369 10.4645C170.384 10.0709 170.254 9.73346 169.969 9.44207C169.685 9.15069 169.155 9.00755 168.371 9.00755V9.00244Z" fill="black"/>
<path d="M155.753 19.9779C156.013 20.2744 156.267 20.5658 156.527 20.847C156.787 21.1281 157.036 21.3889 157.276 21.624C157.516 21.8643 157.73 22.0585 157.91 22.2119C158.01 22.2988 158.125 22.3397 158.25 22.3397C158.375 22.3397 158.484 22.3244 158.584 22.2886C158.799 22.2221 159.029 22.1148 159.273 21.9716C159.513 21.8285 159.733 21.6547 159.923 21.4502C160.112 21.2457 160.272 21.0157 160.397 20.7601C160.522 20.5045 160.592 20.2489 160.607 19.9933C160.622 19.8246 160.607 19.6917 160.547 19.5996C160.487 19.5076 160.417 19.4054 160.337 19.3083C159.853 18.7102 159.298 18.0763 158.674 17.4015C158.05 16.7267 157.406 16.0315 156.737 15.3158C156.752 15.0448 156.762 14.6768 156.762 14.2167V12.77C156.762 12.269 156.762 11.7732 156.752 11.2875C156.742 10.8019 156.732 10.3878 156.712 10.0504C156.697 9.83059 156.662 9.62611 156.612 9.43697C156.562 9.24782 156.457 9.09446 156.302 8.96666C156.143 8.83886 155.923 8.74684 155.638 8.70084C155.354 8.64972 154.974 8.63438 154.49 8.64972C154.04 8.6855 153.676 8.74173 153.391 8.82864C153.107 8.91554 152.887 9.03312 152.727 9.18648C152.567 9.33984 152.467 9.52898 152.418 9.7488C152.368 9.96862 152.343 10.2242 152.343 10.5156C152.343 10.807 152.353 11.1751 152.368 11.6249C152.383 12.0748 152.408 12.5553 152.428 13.0563C152.452 13.5572 152.482 14.0633 152.512 14.5643C152.547 15.0653 152.577 15.5049 152.612 15.8832C152.348 16.2922 152.073 16.7011 151.788 17.1101C151.504 17.5191 151.229 17.9229 150.964 18.3268C150.7 18.7255 150.45 19.1038 150.215 19.4514C149.981 19.799 149.776 20.1108 149.591 20.3818C149.342 20.7754 149.277 21.1486 149.392 21.5064C149.456 21.7109 149.556 21.9103 149.691 22.1045C149.826 22.2988 149.981 22.4777 150.166 22.6413C150.35 22.8049 150.545 22.9378 150.755 23.0503C150.964 23.1627 151.164 23.219 151.364 23.219C151.798 23.2343 152.153 23.0809 152.437 22.7589C152.837 22.3141 153.246 21.7927 153.671 21.1844C154.095 20.5812 154.55 19.8859 155.034 19.0987C155.249 19.3901 155.488 19.6814 155.748 19.9831L155.753 19.9779Z" fill="black"/>
<path d="M191.855 9.80485C191.765 9.61059 191.586 9.4419 191.316 9.30387C190.931 9.11473 190.482 9.0176 189.968 9.01249C189.453 9.00226 188.994 9.09428 188.595 9.27831C188.095 9.49813 187.836 9.9531 187.821 10.633C187.786 11.5378 187.766 12.412 187.761 13.2657C187.751 14.1194 187.741 14.968 187.721 15.8217C187.256 15.837 186.822 15.8626 186.422 15.8984C186.038 15.9137 185.773 15.9393 185.623 15.975C185.224 16.062 184.914 16.2306 184.685 16.4863C184.46 16.7419 184.365 17.1866 184.4 17.8154C184.435 18.3419 184.545 18.7458 184.735 19.0167C184.924 19.2876 185.264 19.441 185.743 19.4768C185.893 19.4921 186.143 19.5023 186.492 19.5023C186.842 19.5023 187.231 19.4921 187.666 19.4768V23.6584C187.666 25.0489 187.676 26.4802 187.691 27.9627C187.691 28.3052 187.771 28.571 187.925 28.7704C188.085 28.9647 188.27 29.1078 188.485 29.1896C188.719 29.2765 188.999 29.3276 189.334 29.343C189.668 29.3583 189.923 29.3327 190.108 29.2663C190.392 29.164 190.647 28.9953 190.872 28.7653C191.096 28.5353 191.226 28.2337 191.261 27.8605C191.546 25.0131 191.745 22.1401 191.86 19.2314C191.975 16.3278 192.02 13.4497 191.985 10.6023C191.985 10.2598 191.94 9.99399 191.85 9.79463L191.855 9.80485Z" fill="black"/>
<path d="M185.863 23.1474C185.653 22.9685 185.394 22.8867 185.074 22.902C183.911 22.9685 182.677 23.0298 181.379 23.0809C180.081 23.1321 178.817 23.1934 177.584 23.2599C177.434 23.2599 177.314 23.219 177.225 23.1423C177.135 23.0656 177.085 22.9225 177.085 22.718V20.2131C177.584 20.2131 178.103 20.2131 178.643 20.2029C179.182 20.1927 179.706 20.1824 180.216 20.162C180.725 20.1466 181.189 20.1262 181.614 20.1109C182.038 20.0955 182.393 20.0751 182.672 20.0597C183.037 20.024 183.306 19.8859 183.481 19.6354C183.656 19.3901 183.736 18.9658 183.716 18.3677C183.681 17.7696 183.576 17.3811 183.391 17.1919C183.207 17.0028 182.967 16.921 182.667 16.9363C182.418 16.9363 182.083 16.9363 181.654 16.9465C181.229 16.9568 180.76 16.9619 180.241 16.9721C179.726 16.9823 179.197 16.9874 178.658 16.9976C178.118 17.0079 177.599 17.0181 177.1 17.0334C177.115 16.4353 177.125 15.8474 177.125 15.2596V13.5828C178.338 13.5317 179.472 13.4857 180.52 13.4448C181.569 13.4039 182.682 13.3119 183.866 13.179C184.615 13.0921 184.964 12.4633 184.914 11.2875C184.879 10.6894 184.769 10.2754 184.58 10.0351C184.39 9.79482 184.14 9.67725 183.841 9.67725C182.178 9.71303 180.525 9.75393 178.887 9.80505C177.249 9.85617 175.557 9.94307 173.809 10.0606C173.425 10.0964 173.165 10.1987 173.02 10.3674C172.88 10.5361 172.8 10.8121 172.785 11.1853C172.77 12.1924 172.765 13.317 172.77 14.5694C172.78 15.8219 172.795 17.0846 172.82 18.3626C172.845 19.6406 172.88 20.8828 172.92 22.079C172.96 23.2803 173.005 24.3232 173.06 25.2075C173.095 25.7187 173.26 26.1175 173.559 26.4089C173.859 26.7002 174.248 26.8332 174.733 26.8178C175.647 26.8025 176.595 26.7565 177.564 26.69C178.538 26.6236 179.482 26.5469 180.4 26.46C181.314 26.3731 182.183 26.2862 182.997 26.1942C183.811 26.1021 184.535 25.9999 185.169 25.8977C185.484 25.8465 185.748 25.683 185.958 25.412C186.168 25.1411 186.253 24.7321 186.218 24.1851C186.183 23.6586 186.063 23.3059 185.858 23.127L185.863 23.1474Z" fill="black"/>
</g>
<defs>
<clipPath id="clip0_11_146">
<rect width="192" height="34" fill="white"/>
</clipPath>
</defs>
</svg>
