<svg width="91" height="16" viewBox="0 0 91 16" fill="none" xmlns="http://www.w3.org/2000/svg">
<g clip-path="url(#clip0_11_146)">
<path d="M29.5878 7.11612C28.6104 6.86834 27.1052 6.91645 26.3431 6.95975C24.5137 1.52779 21.1886 2.13401 21.0324 2.16529C18.5971 2.71859 16.6162 3.46434 15.0921 4.39292C13.6105 3.03854 11.4971 1.75151 8.50806 1.0659C7.98029 0.94562 7.67973 0.753167 7.32947 0.529442C7.1354 0.406753 6.9366 0.279254 6.69047 0.156565C6.24317 -0.0647547 5.87398 -0.0503208 5.59471 0.197461C5.18765 0.555904 5.09535 1.21505 5.77458 3.48118C4.40429 3.71934 1.76074 4.78985 1.03418 9.43998C0.655517 9.91149 -0.400008 11.4222 0.153788 12.9378C0.686284 14.3932 2.50624 15.3098 5.56395 15.6634C6.8727 15.815 8.16726 15.8871 9.40265 15.8871C11.2936 15.8871 13.0473 15.7139 14.5264 15.394C14.9311 15.4325 15.4258 15.4902 15.8873 15.5455C17.5723 15.7428 19.7425 15.9978 21.7045 15.9978C23.2191 15.9978 24.606 15.8462 25.5479 15.3988C28.2648 14.1094 30.5345 9.94517 30.3664 8.16258C30.2931 7.37834 29.7937 7.16904 29.5831 7.11612H29.5878ZM14.4341 14.1767C14.1927 14.1551 13.9963 14.1454 13.833 14.1454C13.807 14.1454 13.7833 14.1454 13.7596 14.1454C13.2224 13.289 11.9847 10.9483 12.8083 8.63649C13.1727 7.6165 13.8898 6.71197 14.943 5.92532C17.2931 8.46088 17.8279 11.3886 17.7759 12.3508C17.764 12.5842 17.551 12.8151 17.3759 12.9643C16.8268 13.4358 15.8068 13.864 14.4341 14.1767ZM5.70121 14.4678C2.4944 14.0949 1.51934 13.2048 1.26848 12.5216C0.866149 11.4295 2.01161 10.1304 2.03291 10.1063L2.15597 9.97163L2.18201 9.7864C2.95117 4.43141 6.37571 4.60462 6.51771 4.61665L7.4052 4.69122L7.1283 3.83C6.7094 2.53095 6.54847 1.80925 6.48931 1.41472C6.5603 1.45802 6.62894 1.50373 6.7023 1.54944C7.08807 1.79482 7.5259 2.07387 8.25009 2.23986C10.7942 2.82443 12.6852 3.8733 14.0815 5.08815C12.9171 5.99268 12.1172 7.04395 11.6936 8.23716C10.7777 10.8208 11.8853 13.3059 12.5787 14.4967C10.6428 14.7348 8.28796 14.7685 5.70121 14.4678ZM25.0533 14.3114C23.4487 15.074 19.8845 14.7853 17.2173 14.4894C17.5747 14.3042 17.8871 14.1021 18.1403 13.8832C18.6539 13.4406 18.9308 12.9474 18.9592 12.4158C19.0065 11.5088 18.6775 9.1489 17.0801 6.71678C16.7771 6.2573 16.4056 5.76414 15.9583 5.26617C17.3286 4.48193 19.0988 3.83962 21.2738 3.34646C21.3803 3.32722 23.9007 2.94472 25.361 7.77286L25.503 8.23956L25.981 8.19626C26.0023 8.19626 28.0495 8.01102 29.202 8.26121C29.3795 9.12244 27.6116 13.099 25.0557 14.3114H25.0533Z" fill="#2FB1BE"/>
<path d="M5.46699 7.15918H5.38179C5.00536 7.15918 4.7002 7.46937 4.7002 7.85201V8.77337C4.7002 9.15601 5.00536 9.4662 5.38179 9.4662H5.46699C5.84342 9.4662 6.14858 9.15601 6.14858 8.77337V7.85201C6.14858 7.46937 5.84342 7.15918 5.46699 7.15918Z" fill="#2FB1BE"/>
<path d="M23.2996 6.78857H23.2144C22.838 6.78857 22.5328 7.09876 22.5328 7.4814V8.40277C22.5328 8.78541 22.838 9.0956 23.2144 9.0956H23.2996C23.6761 9.0956 23.9812 8.78541 23.9812 8.40277V7.4814C23.9812 7.09876 23.6761 6.78857 23.2996 6.78857Z" fill="#2FB1BE"/>
<path d="M39.6934 11.3741C39.4378 11.1768 39.1207 11.0301 38.7467 10.9338C38.3728 10.8376 37.9468 10.8015 37.4735 10.8256C36.9836 10.8496 36.5576 10.9386 36.1955 11.095C35.8334 11.2514 35.5305 11.4438 35.2914 11.6724C35.05 11.9009 34.8702 12.1583 34.7518 12.4494C34.6335 12.7381 34.5743 13.0267 34.5743 13.3154C34.5743 13.6282 34.6382 13.9241 34.7637 14.2055C34.8891 14.487 35.0761 14.73 35.3269 14.9392C35.5754 15.1485 35.8902 15.3097 36.2689 15.4276C36.6475 15.5431 37.0854 15.5936 37.5824 15.5767C38.0959 15.5599 38.5408 15.4757 38.9195 15.3241C39.2982 15.1726 39.6106 14.9777 39.8543 14.742C40.0981 14.5062 40.2756 14.2344 40.3868 13.9289C40.4981 13.633 40.5454 13.3275 40.5288 13.0147C40.5123 12.6779 40.4342 12.37 40.2922 12.0885C40.1502 11.8071 39.9514 11.5689 39.6934 11.3717V11.3741ZM38.4509 13.8952C38.2568 14.1045 37.961 14.2151 37.5587 14.232C37.1966 14.2488 36.9126 14.1598 36.7138 13.9674C36.5126 13.7749 36.4038 13.5343 36.3872 13.2457C36.3801 13.1013 36.4014 12.9666 36.4511 12.8439C36.5032 12.7188 36.5789 12.6082 36.683 12.5119C36.7848 12.4157 36.9102 12.3363 37.0546 12.2762C37.2013 12.216 37.3646 12.1824 37.5469 12.1727C37.8947 12.1559 38.1716 12.2281 38.3799 12.3844C38.5882 12.5408 38.7018 12.7717 38.716 13.0773C38.7325 13.4141 38.6426 13.6859 38.4509 13.8952Z" fill="white"/>
<path d="M41.5559 9.04772C41.0897 9.04772 40.5998 9.05253 40.0839 9.05975C39.568 9.06697 39.0331 9.07899 38.4793 9.09583V8.44631C38.929 8.42225 39.3644 8.39579 39.7881 8.36933C40.2093 8.34046 40.6022 8.30678 40.9643 8.26588C41.1063 8.24904 41.2128 8.19131 41.2838 8.09268C41.3548 7.99164 41.3903 7.82324 41.3903 7.58268C41.3903 7.38301 41.3524 7.22183 41.2767 7.10155C41.2009 6.98127 41.0944 6.92112 40.9501 6.92112C40.0744 6.92112 39.2295 6.92834 38.4107 6.94518C37.5942 6.96202 36.7564 6.97405 35.8973 6.98127C35.7079 6.98127 35.6133 6.88985 35.6133 6.70462L35.637 6.00698C36.1032 5.99976 36.5434 5.99014 36.9623 5.97811C37.3812 5.96608 37.7953 5.95405 38.2048 5.94202C38.6142 5.92999 39.0307 5.91315 39.452 5.89391C39.8733 5.87466 40.3253 5.8482 40.8081 5.81693C41.1631 5.79287 41.3406 5.51141 41.3406 4.97495C41.3406 4.71755 41.2885 4.52269 41.1867 4.39038C41.085 4.25807 40.9548 4.19311 40.7962 4.19311C40.2212 4.1859 39.6626 4.17868 39.1207 4.17387C38.5811 4.16906 38.0415 4.17387 37.5066 4.17868C36.9694 4.1859 36.4298 4.19792 35.8855 4.20755C35.3411 4.21958 34.7779 4.23641 34.1933 4.26288C33.8691 4.27972 33.7034 4.43849 33.6963 4.74401C33.6655 5.35264 33.6419 5.8915 33.6324 6.3558C33.6206 6.82009 33.6229 7.26994 33.6371 7.70296C33.6537 8.03975 33.7271 8.26107 33.8549 8.36933C33.985 8.47758 34.2146 8.53051 34.5483 8.53051H35.5115C35.8476 8.53051 36.1931 8.52329 36.5481 8.50645V9.14395C36.0203 9.16079 35.5021 9.17763 34.998 9.19687C34.4939 9.21612 34.004 9.23536 33.5306 9.2522C33.3484 9.25942 33.2395 9.3364 33.1993 9.48074C33.1591 9.62508 33.1401 9.77663 33.1401 9.93781C33.1401 10.01 33.1449 10.087 33.152 10.1736C33.1591 10.2602 33.1756 10.3347 33.1993 10.4021C33.223 10.4695 33.2608 10.5296 33.3129 10.5777C33.365 10.6258 33.4336 10.6499 33.5212 10.6499C34.1057 10.6427 34.7447 10.6282 35.4429 10.6066C36.141 10.5873 36.8487 10.5657 37.5681 10.5416C38.2852 10.5176 38.9905 10.4911 39.6792 10.4622C40.3702 10.4334 40.9998 10.3997 41.5678 10.3612C41.7169 10.354 41.821 10.277 41.8754 10.1327C41.9299 9.98833 41.9583 9.83678 41.9583 9.6756C41.9583 9.51442 41.9346 9.37008 41.8873 9.24258C41.8399 9.11508 41.7287 9.05013 41.5559 9.05013V9.04772Z" fill="white"/>
<path d="M43.1889 7.33987C43.2055 7.64539 43.2741 7.87152 43.3972 8.01826C43.5203 8.16741 43.7309 8.23718 44.0315 8.22996C44.2445 8.22274 44.5213 8.21553 44.8598 8.21312C45.1982 8.20831 45.5721 8.20109 45.9768 8.18907C46.3839 8.17704 46.8004 8.16501 47.2312 8.15298C47.6619 8.14095 48.0761 8.12892 48.4737 8.1169C48.8712 8.10487 49.2381 8.08803 49.567 8.06878C49.8984 8.04954 50.1634 8.02548 50.3599 8.00383C50.5326 7.98699 50.6581 7.93888 50.7338 7.85949C50.8095 7.7801 50.8545 7.62614 50.8687 7.40242C50.8758 7.21718 50.8853 6.99586 50.8924 6.73365C50.8995 6.47383 50.9066 6.20681 50.9113 5.93497C50.916 5.66313 50.916 5.40091 50.916 5.15313C50.916 4.90535 50.9113 4.70327 50.9042 4.55172C50.8876 4.30394 50.7575 4.17162 50.5137 4.15479H49.7445C49.3824 4.15479 48.9659 4.15479 48.4973 4.1596C48.0287 4.16441 47.5341 4.16922 47.0182 4.17644C46.5022 4.18365 46.0123 4.19328 45.5508 4.20049C45.0893 4.20771 44.6823 4.21733 44.3273 4.22455C43.9723 4.23177 43.7238 4.24139 43.5818 4.24861C43.4327 4.25582 43.312 4.30634 43.2221 4.39776C43.1321 4.48917 43.0872 4.6287 43.0872 4.81393C43.0872 5.24695 43.1014 5.6944 43.1274 6.15388C43.1558 6.61577 43.1771 7.0103 43.1913 7.33987H43.1889ZM48.9754 5.81228C48.9825 5.9494 48.9896 6.10096 48.9943 6.26935C48.999 6.43775 49.0014 6.56525 49.0014 6.65426V6.66629C49.0014 6.74567 48.9848 6.79619 48.9541 6.81544C48.9233 6.83468 48.8665 6.84912 48.7884 6.85874C48.6866 6.86596 48.5376 6.87317 48.3435 6.87558C48.1494 6.88039 47.9364 6.8828 47.7045 6.88761C47.4726 6.89242 47.2264 6.89242 46.9708 6.89242H46.2324C45.9958 6.89242 45.7828 6.89242 45.5934 6.89723C45.4041 6.90204 45.2574 6.90204 45.1556 6.90204C45.1485 6.85393 45.1414 6.78416 45.1367 6.69034C45.1319 6.59893 45.1272 6.49789 45.1177 6.38964C45.1106 6.28138 45.1035 6.17553 45.0988 6.07209C45.0941 5.96865 45.0893 5.87964 45.0822 5.80747H48.9754V5.81228Z" fill="white"/>
<path d="M51.0936 8.56633C50.5185 8.56633 49.8914 8.57355 49.2192 8.58558C48.5471 8.59761 47.856 8.61445 47.1555 8.63369C46.4526 8.65294 45.7521 8.67459 45.0539 8.69865C44.3558 8.7227 43.6955 8.74676 43.0707 8.77082C42.8884 8.77803 42.7796 8.8478 42.7393 8.9753C42.6991 9.1028 42.6802 9.24713 42.6802 9.40831C42.6802 9.48048 42.6849 9.55746 42.692 9.63685C42.6991 9.71624 42.7157 9.78841 42.7393 9.85336C42.763 9.91831 42.8009 9.97124 42.8529 10.0169C42.905 10.0602 42.9736 10.0819 43.0612 10.0819C43.5109 10.0747 43.9913 10.0627 44.5049 10.053C45.0184 10.041 45.5462 10.0266 46.0905 10.0097V10.5871C45.719 10.6039 45.3521 10.616 44.9829 10.628C44.6161 10.64 44.2398 10.6544 43.854 10.6689C43.6884 10.6761 43.589 10.7459 43.5511 10.8734C43.5156 11.0009 43.499 11.1308 43.499 11.2583C43.499 11.4676 43.5274 11.6215 43.5819 11.7201C43.6363 11.8212 43.731 11.8693 43.8659 11.8693C44.6871 11.8525 45.5036 11.8356 46.3153 11.8164C47.1271 11.7971 47.9436 11.7779 48.7648 11.761C48.7648 11.8404 48.7648 11.9102 48.7577 11.9727C48.7506 12.0353 48.753 12.0978 48.753 12.17C47.9412 12.2109 47.1366 12.247 46.339 12.2783C45.5415 12.3095 44.7415 12.3432 43.9369 12.3745C43.8493 12.3817 43.7901 12.4106 43.7594 12.4587C43.7286 12.5068 43.712 12.5838 43.712 12.6872C43.712 12.935 43.7191 13.1828 43.7357 13.4258C43.7523 13.6711 43.7665 13.9165 43.783 14.1667C43.7996 14.4145 43.8753 14.6093 44.015 14.7489C44.1546 14.8884 44.3913 14.9606 44.7321 14.9606C45.6622 14.9437 46.5946 14.9317 47.5247 14.9197C48.4548 14.9076 49.3944 14.8932 50.341 14.8764C50.4357 14.8764 50.509 14.8475 50.5611 14.7922C50.6132 14.7368 50.651 14.6671 50.6794 14.5877C50.7078 14.5083 50.722 14.4289 50.7268 14.3519C50.7315 14.2749 50.7339 14.2124 50.7339 14.1667C50.7339 13.9983 50.7102 13.8732 50.6629 13.7938C50.6156 13.7144 50.5138 13.6735 50.3552 13.6735C49.5813 13.6735 48.8122 13.6783 48.0477 13.6856C47.2833 13.6928 46.5094 13.6976 45.7284 13.6976V13.3488L50.0002 13.1924C50.3387 13.1852 50.5209 12.9951 50.5446 12.6271C50.5682 12.3216 50.5848 12.0184 50.5966 11.7177C50.6084 11.417 50.6179 11.1139 50.625 10.8108C50.625 10.563 50.5304 10.4379 50.341 10.4379C49.9387 10.4548 49.5458 10.4668 49.1648 10.474C48.7814 10.4812 48.4027 10.4933 48.0217 10.5101V9.94477C48.5826 9.92793 49.1246 9.90628 49.65 9.87982C50.1754 9.85095 50.6629 9.82209 51.1102 9.78841C51.2593 9.78119 51.3634 9.71143 51.4178 9.57671C51.4723 9.4444 51.5007 9.29765 51.5007 9.13888C51.5007 8.98011 51.477 8.84299 51.4297 8.72992C51.3823 8.61685 51.2711 8.56152 51.0983 8.56152L51.0936 8.56633Z" fill="white"/>
<path d="M60.217 11.8384C59.7674 11.8456 59.3248 11.8552 58.8917 11.8624C58.4586 11.8696 58.0279 11.8817 57.6019 11.8985V10.6355C58.0516 10.6283 58.461 10.6187 58.8326 10.6115C59.2041 10.6043 59.4786 10.5946 59.6609 10.5874C59.8336 10.5706 59.9662 10.5321 60.0561 10.4671C60.146 10.4022 60.2005 10.2867 60.2147 10.1183C60.2218 10.0149 60.2336 9.82965 60.2431 9.56503C60.2549 9.30041 60.2667 8.99729 60.2786 8.65569C60.2904 8.31409 60.2999 7.95324 60.307 7.56834C60.3141 7.18343 60.3235 6.81537 60.3306 6.46174C60.3377 6.10811 60.3448 5.79056 60.3496 5.50669C60.3543 5.22282 60.3567 5.00632 60.3567 4.86198C60.3567 4.45302 60.0182 4.24854 59.339 4.24854C59.0006 4.24854 58.7474 4.30868 58.5817 4.42896C58.416 4.54924 58.3332 4.71283 58.3332 4.92212V6.24523L54.6294 6.37754C54.6223 6.08164 54.6152 5.81702 54.6105 5.58367C54.6057 5.35032 54.6034 5.18674 54.6034 5.09051C54.5868 4.84273 54.4921 4.67193 54.3194 4.58052C54.1466 4.4891 53.9052 4.45061 53.5975 4.46504C53.2118 4.48188 52.942 4.55405 52.7881 4.68155C52.6343 4.80905 52.5609 4.99429 52.5704 5.23485C52.5704 5.35514 52.5775 5.54518 52.5893 5.8074C52.6012 6.06721 52.6106 6.3631 52.6177 6.69027C52.6248 7.01985 52.6367 7.36386 52.6461 7.7247C52.6556 8.08555 52.6698 8.42475 52.6816 8.7423C52.6935 9.05984 52.7053 9.33409 52.7171 9.56743C52.729 9.80078 52.7384 9.95715 52.7455 10.0365C52.7929 10.4696 53.0177 10.6861 53.42 10.6861C53.5384 10.6861 53.8011 10.6861 54.2081 10.6813C54.6152 10.6764 55.0814 10.6716 55.6092 10.662V11.9731C55.2068 11.9899 54.8022 12.0092 54.3975 12.0332C53.9904 12.0573 53.5715 12.0765 53.1384 12.0934C52.9325 12.1006 52.7692 12.1776 52.6461 12.3219C52.5231 12.4662 52.4663 12.6707 52.4734 12.9353C52.4734 13.2168 52.5373 13.4189 52.6627 13.5416C52.7881 13.6667 52.9633 13.7268 53.1834 13.7268C54.3975 13.7028 55.5689 13.657 56.6978 13.5873C57.8267 13.5199 58.9651 13.4261 60.1176 13.3058C60.2904 13.289 60.4442 13.2264 60.5791 13.1206C60.714 13.0123 60.7803 12.8103 60.7803 12.5144C60.7732 12.3051 60.7188 12.1415 60.6217 12.0212C60.5223 11.9009 60.3874 11.8408 60.2123 11.8408L60.217 11.8384ZM56.4067 9.09593C56.0588 9.10314 55.7275 9.11277 55.4127 9.11998C55.098 9.1272 54.8566 9.13201 54.6909 9.13201C54.6838 9.05984 54.6767 8.91791 54.672 8.70621C54.6673 8.49451 54.6625 8.24433 54.6531 7.95565L58.345 7.82334L58.3569 8.83371C58.3569 8.92272 58.3356 8.98286 58.2906 9.01413C58.248 9.04541 58.1936 9.06225 58.132 9.06225C57.9593 9.06225 57.7131 9.06706 57.3984 9.07428C57.0836 9.08149 56.7523 9.09112 56.4044 9.09833L56.4067 9.09593Z" fill="white"/>
<path d="M69.1157 6.58203C69.234 6.57481 69.3405 6.5676 69.4352 6.56519C69.5298 6.56038 69.6008 6.55557 69.6482 6.54595C69.8304 6.52911 69.9748 6.45934 70.0789 6.33425C70.1854 6.20915 70.2304 5.99986 70.2162 5.70397C70.1925 5.19156 69.9984 4.93897 69.6363 4.94619C69.2742 4.96303 68.8506 4.97505 68.3702 4.98227C67.8897 4.98949 67.3833 5.00152 66.8555 5.01836V4.47708C66.8555 4.34958 66.8389 4.23171 66.8082 4.12345C66.7774 4.0152 66.7182 3.92378 66.6307 3.8468C66.5431 3.76982 66.4224 3.71449 66.2638 3.67841C66.1053 3.64232 65.9041 3.62789 65.6604 3.63511C65.4237 3.64232 65.2296 3.6736 65.0805 3.72652C64.9314 3.77944 64.8155 3.8468 64.7374 3.931C64.6593 4.0152 64.6072 4.11624 64.5835 4.23171C64.5599 4.34718 64.548 4.46987 64.548 4.59737V5.0785C64.0345 5.09534 63.5564 5.10977 63.1115 5.12661C62.6665 5.14345 62.2879 5.15788 61.9802 5.17472C61.7743 5.19156 61.63 5.27576 61.5424 5.43213C61.4548 5.5885 61.417 5.8026 61.4241 6.07684C61.4312 6.38236 61.488 6.59165 61.5897 6.70712C61.6915 6.8226 61.8335 6.88033 62.0157 6.88033H62.56C62.6713 6.88033 62.7801 6.88033 62.8914 6.87552C63.0026 6.87071 63.0973 6.87071 63.1754 6.87071C63.0641 6.93566 62.96 7.02708 62.8606 7.14736C62.7612 7.26764 62.6784 7.40476 62.6074 7.55632C62.5364 7.70788 62.4819 7.87146 62.4417 8.04226C62.4015 8.21547 62.3825 8.38386 62.3825 8.55226C62.3825 9.26674 62.6121 9.85853 63.0689 10.3324C63.5256 10.8064 64.1575 11.1095 64.9622 11.2466V12.1848C64.5599 12.2016 64.1552 12.2209 63.7505 12.2449C63.3458 12.269 62.9245 12.2882 62.4914 12.3051C62.2855 12.3123 62.1222 12.3845 61.9992 12.5216C61.8761 12.6587 61.8193 12.8584 61.8264 13.123C61.8264 13.4045 61.8903 13.6017 62.0157 13.7196C62.1412 13.8351 62.3163 13.8952 62.5364 13.8952C63.7505 13.8712 64.922 13.8255 66.0509 13.7557C67.1797 13.6883 68.3181 13.5945 69.4707 13.4742C69.6434 13.4574 69.7973 13.3997 69.9322 13.2986C70.0671 13.1976 70.1333 13.0003 70.1333 12.702C70.1262 12.4927 70.0718 12.3339 69.9748 12.2209C69.8754 12.1078 69.7405 12.0525 69.5653 12.0525C69.1157 12.0597 68.6731 12.0693 68.24 12.0765C67.8069 12.0838 67.3762 12.0958 66.9502 12.1126V11.1744C67.2981 11.0854 67.6176 10.9555 67.9087 10.7847C68.1998 10.6115 68.4506 10.4094 68.6589 10.1785C68.8672 9.94513 69.0305 9.68773 69.1441 9.40146C69.2577 9.11759 69.3145 8.80966 69.3145 8.4825C69.3145 8.29004 69.2884 8.09759 69.2364 7.90514C69.1843 7.71269 69.118 7.53226 69.0352 7.36387C68.9524 7.19547 68.8577 7.04632 68.7512 6.9116C68.6447 6.77929 68.5335 6.68066 68.4151 6.61811C68.5169 6.6109 68.6305 6.60368 68.7512 6.59887C68.8743 6.59406 68.995 6.58925 69.1133 6.57962L69.1157 6.58203ZM67.2578 8.80726C67.1797 8.99249 67.0685 9.14886 66.9265 9.27636C66.7845 9.40386 66.6165 9.50249 66.4248 9.57226C66.2307 9.63962 66.0248 9.67329 65.8047 9.67329C65.5988 9.67329 65.4071 9.64202 65.2296 9.57707C65.0521 9.51212 64.8959 9.4183 64.7634 9.29561C64.6285 9.17051 64.522 9.02136 64.4439 8.84334C64.3658 8.66773 64.3256 8.46566 64.3256 8.24193C64.3256 8.0182 64.3658 7.81132 64.4439 7.62127C64.522 7.43363 64.6309 7.27245 64.7705 7.14014C64.9078 7.00783 65.0758 6.90439 65.2722 6.82741C65.4687 6.75043 65.6864 6.71194 65.923 6.71194C66.1195 6.71194 66.3064 6.74561 66.4863 6.81297C66.6638 6.88033 66.82 6.97896 66.9525 7.10887C67.0874 7.23637 67.1916 7.39274 67.2673 7.57797C67.343 7.76321 67.3785 7.96769 67.3785 8.19141C67.3785 8.41514 67.3383 8.61962 67.2602 8.80485L67.2578 8.80726Z" fill="white"/>
<path d="M80.0613 13.2096C79.8175 13.2096 79.5004 13.2144 79.1146 13.2217C78.7289 13.2289 78.3242 13.2385 77.9029 13.2457C77.4817 13.2529 77.077 13.2601 76.6912 13.265C76.3054 13.2698 75.9883 13.2698 75.7445 13.2698C75.6262 13.2698 75.567 13.1976 75.567 13.0533C75.5599 12.7814 75.5528 12.5 75.5481 12.2113C75.5434 11.9226 75.5386 11.6508 75.5292 11.3934C75.5221 11.1841 75.4842 11.0349 75.4179 10.9411C75.3517 10.8497 75.2144 10.7943 75.0085 10.7799C74.8665 10.7631 74.6772 10.7607 74.4405 10.7751C74.2039 10.7871 73.998 10.816 73.8252 10.8665C73.5649 10.9387 73.4347 11.1672 73.4347 11.5521C73.4347 11.7614 73.4394 11.9803 73.4465 12.2137C73.4536 12.447 73.4655 12.6756 73.4749 12.9065C73.4868 13.135 73.501 13.3492 73.5152 13.5488C73.5317 13.7485 73.5459 13.9217 73.5625 14.066C73.6264 14.6266 73.9341 14.9008 74.4855 14.884C74.8949 14.8767 75.3682 14.8647 75.9055 14.8479C76.4427 14.831 76.9776 14.8142 77.5101 14.7925C78.0426 14.7733 78.5419 14.7516 79.0081 14.7276C79.4744 14.7035 79.8483 14.6747 80.1323 14.6434C80.2577 14.6266 80.3619 14.5544 80.44 14.4269C80.5181 14.3066 80.5512 14.1093 80.5346 13.8375C80.511 13.4213 80.3524 13.212 80.0613 13.212V13.2096Z" fill="white"/>
<path d="M75.4819 7.74859C75.56 7.7558 75.6972 7.76061 75.8913 7.76061C76.0854 7.76061 76.296 7.7534 76.5232 7.73656C76.5232 8.02524 76.5232 8.3091 76.5279 8.59057C76.5326 8.87203 76.5374 9.13184 76.5468 9.3724C76.5563 9.61297 76.561 9.82707 76.5658 10.0171C76.5705 10.2048 76.5752 10.3515 76.5847 10.4549C76.6013 10.7196 76.677 10.8952 76.8143 10.9842C76.9515 11.0732 77.1432 11.1165 77.387 11.1165C77.6473 11.1165 77.8532 11.0732 78.0023 10.9842C78.1514 10.8952 78.2343 10.7316 78.2508 10.491C78.2745 10.0412 78.2911 9.55764 78.3029 9.03561C78.3147 8.51358 78.3218 7.99877 78.3218 7.49118C78.3218 6.98359 78.3218 6.50246 78.3171 6.0526C78.3124 5.60274 78.31 5.22265 78.31 4.90992C78.31 4.71025 78.2437 4.54907 78.1088 4.42879C77.9739 4.3085 77.7349 4.25317 77.387 4.26039C77.0391 4.26761 76.8072 4.33737 76.6888 4.46487C76.5705 4.59237 76.5113 4.76558 76.5113 4.98209V6.01652C76.2747 6.03336 76.0546 6.04538 75.8487 6.05741C75.6428 6.06944 75.5008 6.08388 75.4227 6.09831C75.2334 6.13921 75.0866 6.21859 74.9849 6.33887C74.8831 6.45916 74.8358 6.66845 74.8429 6.96434C74.8594 7.21213 74.9115 7.40217 75.0038 7.52967C75.0937 7.65717 75.2547 7.72934 75.4819 7.74618V7.74859Z" fill="white"/>
<path d="M79.801 4.23633C79.4625 4.23633 79.233 4.29887 79.1146 4.42397C78.9963 4.54906 78.9371 4.71505 78.9371 4.92194V10.7677C78.9371 11.0323 78.9987 11.2175 79.1194 11.321C79.2424 11.4244 79.4223 11.4846 79.659 11.5014C80.1962 11.5255 80.4873 11.3089 80.5346 10.8519C80.5512 10.6763 80.5654 10.4381 80.582 10.1422C80.5985 9.84631 80.6104 9.51433 80.6246 9.15108C80.6364 8.78542 80.6482 8.40533 80.6601 8.00839C80.6719 7.61146 80.6837 7.22174 80.6956 6.84165C80.7074 6.46156 80.7169 6.10311 80.724 5.77113C80.7311 5.43915 80.7405 5.15529 80.7476 4.92434C80.7547 4.73911 80.6932 4.58034 80.5583 4.44321C80.4234 4.30609 80.1725 4.23873 79.801 4.23873V4.23633Z" fill="white"/>
<path d="M73.8205 9.40147C73.9436 9.541 74.0643 9.67812 74.1874 9.81043C74.3104 9.94274 74.4288 10.0654 74.5424 10.1761C74.656 10.2892 74.7577 10.3806 74.8429 10.4527C74.8903 10.4936 74.9447 10.5129 75.0039 10.5129C75.063 10.5129 75.1151 10.5057 75.1624 10.4888C75.2642 10.4575 75.3731 10.407 75.489 10.3397C75.6026 10.2723 75.7068 10.1905 75.7967 10.0943C75.8866 9.99807 75.9624 9.88982 76.0215 9.76953C76.0807 9.64925 76.1138 9.52897 76.1209 9.40869C76.128 9.3293 76.1209 9.26675 76.0925 9.22345C76.0641 9.18015 76.031 9.13204 75.9931 9.08633C75.7636 8.80487 75.5009 8.50657 75.205 8.18902C74.9092 7.87147 74.6039 7.5443 74.2868 7.20751C74.2939 7.08001 74.2986 6.90681 74.2986 6.6903V6.0095C74.2986 5.77374 74.2986 5.5404 74.2939 5.31186C74.2891 5.08332 74.2844 4.88846 74.2749 4.72969C74.2678 4.62625 74.2513 4.53002 74.2276 4.44101C74.2039 4.352 74.1542 4.27983 74.0809 4.21969C74.0051 4.15955 73.901 4.11625 73.7661 4.0946C73.6312 4.07054 73.4513 4.06332 73.2218 4.07054C73.0088 4.08738 72.836 4.11384 72.7011 4.15474C72.5662 4.19564 72.4621 4.25096 72.3863 4.32313C72.3106 4.3953 72.2633 4.48431 72.2396 4.58776C72.2159 4.6912 72.2041 4.81148 72.2041 4.9486C72.2041 5.08573 72.2089 5.25893 72.216 5.47063C72.2231 5.68233 72.2349 5.90846 72.2444 6.14421C72.2562 6.37997 72.2704 6.61813 72.2846 6.85388C72.3011 7.08964 72.3153 7.29652 72.3319 7.47454C72.2065 7.66699 72.0763 7.85945 71.9414 8.0519C71.8065 8.24435 71.6764 8.4344 71.5509 8.62444C71.4255 8.81208 71.3072 8.9901 71.1959 9.15369C71.0847 9.31727 70.9877 9.46402 70.9001 9.59151C70.7818 9.77675 70.751 9.95236 70.8054 10.1208C70.8362 10.217 70.8835 10.3108 70.9474 10.4022C71.0113 10.4936 71.0847 10.5778 71.1723 10.6548C71.2598 10.7318 71.3521 10.7943 71.4515 10.8473C71.5509 10.9002 71.6456 10.9267 71.7403 10.9267C71.9462 10.9339 72.1142 10.8617 72.2491 10.7101C72.4384 10.5009 72.6325 10.2555 72.8336 9.9692C73.0348 9.68534 73.2502 9.35817 73.4797 8.9877C73.5815 9.12482 73.6951 9.26194 73.8182 9.40387L73.8205 9.40147Z" fill="white"/>
<path d="M90.9314 4.61396C90.8888 4.52255 90.8036 4.44316 90.6758 4.37821C90.4936 4.2892 90.2806 4.24349 90.0368 4.24108C89.793 4.23627 89.5753 4.27957 89.386 4.36618C89.1493 4.46962 89.0263 4.68372 89.0192 5.00368C89.0026 5.42948 88.9931 5.84084 88.9907 6.24259C88.986 6.64433 88.9813 7.04367 88.9718 7.44541C88.7517 7.45263 88.5458 7.46466 88.3565 7.4815C88.1743 7.48872 88.0488 7.50074 87.9778 7.51758C87.7885 7.55848 87.6418 7.63787 87.5329 7.75815C87.4264 7.87843 87.3814 8.08772 87.398 8.38362C87.4146 8.6314 87.4666 8.82145 87.5566 8.94895C87.6465 9.07645 87.8074 9.14862 88.0346 9.16546C88.1056 9.17267 88.224 9.17749 88.3896 9.17749C88.5553 9.17749 88.7399 9.17267 88.9458 9.16546V11.1333C88.9458 11.7876 88.9505 12.4612 88.9576 13.1588C88.9576 13.32 88.9955 13.4451 89.0689 13.5389C89.1446 13.6303 89.2321 13.6977 89.3339 13.7362C89.4451 13.7771 89.5777 13.8012 89.7362 13.8084C89.8948 13.8156 90.0155 13.8036 90.1031 13.7723C90.238 13.7242 90.3587 13.6448 90.4652 13.5365C90.5717 13.4283 90.6332 13.2863 90.6498 13.1107C90.7847 11.7708 90.8793 10.4188 90.9338 9.04999C90.9882 7.68357 91.0095 6.32919 90.9929 4.98924C90.9929 4.82806 90.9716 4.70297 90.929 4.60915L90.9314 4.61396Z" fill="white"/>
<path d="M88.0914 10.8926C87.992 10.8084 87.8689 10.7699 87.7174 10.7771C87.166 10.8084 86.5814 10.8373 85.9661 10.8613C85.3508 10.8854 84.752 10.9143 84.1675 10.9455C84.0965 10.9455 84.0397 10.9263 83.9971 10.8902C83.9545 10.8541 83.9308 10.7868 83.9308 10.6905V9.51176C84.1675 9.51176 84.4136 9.51176 84.6692 9.50695C84.9248 9.50214 85.1733 9.49733 85.4147 9.48771C85.6561 9.48049 85.8762 9.47087 86.0774 9.46365C86.2785 9.45643 86.4465 9.44681 86.5791 9.43959C86.7518 9.42275 86.8797 9.3578 86.9625 9.23992C87.0453 9.12445 87.0832 8.92478 87.0737 8.64332C87.0571 8.36186 87.0074 8.17903 86.9199 8.09002C86.8323 8.00101 86.7187 7.96252 86.5767 7.96974C86.4584 7.96974 86.2998 7.96974 86.0963 7.97455C85.8951 7.97936 85.6727 7.98177 85.4265 7.98658C85.1828 7.99139 84.9319 7.9938 84.6763 7.99861C84.4207 8.00342 84.1746 8.00823 83.9379 8.01545C83.945 7.73398 83.9497 7.45733 83.9497 7.18068V6.39163C84.5248 6.36757 85.0621 6.34592 85.5591 6.32668C86.0561 6.30743 86.5838 6.26413 87.1447 6.20158C87.4997 6.16069 87.6654 5.86479 87.6417 5.31149C87.6251 5.03003 87.5731 4.83517 87.4831 4.72211C87.3932 4.60904 87.2749 4.55371 87.1329 4.55371C86.3448 4.57055 85.5614 4.5898 84.7852 4.61385C84.0089 4.63791 83.2066 4.6788 82.3783 4.73413C82.196 4.75097 82.073 4.79909 82.0044 4.87847C81.9381 4.95786 81.9002 5.08777 81.8931 5.26338C81.886 5.73729 81.8837 6.26654 81.886 6.85592C81.8908 7.44531 81.8979 8.0395 81.9097 8.64092C81.9215 9.24233 81.9381 9.8269 81.957 10.3898C81.9759 10.9552 81.9972 11.4459 82.0233 11.8621C82.0398 12.1027 82.1179 12.2903 82.2599 12.4274C82.4019 12.5645 82.5865 12.6271 82.8161 12.6199C83.2492 12.6126 83.6989 12.591 84.158 12.5597C84.6195 12.5285 85.0668 12.4924 85.5023 12.4515C85.9354 12.4106 86.3472 12.3697 86.7329 12.3264C87.1187 12.2831 87.4618 12.235 87.7624 12.1868C87.9115 12.1628 88.0369 12.0858 88.1363 11.9583C88.2357 11.8308 88.276 11.6384 88.2594 11.381C88.2428 11.1332 88.186 10.9672 88.089 10.883L88.0914 10.8926Z" fill="white"/>
</g>
<defs>
<clipPath id="clip0_11_146">
<rect width="91" height="16" fill="white"/>
</clipPath>
</defs>
</svg>
