<svg width="385" height="67" viewBox="0 0 385 67" fill="none" xmlns="http://www.w3.org/2000/svg">
<g clip-path="url(#clip0_11_146)">
<path d="M125.02 29.5798C120.89 28.5498 114.53 28.7498 111.31 28.9298C103.58 6.34977 89.5299 8.86977 88.8699 8.99977C78.5799 11.2998 70.2099 14.3998 63.7699 18.2598C57.5099 12.6298 48.5799 7.27977 35.9499 4.42977C33.7199 3.92977 32.4499 3.12977 30.9699 2.19977C30.1499 1.68977 29.3099 1.15977 28.2699 0.64977C26.3799 -0.27023 24.8199 -0.21023 23.6399 0.81977C21.9199 2.30977 21.5299 5.04977 24.3999 14.4698C18.6099 15.4598 7.43991 19.9098 4.36991 39.2398C2.76991 41.1998 -1.69009 47.4798 0.649905 53.7798C2.89991 59.8298 10.5899 63.6398 23.5099 65.1098C29.0399 65.7398 34.5099 66.0398 39.7299 66.0398C47.7199 66.0398 55.1299 65.3198 61.3799 63.9898C63.0899 64.1498 65.1799 64.3898 67.1299 64.6198C74.2499 65.4398 83.4199 66.4998 91.7099 66.4998C98.1099 66.4998 103.97 65.8698 107.95 64.0098C119.43 58.6498 129.02 41.3398 128.31 33.9298C128 30.6698 125.89 29.7998 125 29.5798H125.02ZM60.9899 58.9298C59.9699 58.8398 59.1399 58.7998 58.4499 58.7998C58.3399 58.7998 58.2399 58.7998 58.1399 58.7998C55.8699 55.2398 50.6399 45.5098 54.1199 35.8998C55.6599 31.6598 58.6899 27.8998 63.1399 24.6298C73.0699 35.1698 75.3299 47.3398 75.1099 51.3398C75.0599 52.3098 74.1599 53.2698 73.4199 53.8898C71.0999 55.8498 66.7899 57.6298 60.9899 58.9298ZM24.0899 60.1398C10.5399 58.5898 6.41991 54.8898 5.35991 52.0498C3.65991 47.5098 8.49991 42.1098 8.58991 42.0098L9.10991 41.4498L9.21991 40.6798C12.4699 18.4198 26.9399 19.1398 27.5399 19.1898L31.2899 19.4998L30.1199 15.9198C28.3499 10.5198 27.6699 7.51977 27.4199 5.87977C27.7199 6.05977 28.0099 6.24977 28.3199 6.43977C29.9499 7.45977 31.7999 8.61977 34.8599 9.30977C45.6099 11.7398 53.5999 16.0998 59.4999 21.1498C54.5799 24.9098 51.1999 29.2798 49.4099 34.2398C45.5399 44.9798 50.2199 55.3098 53.1499 60.2598C44.9699 61.2498 35.0199 61.3898 24.0899 60.1398ZM105.86 59.4898C99.0799 62.6598 84.0199 61.4598 72.7499 60.2298C74.2599 59.4598 75.5799 58.6198 76.6499 57.7098C78.8199 55.8698 79.9899 53.8198 80.1099 51.6098C80.3099 47.8398 78.9199 38.0298 72.1699 27.9198C70.8899 26.0098 69.3199 23.9598 67.4299 21.8898C73.2199 18.6298 80.6999 15.9598 89.8899 13.9098C90.3399 13.8298 100.99 12.2398 107.16 32.3098L107.76 34.2498L109.78 34.0698C109.87 34.0698 118.52 33.2998 123.39 34.3398C124.14 37.9198 116.67 54.4498 105.87 59.4898H105.86Z" fill="#00AEEF"/>
<path d="M23.1001 29.7598H22.7401C21.1495 29.7598 19.8601 31.0492 19.8601 32.6398V36.4698C19.8601 38.0603 21.1495 39.3498 22.7401 39.3498H23.1001C24.6907 39.3498 25.9801 38.0603 25.9801 36.4698V32.6398C25.9801 31.0492 24.6907 29.7598 23.1001 29.7598Z" fill="#00AEEF"/>
<path d="M98.45 28.2202H98.09C96.4994 28.2202 95.21 29.5096 95.21 31.1002V34.9302C95.21 36.5208 96.4994 37.8102 98.09 37.8102H98.45C100.041 37.8102 101.33 36.5208 101.33 34.9302V31.1002C101.33 29.5096 100.041 28.2202 98.45 28.2202Z" fill="#00AEEF"/>
<path d="M167.72 47.2802C166.64 46.4602 165.3 45.8502 163.72 45.4502C162.14 45.0502 160.34 44.9002 158.34 45.0002C156.27 45.1002 154.47 45.4702 152.94 46.1202C151.41 46.7702 150.13 47.5702 149.12 48.5202C148.1 49.4702 147.34 50.5402 146.84 51.7502C146.34 52.9502 146.09 54.1502 146.09 55.3502C146.09 56.6502 146.36 57.8802 146.89 59.0502C147.42 60.2202 148.21 61.2302 149.27 62.1002C150.32 62.9702 151.65 63.6402 153.25 64.1302C154.85 64.6102 156.7 64.8202 158.8 64.7502C160.97 64.6802 162.85 64.3302 164.45 63.7002C166.05 63.0702 167.37 62.2602 168.4 61.2802C169.43 60.3002 170.18 59.1702 170.65 57.9002C171.12 56.6702 171.32 55.4002 171.25 54.1002C171.18 52.7002 170.85 51.4202 170.25 50.2502C169.65 49.0802 168.81 48.0902 167.72 47.2702V47.2802ZM162.47 57.7602C161.65 58.6302 160.4 59.0902 158.7 59.1602C157.17 59.2302 155.97 58.8602 155.13 58.0602C154.28 57.2602 153.82 56.2602 153.75 55.0602C153.72 54.4602 153.81 53.9002 154.02 53.3902C154.24 52.8702 154.56 52.4102 155 52.0102C155.43 51.6102 155.96 51.2802 156.57 51.0302C157.19 50.7802 157.88 50.6402 158.65 50.6002C160.12 50.5302 161.29 50.8302 162.17 51.4802C163.05 52.1302 163.53 53.0902 163.59 54.3602C163.66 55.7602 163.28 56.8902 162.47 57.7602Z" fill="black"/>
<path d="M175.59 37.6101C173.62 37.6101 171.55 37.6301 169.37 37.6601C167.19 37.6901 164.93 37.7401 162.59 37.8101V35.1101C164.49 35.0101 166.33 34.9001 168.12 34.7901C169.9 34.6701 171.56 34.5301 173.09 34.3601C173.69 34.2901 174.14 34.0501 174.44 33.6401C174.74 33.2201 174.89 32.5201 174.89 31.5201C174.89 30.6901 174.73 30.0201 174.41 29.5201C174.09 29.0201 173.64 28.7701 173.03 28.7701C169.33 28.7701 165.76 28.8001 162.3 28.8701C158.85 28.9401 155.31 28.9901 151.68 29.0201C150.88 29.0201 150.48 28.6401 150.48 27.8701L150.58 24.9701C152.55 24.9401 154.41 24.9001 156.18 24.8501C157.95 24.8001 159.7 24.7501 161.43 24.7001C163.16 24.6501 164.92 24.5801 166.7 24.5001C168.48 24.4201 170.39 24.3101 172.43 24.1801C173.93 24.0801 174.68 22.9101 174.68 20.6801C174.68 19.6101 174.46 18.8001 174.03 18.2501C173.6 17.7001 173.05 17.4301 172.38 17.4301C169.95 17.4001 167.59 17.3701 165.3 17.3501C163.02 17.3301 160.74 17.3501 158.48 17.3701C156.21 17.4001 153.93 17.4501 151.63 17.4901C149.33 17.5401 146.95 17.6101 144.48 17.7201C143.11 17.7901 142.41 18.4501 142.38 19.7201C142.25 22.2501 142.15 24.4901 142.11 26.4201C142.06 28.3501 142.07 30.2201 142.13 32.0201C142.2 33.4201 142.51 34.3401 143.05 34.7901C143.6 35.2401 144.57 35.4601 145.98 35.4601H150.05C151.47 35.4601 152.93 35.4301 154.43 35.3601V38.0101C152.2 38.0801 150.01 38.1501 147.88 38.2301C145.75 38.3101 143.68 38.3901 141.68 38.4601C140.91 38.4901 140.45 38.8101 140.28 39.4101C140.11 40.0101 140.03 40.6401 140.03 41.3101C140.03 41.6101 140.05 41.9301 140.08 42.2901C140.11 42.6501 140.18 42.9601 140.28 43.2401C140.38 43.5201 140.54 43.7701 140.76 43.9701C140.98 44.1701 141.27 44.2701 141.64 44.2701C144.11 44.2401 146.81 44.1801 149.76 44.0901C152.71 44.0101 155.7 43.9201 158.74 43.8201C161.77 43.7201 164.75 43.6101 167.66 43.4901C170.58 43.3701 173.24 43.2301 175.64 43.0701C176.27 43.0401 176.71 42.7201 176.94 42.1201C177.17 41.5201 177.29 40.8901 177.29 40.2201C177.29 39.5501 177.19 38.9501 176.99 38.4201C176.79 37.8901 176.32 37.6201 175.59 37.6201V37.6101Z" fill="black"/>
<path d="M182.49 30.51C182.56 31.78 182.85 32.72 183.37 33.33C183.89 33.95 184.78 34.24 186.05 34.21C186.95 34.18 188.12 34.15 189.55 34.14C190.98 34.12 192.56 34.09 194.27 34.04C195.99 33.99 197.75 33.94 199.57 33.89C201.39 33.84 203.14 33.79 204.82 33.74C206.5 33.69 208.05 33.62 209.44 33.54C210.84 33.46 211.96 33.36 212.79 33.27C213.52 33.2 214.05 33 214.37 32.67C214.69 32.34 214.88 31.7 214.94 30.77C214.97 30 215.01 29.08 215.04 27.99C215.07 26.91 215.1 25.8 215.12 24.67C215.14 23.54 215.14 22.45 215.14 21.42C215.14 20.39 215.12 19.55 215.09 18.92C215.02 17.89 214.47 17.34 213.44 17.27H210.19C208.66 17.27 206.9 17.27 204.92 17.29C202.94 17.31 200.85 17.33 198.67 17.36C196.49 17.39 194.42 17.43 192.47 17.46C190.52 17.49 188.8 17.53 187.3 17.56C185.8 17.59 184.75 17.63 184.15 17.66C183.52 17.69 183.01 17.9 182.63 18.28C182.25 18.66 182.06 19.24 182.06 20.01C182.06 21.81 182.12 23.67 182.23 25.58C182.35 27.5 182.44 29.14 182.5 30.51H182.49ZM206.94 24.16C206.97 24.73 207 25.36 207.02 26.06C207.04 26.76 207.05 27.29 207.05 27.66V27.71C207.05 28.04 206.98 28.25 206.85 28.33C206.72 28.41 206.48 28.47 206.15 28.51C205.72 28.54 205.09 28.57 204.27 28.58C203.45 28.6 202.55 28.61 201.57 28.63C200.59 28.65 199.55 28.65 198.47 28.65H195.35C194.35 28.65 193.45 28.65 192.65 28.67C191.85 28.69 191.23 28.69 190.8 28.69C190.77 28.49 190.74 28.2 190.72 27.81C190.7 27.43 190.68 27.01 190.64 26.56C190.61 26.11 190.58 25.67 190.56 25.24C190.54 24.81 190.52 24.44 190.49 24.14H206.94V24.16Z" fill="black"/>
<path d="M215.89 35.6098C213.46 35.6098 210.81 35.6398 207.97 35.6898C205.13 35.7398 202.21 35.8098 199.25 35.8898C196.28 35.9698 193.32 36.0598 190.37 36.1598C187.42 36.2598 184.63 36.3598 181.99 36.4598C181.22 36.4898 180.76 36.7798 180.59 37.3098C180.42 37.8398 180.34 38.4398 180.34 39.1098C180.34 39.4098 180.36 39.7298 180.39 40.0598C180.42 40.3898 180.49 40.6898 180.59 40.9598C180.69 41.2298 180.85 41.4498 181.07 41.6398C181.29 41.8198 181.58 41.9098 181.95 41.9098C183.85 41.8798 185.88 41.8298 188.05 41.7898C190.22 41.7398 192.45 41.6798 194.75 41.6098V44.0098C193.18 44.0798 191.63 44.1298 190.07 44.1798C188.52 44.2298 186.93 44.2898 185.3 44.3498C184.6 44.3798 184.18 44.6698 184.02 45.1998C183.87 45.7298 183.8 46.2698 183.8 46.7998C183.8 47.6698 183.92 48.3098 184.15 48.7198C184.38 49.1398 184.78 49.3398 185.35 49.3398C188.82 49.2698 192.27 49.1998 195.7 49.1198C199.13 49.0398 202.58 48.9598 206.05 48.8898C206.05 49.2198 206.05 49.5098 206.02 49.7698C205.99 50.0298 206 50.2898 206 50.5898C202.57 50.7598 199.17 50.9098 195.8 51.0398C192.43 51.1698 189.05 51.3098 185.65 51.4398C185.28 51.4698 185.03 51.5898 184.9 51.7898C184.77 51.9898 184.7 52.3098 184.7 52.7398C184.7 53.7698 184.73 54.7998 184.8 55.8098C184.87 56.8298 184.93 57.8498 185 58.8898C185.07 59.9198 185.39 60.7298 185.98 61.3098C186.57 61.8898 187.57 62.1898 189.01 62.1898C192.94 62.1198 196.88 62.0698 200.81 62.0198C204.74 61.9698 208.71 61.9098 212.71 61.8398C213.11 61.8398 213.42 61.7198 213.64 61.4898C213.86 61.2598 214.02 60.9698 214.14 60.6398C214.26 60.3098 214.32 59.9798 214.34 59.6598C214.36 59.3398 214.37 59.0798 214.37 58.8898C214.37 58.1898 214.27 57.6698 214.07 57.3398C213.87 57.0098 213.44 56.8398 212.77 56.8398C209.5 56.8398 206.25 56.8598 203.02 56.8898C199.79 56.9198 196.52 56.9398 193.22 56.9398V55.4898L211.27 54.8398C212.7 54.8098 213.47 54.0198 213.57 52.4898C213.67 51.2198 213.74 49.9598 213.79 48.7098C213.84 47.4598 213.88 46.1998 213.91 44.9398C213.91 43.9098 213.51 43.3898 212.71 43.3898C211.01 43.4598 209.35 43.5098 207.74 43.5398C206.12 43.5698 204.52 43.6198 202.91 43.6898V41.3398C205.28 41.2698 207.57 41.1798 209.79 41.0698C212.01 40.9498 214.07 40.8298 215.96 40.6898C216.59 40.6598 217.03 40.3698 217.26 39.8098C217.49 39.2598 217.61 38.6498 217.61 37.9898C217.61 37.3298 217.51 36.7598 217.31 36.2898C217.11 35.8198 216.64 35.5898 215.91 35.5898L215.89 35.6098Z" fill="black"/>
<path d="M254.44 49.2102C252.54 49.2402 250.67 49.2802 248.84 49.3102C247.01 49.3402 245.19 49.3902 243.39 49.4602V44.2102C245.29 44.1802 247.02 44.1402 248.59 44.1102C250.16 44.0802 251.32 44.0402 252.09 44.0102C252.82 43.9402 253.38 43.7802 253.76 43.5102C254.14 43.2402 254.37 42.7602 254.43 42.0602C254.46 41.6302 254.51 40.8602 254.55 39.7602C254.6 38.6602 254.65 37.4002 254.7 35.9802C254.75 34.5602 254.79 33.0602 254.82 31.4602C254.85 29.8602 254.89 28.3302 254.92 26.8602C254.95 25.3902 254.98 24.0702 255 22.8902C255.02 21.7102 255.03 20.8102 255.03 20.2102C255.03 18.5102 253.6 17.6602 250.73 17.6602C249.3 17.6602 248.23 17.9102 247.53 18.4102C246.83 18.9102 246.48 19.5902 246.48 20.4602V25.9602L230.83 26.5102C230.8 25.2802 230.77 24.1802 230.75 23.2102C230.73 22.2402 230.72 21.5602 230.72 21.1602C230.65 20.1302 230.25 19.4202 229.52 19.0402C228.79 18.6602 227.77 18.5002 226.47 18.5602C224.84 18.6302 223.7 18.9302 223.05 19.4602C222.4 19.9902 222.09 20.7602 222.13 21.7602C222.13 22.2602 222.16 23.0502 222.21 24.1402C222.26 25.2202 222.3 26.4502 222.33 27.8102C222.36 29.1802 222.41 30.6102 222.45 32.1102C222.49 33.6102 222.55 35.0202 222.6 36.3402C222.65 37.6602 222.7 38.8002 222.75 39.7702C222.8 40.7402 222.84 41.3902 222.87 41.7202C223.07 43.5202 224.02 44.4202 225.72 44.4202C226.22 44.4202 227.33 44.4202 229.05 44.4002C230.77 44.3802 232.74 44.3602 234.97 44.3202V49.7702C233.27 49.8402 231.56 49.9202 229.85 50.0202C228.13 50.1202 226.36 50.2002 224.53 50.2702C223.66 50.3002 222.97 50.6202 222.45 51.2202C221.93 51.8202 221.69 52.6702 221.72 53.7702C221.72 54.9402 221.99 55.7802 222.52 56.2902C223.05 56.8102 223.79 57.0602 224.72 57.0602C229.85 56.9602 234.8 56.7702 239.57 56.4802C244.34 56.2002 249.15 55.8102 254.02 55.3102C254.75 55.2402 255.4 54.9802 255.97 54.5402C256.54 54.0902 256.82 53.2502 256.82 52.0202C256.79 51.1502 256.56 50.4702 256.15 49.9702C255.73 49.4702 255.16 49.2202 254.42 49.2202L254.44 49.2102ZM238.34 37.8102C236.87 37.8402 235.47 37.8802 234.14 37.9102C232.81 37.9402 231.79 37.9602 231.09 37.9602C231.06 37.6602 231.03 37.0702 231.01 36.1902C230.99 35.3102 230.97 34.2702 230.93 33.0702L246.53 32.5202L246.58 36.7202C246.58 37.0902 246.49 37.3402 246.3 37.4702C246.12 37.6002 245.89 37.6702 245.63 37.6702C244.9 37.6702 243.86 37.6902 242.53 37.7202C241.2 37.7502 239.8 37.7902 238.33 37.8202L238.34 37.8102Z" fill="black"/>
<path d="M292.04 27.36C292.54 27.33 292.99 27.3 293.39 27.29C293.79 27.27 294.09 27.25 294.29 27.21C295.06 27.14 295.67 26.85 296.11 26.33C296.56 25.81 296.75 24.94 296.69 23.71C296.59 21.58 295.77 20.53 294.24 20.56C292.71 20.63 290.92 20.68 288.89 20.71C286.86 20.74 284.72 20.79 282.49 20.86V18.61C282.49 18.08 282.42 17.59 282.29 17.14C282.16 16.69 281.91 16.31 281.54 15.99C281.17 15.67 280.66 15.44 279.99 15.29C279.32 15.14 278.47 15.08 277.44 15.11C276.44 15.14 275.62 15.27 274.99 15.49C274.36 15.71 273.87 15.99 273.54 16.34C273.21 16.69 272.99 17.11 272.89 17.59C272.79 18.07 272.74 18.58 272.74 19.11V21.11C270.57 21.18 268.55 21.24 266.67 21.31C264.79 21.38 263.19 21.44 261.89 21.51C261.02 21.58 260.41 21.93 260.04 22.58C259.67 23.23 259.51 24.12 259.54 25.26C259.57 26.53 259.81 27.4 260.24 27.88C260.67 28.36 261.27 28.6 262.04 28.6H264.34C264.81 28.6 265.27 28.6 265.74 28.58C266.21 28.56 266.61 28.56 266.94 28.56C266.47 28.83 266.03 29.21 265.61 29.71C265.19 30.21 264.84 30.78 264.54 31.41C264.24 32.04 264.01 32.72 263.84 33.43C263.67 34.15 263.59 34.85 263.59 35.55C263.59 38.52 264.56 40.98 266.49 42.95C268.42 44.92 271.09 46.18 274.49 46.75V50.65C272.79 50.72 271.08 50.8 269.37 50.9C267.66 51 265.88 51.08 264.05 51.15C263.18 51.18 262.49 51.48 261.97 52.05C261.45 52.62 261.21 53.45 261.24 54.55C261.24 55.72 261.51 56.54 262.04 57.03C262.57 57.51 263.31 57.76 264.24 57.76C269.37 57.66 274.32 57.47 279.09 57.18C283.86 56.9 288.67 56.51 293.54 56.01C294.27 55.94 294.92 55.7 295.49 55.28C296.06 54.86 296.34 54.04 296.34 52.8C296.31 51.93 296.08 51.27 295.67 50.8C295.25 50.33 294.68 50.1 293.94 50.1C292.04 50.13 290.17 50.17 288.34 50.2C286.51 50.23 284.69 50.28 282.89 50.35V46.45C284.36 46.08 285.71 45.54 286.94 44.83C288.17 44.11 289.23 43.27 290.11 42.31C290.99 41.34 291.68 40.27 292.16 39.08C292.64 37.9 292.88 36.62 292.88 35.26C292.88 34.46 292.77 33.66 292.55 32.86C292.33 32.06 292.05 31.31 291.7 30.61C291.35 29.91 290.95 29.29 290.5 28.73C290.05 28.18 289.58 27.77 289.08 27.51C289.51 27.48 289.99 27.45 290.5 27.43C291.02 27.41 291.53 27.39 292.03 27.35L292.04 27.36ZM284.19 36.61C283.86 37.38 283.39 38.03 282.79 38.56C282.19 39.09 281.48 39.5 280.67 39.79C279.85 40.07 278.98 40.21 278.05 40.21C277.18 40.21 276.37 40.08 275.62 39.81C274.87 39.54 274.21 39.15 273.65 38.64C273.08 38.12 272.63 37.5 272.3 36.76C271.97 36.03 271.8 35.19 271.8 34.26C271.8 33.33 271.97 32.47 272.3 31.68C272.63 30.9 273.09 30.23 273.68 29.68C274.26 29.13 274.97 28.7 275.8 28.38C276.63 28.06 277.55 27.9 278.55 27.9C279.38 27.9 280.17 28.04 280.93 28.32C281.68 28.6 282.34 29.01 282.9 29.55C283.47 30.08 283.91 30.73 284.23 31.5C284.55 32.27 284.7 33.12 284.7 34.05C284.7 34.98 284.53 35.83 284.2 36.6L284.19 36.61Z" fill="black"/>
<path d="M338.29 54.9099C337.26 54.9099 335.92 54.9299 334.29 54.9599C332.66 54.9899 330.95 55.0299 329.17 55.0599C327.39 55.0899 325.68 55.1199 324.05 55.1399C322.42 55.1599 321.08 55.1599 320.05 55.1599C319.55 55.1599 319.3 54.8599 319.3 54.2599C319.27 53.1299 319.24 51.9599 319.22 50.7599C319.2 49.5599 319.18 48.4299 319.14 47.3599C319.11 46.4899 318.95 45.8699 318.67 45.4799C318.39 45.0999 317.81 44.8699 316.94 44.8099C316.34 44.7399 315.54 44.7299 314.54 44.7899C313.54 44.8399 312.67 44.9599 311.94 45.1699C310.84 45.4699 310.29 46.4199 310.29 48.0199C310.29 48.8899 310.31 49.7999 310.34 50.7699C310.37 51.7399 310.42 52.6899 310.46 53.6499C310.51 54.5999 310.57 55.4899 310.63 56.3199C310.7 57.1499 310.76 57.8699 310.83 58.4699C311.1 60.7999 312.4 61.9399 314.73 61.8699C316.46 61.8399 318.46 61.7899 320.73 61.7199C323 61.6499 325.26 61.5799 327.51 61.4899C329.76 61.4099 331.87 61.3199 333.84 61.2199C335.81 61.1199 337.39 60.9999 338.59 60.8699C339.12 60.7999 339.56 60.4999 339.89 59.9699C340.22 59.4699 340.36 58.6499 340.29 57.5199C340.19 55.7899 339.52 54.9199 338.29 54.9199V54.9099Z" fill="black"/>
<path d="M318.94 32.2101C319.27 32.2401 319.85 32.2601 320.67 32.2601C321.49 32.2601 322.38 32.2301 323.34 32.1601C323.34 33.3601 323.34 34.5401 323.36 35.7101C323.38 36.8801 323.4 37.9601 323.44 38.9601C323.48 39.9601 323.5 40.8501 323.52 41.6401C323.54 42.4201 323.56 43.0301 323.6 43.4601C323.67 44.5601 323.99 45.2901 324.57 45.6601C325.15 46.0301 325.96 46.2101 326.99 46.2101C328.09 46.2101 328.96 46.0301 329.59 45.6601C330.22 45.2901 330.57 44.6101 330.64 43.6101C330.74 41.7401 330.81 39.7301 330.86 37.5601C330.91 35.3901 330.94 33.2501 330.94 31.1401C330.94 29.0301 330.94 27.0301 330.92 25.1601C330.9 23.2901 330.89 21.7101 330.89 20.4101C330.89 19.5801 330.61 18.9101 330.04 18.4101C329.47 17.9101 328.46 17.6801 326.99 17.7101C325.52 17.7401 324.54 18.0301 324.04 18.5601C323.54 19.0901 323.29 19.8101 323.29 20.7101V25.0101C322.29 25.0801 321.36 25.1301 320.49 25.1801C319.62 25.2301 319.02 25.2901 318.69 25.3501C317.89 25.5201 317.27 25.8501 316.84 26.3501C316.41 26.8501 316.21 27.7201 316.24 28.9501C316.31 29.9801 316.53 30.7701 316.92 31.3001C317.3 31.8301 317.98 32.1301 318.94 32.2001V32.2101Z" fill="black"/>
<path d="M337.19 17.6099C335.76 17.6099 334.79 17.8699 334.29 18.3899C333.79 18.9099 333.54 19.5999 333.54 20.4599V44.7599C333.54 45.8599 333.8 46.6299 334.31 47.0599C334.83 47.4899 335.59 47.7399 336.59 47.8099C338.86 47.9099 340.09 47.0099 340.29 45.1099C340.36 44.3799 340.42 43.3899 340.49 42.1599C340.56 40.9299 340.61 39.5499 340.67 38.0399C340.72 36.5199 340.77 34.9399 340.82 33.2899C340.87 31.6399 340.92 30.0199 340.97 28.4399C341.02 26.8599 341.06 25.3699 341.09 23.9899C341.12 22.6099 341.16 21.4299 341.19 20.4699C341.22 19.6999 340.96 19.0399 340.39 18.4699C339.82 17.8999 338.76 17.6199 337.19 17.6199V17.6099Z" fill="black"/>
<path d="M311.92 39.0798C312.44 39.6598 312.95 40.2298 313.47 40.7798C313.99 41.3298 314.49 41.8398 314.97 42.2998C315.45 42.7698 315.88 43.1498 316.24 43.4498C316.44 43.6198 316.67 43.6998 316.92 43.6998C317.17 43.6998 317.39 43.6698 317.59 43.5998C318.02 43.4698 318.48 43.2598 318.97 42.9798C319.45 42.6998 319.89 42.3598 320.27 41.9598C320.65 41.5598 320.97 41.1098 321.22 40.6098C321.47 40.1098 321.61 39.6098 321.64 39.1098C321.67 38.7798 321.64 38.5198 321.52 38.3398C321.4 38.1598 321.26 37.9598 321.1 37.7698C320.13 36.5998 319.02 35.3598 317.77 34.0398C316.52 32.7198 315.23 31.3598 313.89 29.9598C313.92 29.4298 313.94 28.7098 313.94 27.8098V24.9798C313.94 23.9998 313.94 23.0298 313.92 22.0798C313.9 21.1298 313.88 20.3198 313.84 19.6598C313.81 19.2298 313.74 18.8298 313.64 18.4598C313.54 18.0898 313.33 17.7898 313.02 17.5398C312.7 17.2898 312.26 17.1098 311.69 17.0198C311.12 16.9198 310.36 16.8898 309.39 16.9198C308.49 16.9898 307.76 17.0998 307.19 17.2698C306.62 17.4398 306.18 17.6698 305.86 17.9698C305.54 18.2698 305.34 18.6398 305.24 19.0698C305.14 19.4998 305.09 19.9998 305.09 20.5698C305.09 21.1398 305.11 21.8598 305.14 22.7398C305.17 23.6198 305.22 24.5598 305.26 25.5398C305.31 26.5198 305.37 27.5098 305.43 28.4898C305.5 29.4698 305.56 30.3298 305.63 31.0698C305.1 31.8698 304.55 32.6698 303.98 33.4698C303.41 34.2698 302.86 35.0598 302.33 35.8498C301.8 36.6298 301.3 37.3698 300.83 38.0498C300.36 38.7298 299.95 39.3398 299.58 39.8698C299.08 40.6398 298.95 41.3698 299.18 42.0698C299.31 42.4698 299.51 42.8598 299.78 43.2398C300.05 43.6198 300.36 43.9698 300.73 44.2898C301.1 44.6098 301.49 44.8698 301.91 45.0898C302.33 45.3098 302.73 45.4198 303.13 45.4198C304 45.4498 304.71 45.1498 305.28 44.5198C306.08 43.6498 306.9 42.6298 307.75 41.4398C308.6 40.2598 309.51 38.8998 310.48 37.3598C310.91 37.9298 311.39 38.4998 311.91 39.0898L311.92 39.0798Z" fill="black"/>
<path d="M384.22 19.1799C384.04 18.7999 383.68 18.4699 383.14 18.1999C382.37 17.8299 381.47 17.6399 380.44 17.6299C379.41 17.6099 378.49 17.7899 377.69 18.1499C376.69 18.5799 376.17 19.4699 376.14 20.7999C376.07 22.5699 376.03 24.2799 376.02 25.9499C376 27.6199 375.98 29.2799 375.94 30.9499C375.01 30.9799 374.14 31.0299 373.34 31.0999C372.57 31.1299 372.04 31.1799 371.74 31.2499C370.94 31.4199 370.32 31.7499 369.86 32.2499C369.41 32.7499 369.22 33.6199 369.29 34.8499C369.36 35.8799 369.58 36.6699 369.96 37.1999C370.34 37.7299 371.02 38.0299 371.98 38.0999C372.28 38.1299 372.78 38.1499 373.48 38.1499C374.18 38.1499 374.96 38.1299 375.83 38.0999V46.2799C375.83 48.9999 375.85 51.7999 375.88 54.6999C375.88 55.3699 376.04 55.8899 376.35 56.2799C376.67 56.6599 377.04 56.9399 377.47 57.0999C377.94 57.2699 378.5 57.3699 379.17 57.3999C379.84 57.4299 380.35 57.3799 380.72 57.2499C381.29 57.0499 381.8 56.7199 382.25 56.2699C382.7 55.8199 382.96 55.2299 383.03 54.4999C383.6 48.9299 384 43.3099 384.23 37.6199C384.46 31.9399 384.55 26.3099 384.48 20.7399C384.48 20.0699 384.39 19.5499 384.21 19.1599L384.22 19.1799Z" fill="black"/>
<path d="M372.22 45.2802C371.8 44.9302 371.28 44.7702 370.64 44.8002C368.31 44.9302 365.84 45.0502 363.24 45.1502C360.64 45.2502 358.11 45.3702 355.64 45.5002C355.34 45.5002 355.1 45.4202 354.92 45.2702C354.74 45.1202 354.64 44.8402 354.64 44.4402V39.5402C355.64 39.5402 356.68 39.5402 357.76 39.5202C358.84 39.5002 359.89 39.4802 360.91 39.4402C361.93 39.4102 362.86 39.3702 363.71 39.3402C364.56 39.3102 365.27 39.2702 365.83 39.2402C366.56 39.1702 367.1 38.9002 367.45 38.4102C367.8 37.9302 367.96 37.1002 367.92 35.9302C367.85 34.7602 367.64 34.0002 367.27 33.6302C366.9 33.2602 366.42 33.1002 365.82 33.1302C365.32 33.1302 364.65 33.1302 363.79 33.1502C362.94 33.1702 362 33.1802 360.96 33.2002C359.93 33.2202 358.87 33.2302 357.79 33.2502C356.71 33.2702 355.67 33.2902 354.67 33.3202C354.7 32.1502 354.72 31.0002 354.72 29.8502V26.5702C357.15 26.4702 359.42 26.3802 361.52 26.3002C363.62 26.2202 365.85 26.0402 368.22 25.7802C369.72 25.6102 370.42 24.3802 370.32 22.0802C370.25 20.9102 370.03 20.1002 369.65 19.6302C369.27 19.1602 368.77 18.9302 368.17 18.9302C364.84 19.0002 361.53 19.0802 358.25 19.1802C354.97 19.2802 351.58 19.4502 348.08 19.6802C347.31 19.7502 346.79 19.9502 346.5 20.2802C346.22 20.6102 346.06 21.1502 346.03 21.8802C346 23.8502 345.99 26.0502 346 28.5002C346.02 30.9502 346.05 33.4202 346.1 35.9202C346.15 38.4202 346.22 40.8502 346.3 43.1902C346.38 45.5402 346.47 47.5802 346.58 49.3102C346.65 50.3102 346.98 51.0902 347.58 51.6602C348.18 52.2302 348.96 52.4902 349.93 52.4602C351.76 52.4302 353.66 52.3402 355.6 52.2102C357.55 52.0802 359.44 51.9302 361.28 51.7602C363.11 51.5902 364.85 51.4202 366.48 51.2402C368.11 51.0602 369.56 50.8602 370.83 50.6602C371.46 50.5602 371.99 50.2402 372.41 49.7102C372.83 49.1802 373 48.3802 372.93 47.3102C372.86 46.2802 372.62 45.5902 372.21 45.2402L372.22 45.2802Z" fill="black"/>
</g>
<defs>
<clipPath id="clip0_11_146">
<rect width="384.51" height="66.51" fill="white"/>
</clipPath>
</defs>
</svg>
