<svg width="220" height="39" viewBox="0 0 220 39" fill="none" xmlns="http://www.w3.org/2000/svg">
<path d="M47.73 20.5649C46.1534 20.1621 43.7256 20.2403 42.4964 20.3107C39.5456 11.4823 34.1823 12.4676 33.9304 12.5184C30.0023 13.4177 26.8072 14.6297 24.3489 16.1389C21.9592 13.9377 18.5504 11.8459 13.7291 10.7316C12.8778 10.5361 12.393 10.2233 11.8281 9.85969C11.5151 9.66029 11.1944 9.45307 10.7974 9.25367C10.0759 8.89396 9.48042 8.91742 9.02998 9.32014C8.3734 9.9027 8.22452 10.974 9.32009 14.6571C7.10987 15.0441 2.84592 16.784 1.674 24.3418C1.06323 25.1081 -0.639292 27.5635 0.253961 30.0267C1.11286 32.3921 4.04838 33.8818 8.98035 34.4565C11.0913 34.7029 13.1794 34.8201 15.172 34.8201C18.2221 34.8201 21.0507 34.5386 23.4365 34.0186C24.0893 34.0812 24.8871 34.175 25.6315 34.2649C28.3494 34.5856 31.8499 35 35.0145 35C37.4576 35 39.6945 34.7537 41.2138 34.0264C45.5961 31.9308 49.2569 25.1628 48.9859 22.2656C48.8675 20.991 48.0621 20.6509 47.7223 20.5649H47.73ZM23.2877 32.0402C22.8983 32.0051 22.5815 31.9894 22.3181 31.9894C22.2761 31.9894 22.2379 31.9894 22.1997 31.9894C21.3332 30.5975 19.3367 26.7932 20.6652 23.0359C21.253 21.3781 22.4097 19.908 24.1084 18.6295C27.899 22.7505 28.7617 27.5087 28.6777 29.0727C28.6586 29.4519 28.3151 29.8273 28.0326 30.0697C27.147 30.836 25.5017 31.532 23.2877 32.0402ZM9.20176 32.5133C4.02929 31.9073 2.45655 30.4607 2.05192 29.3503C1.40297 27.5752 3.25056 25.4639 3.28491 25.4248L3.48341 25.2058L3.5254 24.9048C4.76603 16.2015 10.2897 16.483 10.5187 16.5025L11.9502 16.6237L11.5036 15.224C10.8279 13.1127 10.5684 11.9397 10.4729 11.2985C10.5874 11.3689 10.6981 11.4432 10.8165 11.5175C11.4387 11.9163 12.1449 12.3698 13.313 12.6396C17.4166 13.5897 20.4667 15.2944 22.7189 17.2689C20.8408 18.739 19.5505 20.4476 18.8672 22.3868C17.3899 26.586 19.1764 30.6249 20.2949 32.5603C17.1723 32.9473 13.3741 33.0021 9.20176 32.5133ZM40.416 32.2592C37.8278 33.4986 32.079 33.0294 27.7768 32.5485C28.3532 32.2475 28.8571 31.919 29.2656 31.5632C30.0939 30.8438 30.5406 30.0423 30.5864 29.1782C30.6627 27.7042 30.1321 23.8687 27.5554 19.9158C27.0668 19.169 26.4675 18.3675 25.746 17.5582C27.9562 16.2836 30.8116 15.2396 34.3197 14.4381C34.4915 14.4068 38.5569 13.7852 40.9122 21.6322L41.1413 22.3907L41.9124 22.3204C41.9467 22.3204 45.2487 22.0193 47.1077 22.4259C47.394 23.8257 44.5425 30.2886 40.4198 32.2592H40.416Z" fill="#0D72F6"/>
<path d="M8.58824 21H8.41176C7.63207 21 7 21.5378 7 22.2013V23.7987C7 24.4622 7.63207 25 8.41176 25H8.58824C9.36793 25 10 24.4622 10 23.7987V22.2013C10 21.5378 9.36793 21 8.58824 21Z" fill="#0D72F6"/>
<path d="M37.5882 20H37.4118C36.6321 20 36 20.5378 36 21.2013V22.7987C36 23.4622 36.6321 24 37.4118 24H37.5882C38.3679 24 39 23.4622 39 22.7987V21.2013C39 20.5378 38.3679 20 37.5882 20Z" fill="#0D72F6"/>
<path d="M66.3108 26.1671C65.796 25.7528 65.1572 25.4446 64.404 25.2425C63.6509 25.0404 62.7928 24.9646 61.8394 25.0152C60.8527 25.0657 59.9947 25.2526 59.2653 25.581C58.536 25.9094 57.9258 26.3136 57.4444 26.7936C56.9581 27.2735 56.5959 27.8141 56.3575 28.4254C56.1192 29.0317 56 29.638 56 30.2442C56 30.901 56.1287 31.5225 56.3814 32.1136C56.634 32.7047 57.0106 33.215 57.5159 33.6545C58.0164 34.0941 58.6504 34.4326 59.4131 34.6801C60.1758 34.9226 61.0577 35.0287 62.0587 34.9934C63.0931 34.958 63.9893 34.7812 64.752 34.4629C65.5147 34.1446 66.144 33.7353 66.6349 33.2402C67.1259 32.7451 67.4835 32.1742 67.7075 31.5326C67.9315 30.9111 68.0269 30.2695 67.9935 29.6127C67.9601 28.9054 67.8028 28.2587 67.5168 27.6676C67.2308 27.0765 66.8304 26.5763 66.3108 26.162V26.1671ZM63.8082 31.4618C63.4173 31.9014 62.8214 32.1338 62.0111 32.1691C61.2817 32.2045 60.7097 32.0176 60.3093 31.6134C59.9041 31.2092 59.6848 30.704 59.6514 30.0977C59.6371 29.7946 59.68 29.5117 59.7802 29.254C59.885 28.9913 60.0376 28.7589 60.2473 28.5568C60.4523 28.3547 60.7049 28.188 60.9957 28.0617C61.2913 27.9354 61.6202 27.8646 61.9872 27.8444C62.688 27.8091 63.2457 27.9606 63.6652 28.289C64.0847 28.6174 64.3135 29.1024 64.3421 29.7441C64.3754 30.4514 64.1943 31.0223 63.8082 31.4618Z" fill="white"/>
<path d="M70.1787 21.7848C69.2271 21.7848 68.2271 21.7944 67.1739 21.8089C66.1208 21.8234 65.029 21.8476 63.8986 21.8813V20.5779C64.8164 20.5296 65.7053 20.4765 66.57 20.4234C67.43 20.3655 68.2319 20.2979 68.971 20.2158C69.2609 20.182 69.4783 20.0662 69.6232 19.8682C69.7681 19.6655 69.8406 19.3275 69.8406 18.8448C69.8406 18.4441 69.7633 18.1206 69.6087 17.8792C69.4541 17.6379 69.2367 17.5172 68.942 17.5172C67.1546 17.5172 65.43 17.5316 63.7585 17.5654C62.0918 17.5992 60.3816 17.6234 58.628 17.6379C58.2415 17.6379 58.0483 17.4544 58.0483 17.0827L58.0966 15.6827C59.0483 15.6682 59.9469 15.6489 60.8019 15.6247C61.657 15.6006 62.5024 15.5765 63.3382 15.5523C64.1739 15.5282 65.0242 15.4944 65.8841 15.4558C66.744 15.4171 67.6667 15.364 68.6522 15.3013C69.3768 15.253 69.7391 14.6882 69.7391 13.6116C69.7391 13.095 69.6329 12.704 69.4251 12.4385C69.2174 12.173 68.9517 12.0426 68.628 12.0426C67.4541 12.0281 66.314 12.0137 65.2077 12.004C64.1063 11.9943 63.0048 12.004 61.913 12.0137C60.8164 12.0281 59.715 12.0523 58.6039 12.0716C57.4928 12.0957 56.343 12.1295 55.1498 12.1826C54.4879 12.2164 54.1498 12.535 54.1353 13.1481C54.0725 14.3695 54.0242 15.4509 54.0048 16.3827C53.9807 17.3144 53.9855 18.2172 54.0145 19.0861C54.0483 19.762 54.1981 20.2062 54.4589 20.4234C54.7246 20.6406 55.1932 20.7469 55.8744 20.7469H57.8406C58.5266 20.7469 59.2319 20.7324 59.9565 20.6986V21.9779C58.8792 22.0117 57.8213 22.0455 56.7923 22.0841C55.7633 22.1227 54.7633 22.1613 53.7971 22.1951C53.4251 22.2096 53.2029 22.3641 53.1208 22.6538C53.0386 22.9434 53 23.2476 53 23.571C53 23.7158 53.0097 23.8703 53.0242 24.0441C53.0386 24.2179 53.0725 24.3676 53.1208 24.5028C53.1691 24.6379 53.2464 24.7586 53.3527 24.8552C53.4589 24.9517 53.599 25 53.7778 25C54.971 24.9855 56.2754 24.9566 57.7005 24.9131C59.1256 24.8745 60.5701 24.831 62.0387 24.7828C63.5024 24.7345 64.942 24.6814 66.3478 24.6234C67.7585 24.5655 69.0435 24.4979 70.2029 24.4207C70.5072 24.4062 70.7198 24.2517 70.8309 23.9621C70.942 23.6724 71 23.3683 71 23.0448C71 22.7214 70.9517 22.4317 70.8551 22.1758C70.7585 21.92 70.5314 21.7896 70.1787 21.7896V21.7848Z" fill="white"/>
<path d="M73.195 18.2519C73.2267 18.8516 73.3582 19.2954 73.594 19.5835C73.8298 19.8762 74.2334 20.0132 74.8093 19.999C75.2174 19.9848 75.7479 19.9707 76.3963 19.966C77.0447 19.9565 77.7612 19.9423 78.5366 19.9187C79.3165 19.8951 80.1146 19.8715 80.9398 19.8479C81.7651 19.8243 82.5587 19.8007 83.3204 19.7771C84.0822 19.7535 84.7851 19.7204 85.4154 19.6826C86.0502 19.6449 86.558 19.5976 86.9344 19.5551C87.2654 19.5221 87.5057 19.4276 87.6508 19.2718C87.7959 19.116 87.8821 18.8138 87.9093 18.3747C87.9229 18.0111 87.941 17.5766 87.9547 17.0619C87.9683 16.552 87.9819 16.0278 87.9909 15.4943C88 14.9607 88 14.446 88 13.9596C88 13.4733 87.9909 13.0766 87.9773 12.7791C87.9456 12.2928 87.6962 12.0331 87.2291 12H85.7554C85.0617 12 84.2636 12 83.3658 12.0094C82.468 12.0189 81.5203 12.0283 80.5317 12.0425C79.5432 12.0567 78.6046 12.0756 77.7204 12.0897C76.8362 12.1039 76.0562 12.1228 75.3761 12.1369C74.6959 12.1511 74.2198 12.17 73.9477 12.1842C73.662 12.1983 73.4308 12.2975 73.2585 12.4769C73.0862 12.6564 73 12.9302 73 13.2938C73 14.1438 73.0272 15.0221 73.0771 15.924C73.1315 16.8306 73.1723 17.605 73.1995 18.2519H73.195ZM84.2817 15.2534C84.2953 15.5226 84.309 15.8201 84.318 16.1506C84.3271 16.4811 84.3316 16.7314 84.3316 16.9061V16.9297C84.3316 17.0856 84.2999 17.1847 84.2409 17.2225C84.182 17.2603 84.0732 17.2886 83.9235 17.3075C83.7285 17.3217 83.4429 17.3358 83.071 17.3405C82.6992 17.35 82.2911 17.3547 81.8467 17.3641C81.4024 17.3736 80.9308 17.3736 80.4411 17.3736H79.0263C78.5729 17.3736 78.1648 17.3736 77.802 17.383C77.4392 17.3925 77.1581 17.3925 76.9631 17.3925C76.9495 17.298 76.9359 17.1611 76.9268 16.9769C76.9178 16.7975 76.9087 16.5992 76.8906 16.3867C76.877 16.1742 76.8634 15.9664 76.8543 15.7634C76.8452 15.5604 76.8362 15.3856 76.8226 15.244H84.2817V15.2534Z" fill="white"/>
<path d="M88.2155 21.0098C87.1071 21.0098 85.8983 21.0244 84.6029 21.0489C83.3075 21.0733 81.9756 21.1075 80.6254 21.1466C79.2707 21.1857 77.9206 21.2297 76.575 21.2786C75.2294 21.3274 73.9568 21.3763 72.7526 21.4252C72.4014 21.4398 72.1916 21.5816 72.114 21.8406C72.0365 22.0996 72 22.3929 72 22.7203C72 22.8669 72.0091 23.0233 72.0228 23.1846C72.0365 23.3459 72.0684 23.4925 72.114 23.6244C72.1596 23.7564 72.2326 23.8639 72.333 23.9568C72.4333 24.0447 72.5656 24.0887 72.7344 24.0887C73.601 24.0741 74.527 24.0496 75.5168 24.0301C76.5066 24.0056 77.5237 23.9763 78.5728 23.9421V25.115C77.8567 25.1492 77.1497 25.1737 76.4382 25.1981C75.7312 25.2226 75.0059 25.2519 74.2624 25.2812C73.9431 25.2959 73.7515 25.4376 73.6786 25.6966C73.6101 25.9556 73.5782 26.2195 73.5782 26.4786C73.5782 26.9038 73.6329 27.2165 73.7379 27.4169C73.8428 27.6222 74.0252 27.7199 74.2852 27.7199C75.868 27.6857 77.4416 27.6515 79.0062 27.6124C80.5707 27.5733 82.1444 27.5342 83.7271 27.5C83.7271 27.6613 83.7271 27.803 83.7134 27.9301C83.6998 28.0571 83.7043 28.1842 83.7043 28.3308C82.1398 28.4139 80.5889 28.4872 79.0518 28.5508C77.5146 28.6143 75.9729 28.6827 74.4221 28.7462C74.2533 28.7609 74.1393 28.8195 74.08 28.9173C74.0207 29.015 73.9887 29.1714 73.9887 29.3816C73.9887 29.885 74.0024 30.3883 74.0343 30.882C74.0663 31.3805 74.0936 31.8789 74.1256 32.3872C74.1575 32.8906 74.3035 33.2865 74.5726 33.5699C74.8417 33.8534 75.2978 34 75.9547 34C77.7472 33.9658 79.5444 33.9414 81.337 33.9169C83.1296 33.8925 84.9404 33.8632 86.765 33.8289C86.9474 33.8289 87.0888 33.7703 87.1892 33.6579C87.2895 33.5455 87.3625 33.4038 87.4172 33.2425C87.472 33.0812 87.4993 32.9199 87.5085 32.7635C87.5176 32.6071 87.5221 32.4801 87.5221 32.3872C87.5221 32.0451 87.4765 31.791 87.3853 31.6297C87.2941 31.4684 87.0979 31.3853 86.7923 31.3853C85.3008 31.3853 83.8184 31.3951 82.3451 31.4098C80.8717 31.4244 79.3802 31.4342 77.875 31.4342V30.7256L86.1081 30.4079C86.7604 30.3932 87.1116 30.0071 87.1572 29.2594C87.2028 28.6387 87.2348 28.0229 87.2576 27.412C87.2804 26.8011 87.2986 26.1853 87.3123 25.5695C87.3123 25.0662 87.1299 24.812 86.765 24.812C85.9895 24.8462 85.2324 24.8707 84.498 24.8853C83.7591 24.9 83.0292 24.9244 82.2949 24.9586V23.8102C83.3759 23.7759 84.4204 23.732 85.4331 23.6782C86.4457 23.6195 87.3853 23.5609 88.2474 23.4925C88.5347 23.4778 88.7354 23.3361 88.8404 23.0624C88.9453 22.7936 89 22.4955 89 22.1729C89 21.8504 88.9544 21.5718 88.8632 21.3421C88.7719 21.1124 88.5576 21 88.2246 21L88.2155 21.0098Z" fill="white"/>
<path d="M105.915 27.2145C105.049 27.2289 104.197 27.2482 103.363 27.2627C102.529 27.2772 101.699 27.3013 100.878 27.335V24.8033C101.745 24.7888 102.533 24.7695 103.249 24.7551C103.964 24.7406 104.493 24.7213 104.844 24.7069C105.177 24.6731 105.432 24.5959 105.605 24.4657C105.778 24.3355 105.883 24.1041 105.911 23.7665C105.924 23.5591 105.947 23.1878 105.965 22.6574C105.988 22.1269 106.011 21.5193 106.034 20.8345C106.056 20.1497 106.075 19.4264 106.088 18.6548C106.102 17.8832 106.12 17.1454 106.134 16.4365C106.148 15.7277 106.161 15.0911 106.17 14.5221C106.18 13.953 106.184 13.519 106.184 13.2297C106.184 12.4099 105.532 12 104.224 12C103.572 12 103.085 12.1206 102.766 12.3617C102.446 12.6028 102.287 12.9307 102.287 13.3503V16.0025L95.1535 16.2678C95.1399 15.6746 95.1262 15.1442 95.1171 14.6764C95.108 14.2086 95.1034 13.8807 95.1034 13.6878C95.0715 13.1911 94.8892 12.8487 94.5564 12.6655C94.2237 12.4822 93.7588 12.4051 93.1662 12.434C92.4233 12.4678 91.9036 12.6124 91.6074 12.868C91.3111 13.1236 91.1698 13.4949 91.188 13.9772C91.188 14.2183 91.2017 14.5992 91.2245 15.1249C91.2473 15.6457 91.2655 16.2388 91.2792 16.8947C91.2929 17.5553 91.3156 18.2449 91.3339 18.9683C91.3521 19.6916 91.3795 20.3716 91.4023 21.0081C91.425 21.6447 91.4478 22.1944 91.4706 22.6622C91.4934 23.1299 91.5116 23.4434 91.5253 23.6025C91.6165 24.4706 92.0495 24.9046 92.8244 24.9046C93.0523 24.9046 93.5582 24.9046 94.3422 24.8949C95.1262 24.8853 96.0241 24.8756 97.0406 24.8563V27.4845C96.2657 27.5183 95.4863 27.5569 94.7069 27.6051C93.9229 27.6533 93.1161 27.6919 92.282 27.7256C91.8854 27.7401 91.5709 27.8944 91.3339 28.1838C91.0969 28.4731 90.9875 28.883 91.0011 29.4135C91.0011 29.9777 91.1242 30.3827 91.3658 30.6287C91.6074 30.8794 91.9447 31 92.3686 31C94.7069 30.9518 96.9631 30.8602 99.1373 30.7203C101.312 30.5853 103.504 30.3972 105.724 30.1561C106.056 30.1223 106.353 29.997 106.613 29.7848C106.872 29.5678 107 29.1627 107 28.5695C106.986 28.15 106.881 27.8221 106.695 27.581C106.503 27.3398 106.243 27.2193 105.906 27.2193L105.915 27.2145ZM98.5767 21.717C97.9066 21.7315 97.2685 21.7508 96.6623 21.7652C96.056 21.7797 95.5911 21.7893 95.2721 21.7893C95.2584 21.6447 95.2447 21.3602 95.2356 20.9358C95.2265 20.5114 95.2174 20.0099 95.1991 19.4312L102.31 19.166L102.333 21.1914C102.333 21.3698 102.292 21.4904 102.205 21.553C102.123 21.6157 102.018 21.6495 101.9 21.6495C101.567 21.6495 101.093 21.6591 100.487 21.6736C99.8803 21.6881 99.2421 21.7074 98.5721 21.7218L98.5767 21.717Z" fill="white"/>
<path d="M123.868 16.7469C124.097 16.7329 124.303 16.7188 124.486 16.7141C124.669 16.7047 124.806 16.6954 124.897 16.6766C125.249 16.6438 125.528 16.5078 125.73 16.264C125.936 16.0202 126.023 15.6123 125.995 15.0356C125.949 14.037 125.574 13.5447 124.874 13.5588C124.174 13.5916 123.356 13.615 122.427 13.6291C121.499 13.6431 120.52 13.6666 119.5 13.6994V12.6445C119.5 12.396 119.468 12.1663 119.408 11.9553C119.349 11.7443 119.234 11.5661 119.065 11.4161C118.896 11.2661 118.662 11.1582 118.356 11.0879C118.05 11.0176 117.661 10.9895 117.19 11.0035C116.732 11.0176 116.357 11.0785 116.069 11.1817C115.781 11.2848 115.557 11.4161 115.406 11.5802C115.255 11.7443 115.154 11.9412 115.108 12.1663C115.063 12.3913 115.04 12.6304 115.04 12.8789V13.8166C114.047 13.8494 113.123 13.8776 112.263 13.9104C111.403 13.9432 110.671 13.9713 110.077 14.0042C109.679 14.037 109.4 14.2011 109.23 14.5058C109.061 14.8106 108.988 15.2279 109.002 15.7624C109.015 16.3578 109.125 16.7657 109.322 16.9907C109.519 17.2158 109.793 17.3283 110.145 17.3283H111.197C111.412 17.3283 111.623 17.3283 111.838 17.3189C112.053 17.3096 112.236 17.3096 112.387 17.3096C112.172 17.4361 111.97 17.6143 111.778 17.8487C111.586 18.0832 111.426 18.3504 111.289 18.6458C111.152 18.9412 111.046 19.26 110.969 19.5929C110.891 19.9304 110.854 20.2586 110.854 20.5868C110.854 21.9793 111.298 23.1327 112.181 24.0563C113.064 24.98 114.285 25.5707 115.84 25.838V27.6665C115.063 27.6993 114.28 27.7368 113.498 27.7837C112.716 27.8306 111.902 27.8681 111.065 27.9009C110.667 27.915 110.351 28.0556 110.113 28.3229C109.875 28.5901 109.766 28.9793 109.779 29.495C109.779 30.0435 109.903 30.428 110.145 30.6577C110.388 30.8828 110.726 31 111.152 31C113.498 30.9531 115.762 30.864 117.944 30.7281C120.126 30.5968 122.326 30.4139 124.554 30.1795C124.888 30.1467 125.185 30.0342 125.446 29.8372C125.707 29.6403 125.835 29.2559 125.835 28.6745C125.821 28.2666 125.716 27.9572 125.528 27.7368C125.336 27.5164 125.076 27.4086 124.737 27.4086C123.868 27.4227 123.013 27.4414 122.176 27.4555C121.338 27.4696 120.506 27.493 119.683 27.5258V25.6973C120.355 25.5238 120.973 25.2706 121.535 24.9378C122.098 24.6002 122.583 24.2064 122.985 23.7563C123.388 23.3015 123.703 22.7998 123.923 22.2419C124.142 21.6886 124.252 21.0885 124.252 20.4509C124.252 20.0758 124.202 19.7007 124.101 19.3256C124.001 18.9505 123.873 18.5989 123.713 18.2707C123.552 17.9425 123.369 17.6518 123.164 17.3893C122.958 17.1314 122.743 16.9392 122.514 16.8173C122.711 16.8032 122.93 16.7891 123.164 16.7798C123.401 16.7704 123.635 16.761 123.863 16.7422L123.868 16.7469ZM120.277 21.0838C120.126 21.4448 119.911 21.7496 119.637 21.9981C119.362 22.2466 119.038 22.4388 118.667 22.5748C118.292 22.706 117.894 22.7717 117.469 22.7717C117.071 22.7717 116.7 22.7107 116.357 22.5841C116.014 22.4575 115.712 22.2747 115.456 22.0356C115.195 21.7918 114.989 21.5011 114.838 21.1541C114.687 20.8119 114.61 20.418 114.61 19.982C114.61 19.546 114.687 19.1428 114.838 18.7724C114.989 18.4067 115.2 18.0925 115.47 17.8347C115.735 17.5768 116.06 17.3752 116.439 17.2252C116.819 17.0751 117.24 17.0001 117.697 17.0001C118.077 17.0001 118.438 17.0658 118.786 17.197C119.129 17.3283 119.431 17.5205 119.687 17.7737C119.948 18.0222 120.149 18.327 120.296 18.688C120.442 19.049 120.511 19.4475 120.511 19.8835C120.511 20.3196 120.433 20.7181 120.282 21.0791L120.277 21.0838Z" fill="white"/>
<path d="M143.275 30.8709C142.824 30.8709 142.236 30.8805 141.522 30.8949C140.807 30.9092 140.057 30.9284 139.277 30.9428C138.497 30.9572 137.747 30.9716 137.032 30.9812C136.318 30.9907 135.73 30.9907 135.279 30.9907C135.06 30.9907 134.95 30.8469 134.95 30.5592C134.937 30.0175 134.924 29.4565 134.915 28.8812C134.906 28.3058 134.897 27.7641 134.88 27.2511C134.867 26.8339 134.797 26.5367 134.674 26.3497C134.551 26.1675 134.297 26.0572 133.915 26.0285C133.652 25.9949 133.302 25.9901 132.863 26.0189C132.425 26.0429 132.043 26.1004 131.723 26.2011C131.241 26.3449 131 26.8004 131 27.5675C131 27.9846 131.009 28.4209 131.022 28.886C131.035 29.351 131.057 29.8065 131.075 30.2668C131.096 30.7223 131.123 31.149 131.149 31.5469C131.18 31.9448 131.206 32.2901 131.237 32.5777C131.355 33.6948 131.925 34.2414 132.946 34.2078C133.705 34.1935 134.582 34.1695 135.577 34.1359C136.572 34.1024 137.563 34.0688 138.549 34.0256C139.536 33.9873 140.461 33.9441 141.324 33.8962C142.188 33.8483 142.881 33.7907 143.407 33.7284C143.639 33.6948 143.832 33.551 143.977 33.2969C144.121 33.0572 144.183 32.664 144.152 32.1222C144.108 31.2928 143.814 30.8757 143.275 30.8757V30.8709Z" fill="white"/>
<path d="M136.287 19.1234C136.444 19.1382 136.72 19.148 137.111 19.148C137.501 19.148 137.925 19.1333 138.382 19.0989C138.382 19.6883 138.382 20.2679 138.391 20.8426C138.401 21.4173 138.41 21.9477 138.429 22.4389C138.448 22.9301 138.458 23.3673 138.467 23.7553C138.477 24.1384 138.486 24.438 138.505 24.6492C138.539 25.1895 138.691 25.5481 138.967 25.7298C139.243 25.9116 139.629 26 140.119 26C140.643 26 141.057 25.9116 141.357 25.7298C141.657 25.5481 141.824 25.2141 141.857 24.7229C141.905 23.8044 141.938 22.8171 141.962 21.7513C141.986 20.6854 142 19.6343 142 18.5979C142 17.5615 142 16.5791 141.99 15.6606C141.981 14.7421 141.976 13.966 141.976 13.3275C141.976 12.9198 141.843 12.5907 141.572 12.3451C141.3 12.0995 140.819 11.9865 140.119 12.0013C139.42 12.016 138.953 12.1585 138.715 12.4188C138.477 12.6791 138.358 13.0328 138.358 13.4748V15.5869C137.882 15.6213 137.439 15.6459 137.025 15.6704C136.611 15.695 136.325 15.7244 136.168 15.7539C135.787 15.8374 135.492 15.9995 135.287 16.2451C135.082 16.4907 134.987 16.918 135.001 17.5222C135.035 18.0281 135.139 18.4161 135.325 18.6765C135.506 18.9368 135.83 19.0841 136.287 19.1185V19.1234Z" fill="white"/>
<path d="M144.908 12C144.16 12 143.653 12.1291 143.392 12.3873C143.131 12.6455 143 12.9882 143 13.4152V25.4817C143 26.028 143.136 26.4103 143.402 26.6239C143.674 26.8374 144.072 26.9615 144.594 26.9963C145.781 27.0459 146.424 26.599 146.528 25.6555C146.565 25.2931 146.596 24.8015 146.633 24.1907C146.669 23.5799 146.696 22.8946 146.727 22.1448C146.753 21.3901 146.779 20.6055 146.805 19.7861C146.832 18.9668 146.858 18.1624 146.884 17.3778C146.91 16.5932 146.931 15.8533 146.947 15.1681C146.962 14.4828 146.983 13.8969 146.999 13.4202C147.014 13.0378 146.879 12.7101 146.581 12.427C146.283 12.144 145.729 12.005 144.908 12.005V12Z" fill="white"/>
<path d="M132.691 22.886C132.921 23.1708 133.147 23.4507 133.377 23.7207C133.607 23.9908 133.829 24.2412 134.041 24.4671C134.254 24.6978 134.444 24.8844 134.604 25.0317C134.692 25.1152 134.794 25.1545 134.905 25.1545C135.016 25.1545 135.113 25.1397 135.202 25.1054C135.392 25.0415 135.596 24.9384 135.813 24.801C136.025 24.6635 136.22 24.4965 136.388 24.3001C136.557 24.1037 136.698 23.8828 136.809 23.6373C136.92 23.3918 136.982 23.1463 136.995 22.9008C137.008 22.7387 136.995 22.6111 136.942 22.5227C136.889 22.4343 136.827 22.3361 136.756 22.2428C136.326 21.6684 135.835 21.0595 135.281 20.4114C134.728 19.7633 134.157 19.0955 133.563 18.4081C133.576 18.1479 133.585 17.7944 133.585 17.3525V15.9629C133.585 15.4817 133.585 15.0055 133.576 14.539C133.568 14.0726 133.559 13.6749 133.541 13.3508C133.528 13.1397 133.497 12.9433 133.452 12.7616C133.408 12.5799 133.315 12.4326 133.178 12.3099C133.036 12.1871 132.841 12.0987 132.589 12.0545C132.336 12.0054 132 11.9907 131.57 12.0054C131.172 12.0398 130.848 12.0938 130.596 12.1773C130.344 12.2608 130.149 12.3737 130.007 12.521C129.865 12.6683 129.777 12.85 129.732 13.0611C129.688 13.2722 129.666 13.5177 129.666 13.7976C129.666 14.0775 129.675 14.431 129.688 14.8631C129.701 15.2952 129.724 15.7567 129.741 16.2379C129.763 16.7191 129.79 17.2052 129.817 17.6863C129.848 18.1675 129.874 18.5898 129.905 18.9531C129.67 19.3459 129.427 19.7387 129.174 20.1315C128.922 20.5243 128.678 20.9122 128.444 21.3001C128.209 21.6831 127.988 22.0464 127.779 22.3803C127.571 22.7142 127.39 23.0137 127.226 23.2739C127.004 23.652 126.947 24.0104 127.049 24.3541C127.106 24.5505 127.195 24.742 127.314 24.9286C127.434 25.1152 127.571 25.287 127.735 25.4442C127.899 25.6013 128.072 25.7289 128.258 25.837C128.444 25.945 128.621 25.999 128.798 25.999C129.183 26.0137 129.498 25.8664 129.75 25.5571C130.104 25.1299 130.468 24.6291 130.844 24.0448C131.22 23.4654 131.623 22.7977 132.053 22.0415C132.243 22.3214 132.456 22.6013 132.686 22.891L132.691 22.886Z" fill="white"/>
<path d="M166.87 12.741C166.787 12.5595 166.622 12.4019 166.373 12.273C166.019 12.0962 165.606 12.0055 165.132 12.0007C164.659 11.9912 164.236 12.0771 163.868 12.2491C163.408 12.4545 163.169 12.8796 163.155 13.5148C163.123 14.3602 163.105 15.1769 163.1 15.9746C163.091 16.7722 163.082 17.5651 163.064 18.3627C162.636 18.377 162.236 18.4009 161.868 18.4344C161.514 18.4487 161.271 18.4726 161.133 18.506C160.765 18.5872 160.48 18.7448 160.269 18.9836C160.062 19.2224 159.974 19.638 160.006 20.2255C160.039 20.7174 160.14 21.0947 160.314 21.3479C160.489 21.601 160.802 21.7443 161.243 21.7778C161.381 21.7921 161.611 21.8016 161.933 21.8016C162.254 21.8016 162.613 21.7921 163.013 21.7778V25.6847C163.013 26.9839 163.022 28.3213 163.036 29.7064C163.036 30.0264 163.109 30.2747 163.252 30.461C163.399 30.6425 163.569 30.7763 163.767 30.8527C163.983 30.9339 164.24 30.9816 164.548 30.996C164.856 31.0103 165.091 30.9864 165.261 30.9243C165.523 30.8288 165.757 30.6712 165.964 30.4562C166.171 30.2413 166.291 29.9595 166.323 29.6108C166.585 26.9505 166.769 24.2662 166.874 21.5485C166.98 18.8356 167.022 16.1465 166.989 13.4861C166.989 13.1661 166.948 12.9178 166.865 12.7315L166.87 12.741Z" fill="white"/>
<path d="M161.65 25.5729C161.448 25.4059 161.197 25.3296 160.888 25.3439C159.764 25.4059 158.572 25.4632 157.318 25.5109C156.064 25.5586 154.844 25.6159 153.652 25.6779C153.507 25.6779 153.392 25.6397 153.305 25.5682C153.218 25.4966 153.17 25.363 153.17 25.1721V22.8341C153.652 22.8341 154.154 22.8341 154.675 22.8246C155.196 22.815 155.702 22.8055 156.194 22.7864C156.686 22.7721 157.135 22.753 157.545 22.7387C157.955 22.7243 158.298 22.7053 158.568 22.6909C158.92 22.6575 159.18 22.5287 159.349 22.2949C159.518 22.0659 159.595 21.6698 159.576 21.1116C159.542 20.5533 159.441 20.1907 159.262 20.0141C159.084 19.8376 158.852 19.7612 158.563 19.7756C158.322 19.7756 157.998 19.7756 157.584 19.7851C157.174 19.7946 156.72 19.7994 156.218 19.809C155.722 19.8185 155.21 19.8233 154.689 19.8328C154.168 19.8424 153.667 19.8519 153.184 19.8662C153.199 19.3079 153.208 18.7592 153.208 18.2105V16.6454C154.38 16.5977 155.476 16.5548 156.489 16.5166C157.502 16.4784 158.577 16.3925 159.721 16.2685C160.444 16.1874 160.782 15.6005 160.734 14.503C160.7 13.9448 160.594 13.5583 160.41 13.334C160.227 13.1097 159.986 13 159.696 13C158.09 13.0334 156.493 13.0716 154.911 13.1193C153.329 13.167 151.694 13.2481 150.005 13.3579C149.634 13.3913 149.383 13.4867 149.243 13.6442C149.108 13.8016 149.031 14.0593 149.016 14.4076C149.002 15.3476 148.997 16.3973 149.002 17.5663C149.011 18.7354 149.026 19.9139 149.05 21.1068C149.074 22.2997 149.108 23.4592 149.147 24.5757C149.185 25.697 149.229 26.6704 149.282 27.4959C149.315 27.973 149.475 28.3452 149.764 28.6172C150.053 28.8891 150.43 29.0132 150.898 28.9989C151.78 28.9846 152.697 28.9416 153.633 28.8796C154.573 28.8176 155.485 28.746 156.373 28.6649C157.256 28.5838 158.095 28.5027 158.881 28.4168C159.668 28.3309 160.367 28.2354 160.98 28.14C161.284 28.0923 161.539 27.9396 161.742 27.6867C161.944 27.4338 162.026 27.0521 161.993 26.5416C161.959 26.0501 161.843 25.7209 161.645 25.5539L161.65 25.5729Z" fill="white"/>
</svg>
